<?xml version="1.0" encoding="UTF-8"?>
<svg xmlns="http://www.w3.org/2000/svg" viewBox="0 0 720 300" font-family="Inter, sans-serif">
  <text x="360" y="22" text-anchor="middle" font-size="15" font-weight="700" fill="#333">== vs === when an X is in the wire</text>

  <!-- waveform area -->
  <g transform="translate(40,50)">
    <!-- clk -->
    <text x="-5" y="14" text-anchor="end" font-size="10" font-family="JetBrains Mono" fill="#333">clk</text>
    <polyline points="0,18 20,18 20,5 40,5 40,18 60,18 60,5 80,5 80,18 100,18 100,5 120,5 120,18 140,18 140,5 160,5 160,18 180,18 180,5 200,5 200,18 220,18 220,5 240,5 240,18 260,18 260,5 280,5 280,18 300,18 300,5 320,5 320,18 340,18 340,5 360,5 360,18 380,18 380,5 400,5 400,18 420,18 420,5 440,5 440,18 460,18 460,5 480,5 480,18 500,18 500,5 520,5 520,18"
       fill="none" stroke="#1565C0" stroke-width="1.4"/>

    <!-- signal (4 bits: contains X) -->
    <text x="-5" y="44" text-anchor="end" font-size="10" font-family="JetBrains Mono" fill="#333">signal</text>
    <rect x="0" y="33" width="160" height="20" fill="#E3F2FD" stroke="#1565C0"/>
    <text x="80" y="48" text-anchor="middle" font-size="10" font-family="JetBrains Mono">4'b1011</text>
    <rect x="160" y="33" width="200" height="20" fill="#FFEBEE" stroke="#C62828"/>
    <text x="260" y="48" text-anchor="middle" font-size="10" font-family="JetBrains Mono" font-weight="700" fill="#C62828">4'b10X1</text>
    <rect x="360" y="33" width="160" height="20" fill="#E3F2FD" stroke="#1565C0"/>
    <text x="440" y="48" text-anchor="middle" font-size="10" font-family="JetBrains Mono">4'b1011</text>

    <!-- result of (signal == 4'b1011) -->
    <text x="-5" y="75" text-anchor="end" font-size="9" font-family="JetBrains Mono" fill="#333">==</text>
    <rect x="0" y="63" width="160" height="20" fill="#E8F5E9" stroke="#2E7D32"/>
    <text x="80" y="78" text-anchor="middle" font-size="10" font-weight="700" fill="#2E7D32" font-family="JetBrains Mono">1</text>
    <rect x="160" y="63" width="200" height="20" fill="#FFEBEE" stroke="#C62828"/>
    <text x="260" y="78" text-anchor="middle" font-size="10" font-weight="700" fill="#C62828" font-family="JetBrains Mono">X  ← ambiguous</text>
    <rect x="360" y="63" width="160" height="20" fill="#E8F5E9" stroke="#2E7D32"/>
    <text x="440" y="78" text-anchor="middle" font-size="10" font-weight="700" fill="#2E7D32" font-family="JetBrains Mono">1</text>

    <!-- result of (signal === 4'b1011) -->
    <text x="-5" y="105" text-anchor="end" font-size="9" font-family="JetBrains Mono" fill="#333">===</text>
    <rect x="0" y="93" width="160" height="20" fill="#E8F5E9" stroke="#2E7D32"/>
    <text x="80" y="108" text-anchor="middle" font-size="10" font-weight="700" fill="#2E7D32" font-family="JetBrains Mono">1</text>
    <rect x="160" y="93" width="200" height="20" fill="#E8F5E9" stroke="#2E7D32"/>
    <text x="260" y="108" text-anchor="middle" font-size="10" font-weight="700" fill="#2E7D32" font-family="JetBrains Mono">0  ← clean FALSE</text>
    <rect x="360" y="93" width="160" height="20" fill="#E8F5E9" stroke="#2E7D32"/>
    <text x="440" y="108" text-anchor="middle" font-size="10" font-weight="700" fill="#2E7D32" font-family="JetBrains Mono">1</text>

    <!-- region label -->
    <text x="80" y="135" text-anchor="middle" font-size="9" fill="#666">clean compare</text>
    <text x="260" y="135" text-anchor="middle" font-size="10" font-weight="700" fill="#C62828">X bit flips into the result</text>
    <text x="440" y="135" text-anchor="middle" font-size="9" fill="#666">clean compare</text>
  </g>

  <!-- callout -->
  <rect x="40" y="215" width="640" height="65" rx="6" fill="#FFF8E1" stroke="#D4A843" stroke-width="1.5"/>
  <text x="50" y="237" font-size="11" font-weight="700" fill="#333">Why this matters in a testbench:</text>
  <text x="50" y="256" font-size="10" fill="#444">• <tspan font-family="JetBrains Mono">==</tspan> returns X when either operand has X — an <tspan font-style="italic">if</tspan> on X often skips the check entirely</text>
  <text x="50" y="272" font-size="10" fill="#444">• <tspan font-family="JetBrains Mono">!==</tspan> treats X as a literal value → an undefined DUT output becomes a FAIL, not a silent skip</text>
</svg>
