<?xml version="1.0" encoding="UTF-8"?>
<svg xmlns="http://www.w3.org/2000/svg" viewBox="0 0 760 320" font-family="Inter, sans-serif">
  <defs>
    <marker id="aBluPd" markerWidth="8" markerHeight="6" refX="7" refY="3" orient="auto"><path d="M0,0 L8,3 L0,6 Z" fill="#1976D2"/></marker>
    <marker id="aPurPd" markerWidth="8" markerHeight="6" refX="7" refY="3" orient="auto"><path d="M0,0 L8,3 L0,6 Z" fill="#7B1FA2"/></marker>
    <marker id="aOrgPd" markerWidth="8" markerHeight="6" refX="7" refY="3" orient="auto"><path d="M0,0 L8,3 L0,6 Z" fill="#F57C00"/></marker>
    <marker id="aMagPd" markerWidth="8" markerHeight="6" refX="7" refY="3" orient="auto"><path d="M0,0 L8,3 L0,6 Z" fill="#C2185B"/></marker>
    <marker id="aGrnPd" markerWidth="8" markerHeight="6" refX="7" refY="3" orient="auto"><path d="M0,0 L8,3 L0,6 Z" fill="#2E7D32"/></marker>
    <marker id="aTealPd" markerWidth="8" markerHeight="6" refX="7" refY="3" orient="auto"><path d="M0,0 L8,3 L0,6 Z" fill="#00838F"/></marker>
  </defs>
  <text x="380" y="22" text-anchor="middle" font-size="14" font-weight="700" fill="#333">UART printf — emit one ASCII byte on every FSM state transition</text>

  <rect x="30" y="40" width="700" height="260" rx="10" fill="#FAFAFA" stroke="#37474F" stroke-width="2" stroke-dasharray="6,4"/>

  <!-- clk -->
  <text x="45" y="90" font-size="11" fill="#1976D2" font-weight="700">clk</text>
  <line x1="68" y1="85" x2="200" y2="85" stroke="#1976D2" stroke-width="2"/>
  <line x1="200" y1="85" x2="200" y2="105" stroke="#1976D2" stroke-width="2" marker-end="url(#aBluPd)"/>
  <line x1="200" y1="85" x2="480" y2="85" stroke="#1976D2" stroke-width="2"/>
  <line x1="480" y1="85" x2="480" y2="105" stroke="#1976D2" stroke-width="2" marker-end="url(#aBluPd)"/>

  <!-- r_state (input from FSM) -->
  <text x="45" y="135" font-size="11" fill="#7B1FA2" font-weight="700">r_state</text>
  <line x1="85" y1="130" x2="155" y2="130" stroke="#7B1FA2" stroke-width="2"/>
  <line x1="155" y1="130" x2="200" y2="130" stroke="#7B1FA2" stroke-width="2" marker-end="url(#aPurPd)"/>
  <line x1="155" y1="130" x2="155" y2="190" stroke="#7B1FA2" stroke-width="2"/>
  <line x1="155" y1="190" x2="200" y2="190" stroke="#7B1FA2" stroke-width="2" marker-end="url(#aPurPd)"/>

  <!-- r_prev_state DFF -->
  <rect x="200" y="105" width="130" height="60" rx="6" fill="#F3E5F5" stroke="#7B1FA2" stroke-width="2"/>
  <text x="265" y="128" text-anchor="middle" font-size="11" font-weight="700" fill="#7B1FA2">r_prev_state</text>
  <text x="265" y="145" text-anchor="middle" font-size="9" fill="#7B1FA2">D-FF (last state)</text>

  <!-- comparator != -->
  <polygon points="200,180 245,170 245,220 200,210 200,180" fill="#FFEBEE" stroke="#C2185B" stroke-width="2"/>
  <text x="225" y="200" text-anchor="middle" font-size="11" font-weight="700" fill="#C2185B">≠</text>

  <line x1="330" y1="135" x2="350" y2="135" stroke="#7B1FA2" stroke-width="2"/>
  <line x1="350" y1="135" x2="350" y2="200" stroke="#7B1FA2" stroke-width="2"/>
  <line x1="350" y1="200" x2="245" y2="200" stroke="#7B1FA2" stroke-width="0" />
  <line x1="350" y1="200" x2="245" y2="200" stroke="#7B1FA2" stroke-width="2" marker-end="url(#aPurPd)"/>

  <!-- comparator output = state-changed pulse = o_tx_valid -->
  <line x1="245" y1="195" x2="285" y2="195" stroke="#C2185B" stroke-width="2"/>
  <line x1="285" y1="195" x2="285" y2="248" stroke="#C2185B" stroke-width="2"/>
  <line x1="285" y1="248" x2="430" y2="248" stroke="#C2185B" stroke-width="2" marker-end="url(#aMagPd)"/>
  <text x="320" y="240" font-size="9" fill="#C2185B" font-weight="700">o_tx_valid</text>

  <!-- ASCII lookup -->
  <rect x="370" y="105" width="160" height="80" rx="8" fill="#FFFDE7" stroke="#9A6F00" stroke-width="2"/>
  <text x="450" y="125" text-anchor="middle" font-size="11" font-weight="700" fill="#9A6F00">case (r_state)</text>
  <text x="450" y="145" text-anchor="middle" font-size="9" fill="#555">IDLE→'I' RUN→'R'</text>
  <text x="450" y="158" text-anchor="middle" font-size="9" fill="#555">DONE→'D' ERR→'E'</text>
  <text x="450" y="175" text-anchor="middle" font-size="9" fill="#888" font-style="italic">ASCII lookup</text>

  <!-- arrows from r_state into ASCII lookup -->
  <line x1="330" y1="135" x2="370" y2="135" stroke="#7B1FA2" stroke-width="0"/>
  <line x1="350" y1="135" x2="370" y2="135" stroke="#7B1FA2" stroke-width="2" marker-end="url(#aPurPd)"/>

  <!-- ASCII -> o_tx_data -->
  <line x1="530" y1="155" x2="600" y2="155" stroke="#F57C00" stroke-width="2"/>
  <line x1="600" y1="155" x2="600" y2="220" stroke="#F57C00" stroke-width="2"/>
  <line x1="600" y1="220" x2="500" y2="220" stroke="#F57C00" stroke-width="2"/>
  <line x1="500" y1="220" x2="500" y2="245" stroke="#F57C00" stroke-width="2"/>
  <line x1="500" y1="245" x2="430" y2="245" stroke="#F57C00" stroke-width="0"/>
  <line x1="500" y1="245" x2="430" y2="245" stroke="#F57C00" stroke-width="2"/>

  <!-- u_tx -->
  <rect x="430" y="225" width="180" height="60" rx="8" fill="#FFF3E0" stroke="#C2185B" stroke-width="2"/>
  <text x="520" y="250" text-anchor="middle" font-size="11" font-weight="700" fill="#C2185B">uart_tx (debug printf)</text>
  <text x="520" y="265" text-anchor="middle" font-size="9" fill="#888" font-style="italic">already in your design</text>

  <!-- to laptop -->
  <line x1="610" y1="252" x2="700" y2="252" stroke="#2E7D32" stroke-width="2" marker-end="url(#aGrnPd)"/>
  <text x="708" y="256" font-size="11" fill="#2E7D32" font-weight="700">o_uart_tx</text>
  <text x="708" y="268" font-size="9" fill="#888">→ minicom</text>

  <text x="380" y="293" text-anchor="middle" font-size="10" fill="#555" font-style="italic">Press buttons → terminal prints "I→R→D" — instant FSM trace, no JTAG needed</text>
</svg>
