<?xml version="1.0" encoding="UTF-8"?>
<svg xmlns="http://www.w3.org/2000/svg" viewBox="0 0 820 290" font-family="Inter, sans-serif">
  <defs>
    <marker id="arr" markerWidth="8" markerHeight="6" refX="8" refY="3" orient="auto">
      <path d="M0,0 L8,3 L0,6 Z" fill="#333"/>
    </marker>
    <marker id="arrTeal" markerWidth="8" markerHeight="6" refX="8" refY="3" orient="auto">
      <path d="M0,0 L8,3 L0,6 Z" fill="#00897B"/>
    </marker>
    <marker id="arrBlue" markerWidth="8" markerHeight="6" refX="8" refY="3" orient="auto">
      <path d="M0,0 L8,3 L0,6 Z" fill="#1E88E5"/>
    </marker>
    <marker id="arrGreen" markerWidth="8" markerHeight="6" refX="8" refY="3" orient="auto">
      <path d="M0,0 L8,3 L0,6 Z" fill="#43A047"/>
    </marker>
    <marker id="arrPurple" markerWidth="8" markerHeight="6" refX="8" refY="3" orient="auto">
      <path d="M0,0 L8,3 L0,6 Z" fill="#8E24AA"/>
    </marker>
  </defs>

  <text x="410" y="22" text-anchor="middle" font-size="15" font-weight="700" fill="#333">SIPO Shift Register — RTL Block Diagram</text>
  <text x="410" y="40" text-anchor="middle" font-size="10" fill="#777" font-style="italic">Chain of D flip-flops: each Q feeds the next D. 1 bit per clock enters at bit 0.</text>

  <!-- Serial in (teal) -->
  <text x="55" y="123" text-anchor="end" font-size="11" fill="#00897B" font-weight="700">i_serial_in</text>
  <line x1="60" y1="120" x2="100" y2="120" stroke="#00897B" stroke-width="1.8" marker-end="url(#arrTeal)"/>

  <!-- 8 flip-flops (orange = state) -->
  <g id="ff0">
    <rect x="100" y="95" width="60" height="55" rx="4" fill="#FFF3E0" stroke="#FB8C00" stroke-width="1.8"/>
    <text x="130" y="115" text-anchor="middle" font-size="10" font-weight="700" fill="#FB8C00">FF[0]</text>
    <text x="108" y="135" font-size="9" fill="#555">D</text>
    <text x="148" y="135" font-size="9" fill="#555">Q</text>
  </g>
  <line x1="160" y1="120" x2="180" y2="120" stroke="#333" stroke-width="1.5" marker-end="url(#arr)"/>

  <g id="ff1">
    <rect x="180" y="95" width="60" height="55" rx="4" fill="#FFF3E0" stroke="#FB8C00" stroke-width="1.8"/>
    <text x="210" y="115" text-anchor="middle" font-size="10" font-weight="700" fill="#FB8C00">FF[1]</text>
    <text x="188" y="135" font-size="9" fill="#555">D</text>
    <text x="228" y="135" font-size="9" fill="#555">Q</text>
  </g>
  <line x1="240" y1="120" x2="260" y2="120" stroke="#333" stroke-width="1.5" marker-end="url(#arr)"/>

  <g id="ff2">
    <rect x="260" y="95" width="60" height="55" rx="4" fill="#FFF3E0" stroke="#FB8C00" stroke-width="1.8"/>
    <text x="290" y="115" text-anchor="middle" font-size="10" font-weight="700" fill="#FB8C00">FF[2]</text>
    <text x="268" y="135" font-size="9" fill="#555">D</text>
    <text x="308" y="135" font-size="9" fill="#555">Q</text>
  </g>
  <line x1="320" y1="120" x2="340" y2="120" stroke="#333" stroke-width="1.5"/>

  <text x="360" y="124" text-anchor="middle" font-size="14" font-weight="700" fill="#888">···</text>

  <line x1="380" y1="120" x2="400" y2="120" stroke="#333" stroke-width="1.5" marker-end="url(#arr)"/>

  <g id="ff7">
    <rect x="400" y="95" width="60" height="55" rx="4" fill="#FFF3E0" stroke="#FB8C00" stroke-width="1.8"/>
    <text x="430" y="115" text-anchor="middle" font-size="10" font-weight="700" fill="#FB8C00">FF[N-1]</text>
    <text x="408" y="135" font-size="9" fill="#555">D</text>
    <text x="448" y="135" font-size="9" fill="#555">Q</text>
  </g>

  <!-- Q of last → drops off MSB -->
  <line x1="460" y1="120" x2="500" y2="120" stroke="#999" stroke-width="1.2" stroke-dasharray="3,2"/>
  <text x="510" y="123" font-size="9" fill="#999" font-style="italic">(drops off MSB)</text>

  <!-- Parallel out taps (green) -->
  <line x1="130" y1="150" x2="130" y2="200" stroke="#43A047" stroke-width="1.6" marker-end="url(#arrGreen)"/>
  <text x="130" y="215" text-anchor="middle" font-size="9" fill="#43A047" font-weight="700">par[0]</text>
  <line x1="210" y1="150" x2="210" y2="200" stroke="#43A047" stroke-width="1.6" marker-end="url(#arrGreen)"/>
  <text x="210" y="215" text-anchor="middle" font-size="9" fill="#43A047" font-weight="700">par[1]</text>
  <line x1="290" y1="150" x2="290" y2="200" stroke="#43A047" stroke-width="1.6" marker-end="url(#arrGreen)"/>
  <text x="290" y="215" text-anchor="middle" font-size="9" fill="#43A047" font-weight="700">par[2]</text>
  <line x1="430" y1="150" x2="430" y2="200" stroke="#43A047" stroke-width="1.6" marker-end="url(#arrGreen)"/>
  <text x="430" y="215" text-anchor="middle" font-size="9" fill="#43A047" font-weight="700">par[N-1]</text>

  <text x="280" y="240" text-anchor="middle" font-size="11" fill="#43A047" font-weight="700">o_parallel_out [N-1:0]</text>

  <!-- Shift enable (purple) — only the flops get the enable -->
  <text x="55" y="62" text-anchor="end" font-size="11" fill="#8E24AA" font-weight="700">i_shift_en</text>
  <line x1="60" y1="58" x2="460" y2="58" stroke="#8E24AA" stroke-width="1.2"/>
  <line x1="130" y1="58" x2="130" y2="95" stroke="#8E24AA" stroke-width="1.2" marker-end="url(#arrPurple)"/>
  <line x1="210" y1="58" x2="210" y2="95" stroke="#8E24AA" stroke-width="1.2" marker-end="url(#arrPurple)"/>
  <line x1="290" y1="58" x2="290" y2="95" stroke="#8E24AA" stroke-width="1.2" marker-end="url(#arrPurple)"/>
  <line x1="430" y1="58" x2="430" y2="95" stroke="#8E24AA" stroke-width="1.2" marker-end="url(#arrPurple)"/>
  <text x="475" y="62" font-size="9" fill="#8E24AA" font-style="italic">→ CE</text>

  <!-- Clock (blue) -->
  <text x="55" y="263" text-anchor="end" font-size="11" fill="#1E88E5" font-weight="700">i_clk</text>
  <line x1="60" y1="260" x2="460" y2="260" stroke="#1E88E5" stroke-width="1.2"/>
  <line x1="130" y1="260" x2="130" y2="225" stroke="#1E88E5" stroke-width="1.2"/>
  <line x1="210" y1="260" x2="210" y2="225" stroke="#1E88E5" stroke-width="1.2"/>
  <line x1="290" y1="260" x2="290" y2="225" stroke="#1E88E5" stroke-width="1.2"/>
  <line x1="430" y1="260" x2="430" y2="225" stroke="#1E88E5" stroke-width="1.2"/>
  <!-- Re-route clock to the flop CLK pins (under the par taps) -->
  <text x="475" y="263" font-size="9" fill="#1E88E5" font-style="italic">→ CLK</text>

  <text x="640" y="120" font-size="10" fill="#777" font-style="italic">Zero LUTs —</text>
  <text x="640" y="135" font-size="10" fill="#777" font-style="italic">pure wire routing</text>
  <text x="640" y="150" font-size="10" fill="#777" font-style="italic">between flops</text>
</svg>
