<?xml version="1.0" encoding="UTF-8"?>
<svg xmlns="http://www.w3.org/2000/svg" viewBox="0 0 820 360" font-family="Inter, sans-serif">
  <defs>
    <marker id="arr" markerWidth="8" markerHeight="6" refX="7" refY="3" orient="auto">
      <path d="M0,0 L8,3 L0,6 Z" fill="#333"/>
    </marker>
    <marker id="arrBlue" markerWidth="8" markerHeight="6" refX="7" refY="3" orient="auto">
      <path d="M0,0 L8,3 L0,6 Z" fill="#1976D2"/>
    </marker>
    <marker id="arrRed" markerWidth="8" markerHeight="6" refX="7" refY="3" orient="auto">
      <path d="M0,0 L8,3 L0,6 Z" fill="#D32F2F"/>
    </marker>
    <marker id="arrPurple" markerWidth="8" markerHeight="6" refX="7" refY="3" orient="auto">
      <path d="M0,0 L8,3 L0,6 Z" fill="#7B1FA2"/>
    </marker>
    <marker id="arrOrange" markerWidth="8" markerHeight="6" refX="7" refY="3" orient="auto">
      <path d="M0,0 L8,3 L0,6 Z" fill="#7B1FA2"/>
    </marker>
  </defs>

  <text x="410" y="22" text-anchor="middle" font-size="15" font-weight="700" fill="#333">Up/Down Counter — RTL Block Diagram</text>
  <text x="410" y="40" text-anchor="middle" font-size="10" fill="#777" font-style="italic">Two adders ( +1 / −1 ); i_up selects which result enters the register</text>

  <!-- +1 adder block -->
  <rect x="120" y="90" width="70" height="36" rx="4" fill="#E8F5E9" stroke="#2E7D32" stroke-width="1.8"/>
  <text x="155" y="113" text-anchor="middle" font-size="13" font-weight="700" fill="#2E7D32">+ 1</text>

  <!-- -1 adder block -->
  <rect x="120" y="180" width="70" height="36" rx="4" fill="#FFEBEE" stroke="#D32F2F" stroke-width="1.8"/>
  <text x="155" y="203" text-anchor="middle" font-size="13" font-weight="700" fill="#D32F2F">− 1</text>

  <!-- 2:1 MUX -->
  <polygon points="240,75 290,98 290,212 240,235" fill="#F3E5F5" stroke="#7B1FA2" stroke-width="2"/>
  <text x="265" y="158" text-anchor="middle" font-size="11" font-weight="700" fill="#7B1FA2">MUX</text>
  <text x="246" y="100" font-size="9" fill="#555" font-weight="700">1</text>
  <text x="246" y="222" font-size="9" fill="#555" font-weight="700">0</text>

  <!-- +1 → MUX input 1 -->
  <line x1="190" y1="108" x2="240" y2="108" stroke="#2E7D32" stroke-width="1.6" marker-end="url(#arr)"/>
  <text x="195" y="100" font-size="8" fill="#2E7D32" font-style="italic">count+1</text>

  <!-- -1 → MUX input 0 -->
  <line x1="190" y1="198" x2="240" y2="198" stroke="#D32F2F" stroke-width="1.6" marker-end="url(#arr)"/>
  <text x="195" y="190" font-size="8" fill="#D32F2F" font-style="italic">count−1</text>

  <!-- MUX out → Register D -->
  <line x1="290" y1="155" x2="340" y2="155" stroke="#333" stroke-width="1.6"/>
  <line x1="340" y1="155" x2="340" y2="220" stroke="#333" stroke-width="1.6"/>
  <line x1="340" y1="220" x2="390" y2="220" stroke="#333" stroke-width="1.6" marker-end="url(#arr)"/>
  <text x="300" y="148" font-size="9" fill="#666" font-style="italic">next</text>

  <!-- Register -->
  <rect x="390" y="200" width="150" height="110" rx="6" fill="#F3E5F5" stroke="#7B1FA2" stroke-width="2"/>
  <text x="465" y="225" text-anchor="middle" font-size="13" font-weight="700" fill="#F57C00">Register</text>
  <text x="465" y="248" text-anchor="middle" font-size="10" fill="#333">[W-1:0]</text>
  <text x="465" y="264" text-anchor="middle" font-size="11" fill="#2E7D32" font-weight="700">o_count</text>

  <text x="396" y="217" font-size="9" fill="#F57C00" font-weight="700">D</text>
  <text x="423" y="304" font-size="9" fill="#F57C00" font-weight="700">CLK</text>
  <text x="460" y="304" font-size="9" fill="#F57C00" font-weight="700">R</text>
  <text x="527" y="252" font-size="9" fill="#F57C00" font-weight="700">Q</text>

  <!-- Clock triangle -->
  <polygon points="418,310 430,310 424,302" fill="none" stroke="#7B1FA2" stroke-width="1.5"/>

  <!-- Register Q → tap to feedback and out -->
  <line x1="540" y1="248" x2="600" y2="248" stroke="#7B1FA2" stroke-width="2"/>
  <circle cx="600" cy="248" r="3.2" fill="#7B1FA2"/>

  <!-- to o_count output -->
  <line x1="600" y1="248" x2="730" y2="248" stroke="#7B1FA2" stroke-width="2" marker-end="url(#arrOrange)"/>
  <text x="738" y="252" font-size="11" font-weight="700" fill="#2E7D32">o_count</text>

  <!-- feedback Q → +1 and -1 inputs -->
  <line x1="600" y1="248" x2="600" y2="335" stroke="#7B1FA2" stroke-width="1.5" stroke-dasharray="3,3"/>
  <line x1="600" y1="335" x2="80" y2="335" stroke="#7B1FA2" stroke-width="1.5" stroke-dasharray="3,3"/>
  <line x1="80" y1="335" x2="80" y2="108" stroke="#7B1FA2" stroke-width="1.5" stroke-dasharray="3,3"/>
  <line x1="80" y1="108" x2="120" y2="108" stroke="#7B1FA2" stroke-width="1.5" stroke-dasharray="3,3" marker-end="url(#arrOrange)"/>
  <line x1="80" y1="198" x2="120" y2="198" stroke="#7B1FA2" stroke-width="1.5" stroke-dasharray="3,3" marker-end="url(#arrOrange)"/>
  <circle cx="80" cy="198" r="3" fill="#7B1FA2"/>
  <text x="300" y="350" font-size="9" fill="#F57C00" font-style="italic">feedback (Q → adders)</text>

  <!-- i_up: drives MUX sel (purple) -->
  <text x="60" y="62" text-anchor="end" font-size="11" fill="#F57C00" font-weight="700">i_up</text>
  <line x1="65" y1="58" x2="265" y2="58" stroke="#7B1FA2" stroke-width="1.6"/>
  <line x1="265" y1="58" x2="265" y2="75" stroke="#7B1FA2" stroke-width="1.6" marker-end="url(#arrPurple)"/>
  <text x="270" y="72" font-size="9" fill="#7B1FA2" font-style="italic">sel</text>

  <!-- i_clk -->
  <text x="60" y="282" text-anchor="end" font-size="11" fill="#1976D2" font-weight="700">i_clk</text>
  <line x1="65" y1="279" x2="424" y2="279" stroke="#1976D2" stroke-width="1.6"/>
  <line x1="424" y1="279" x2="424" y2="310" stroke="#1976D2" stroke-width="1.6" marker-end="url(#arrBlue)"/>

  <!-- i_reset -->
  <text x="60" y="362" text-anchor="end" font-size="11" fill="#D32F2F" font-weight="700">i_reset</text>
  <line x1="65" y1="358" x2="460" y2="358" stroke="#D32F2F" stroke-width="1.6"/>
  <line x1="460" y1="358" x2="460" y2="310" stroke="#D32F2F" stroke-width="1.6" marker-end="url(#arrRed)"/>
</svg>
