<?xml version="1.0" encoding="UTF-8"?>
<svg xmlns="http://www.w3.org/2000/svg" viewBox="0 0 800 290" font-family="Inter, sans-serif">
  <defs>
    <marker id="arr" markerWidth="8" markerHeight="6" refX="8" refY="3" orient="auto">
      <path d="M0,0 L8,3 L0,6 Z" fill="#333"/>
    </marker>
    <marker id="arrTeal" markerWidth="8" markerHeight="6" refX="8" refY="3" orient="auto">
      <path d="M0,0 L8,3 L0,6 Z" fill="#00897B"/>
    </marker>
    <marker id="arrBlue" markerWidth="8" markerHeight="6" refX="8" refY="3" orient="auto">
      <path d="M0,0 L8,3 L0,6 Z" fill="#1E88E5"/>
    </marker>
    <marker id="arrGreen" markerWidth="8" markerHeight="6" refX="8" refY="3" orient="auto">
      <path d="M0,0 L8,3 L0,6 Z" fill="#43A047"/>
    </marker>
    <marker id="arrOrange" markerWidth="8" markerHeight="6" refX="8" refY="3" orient="auto">
      <path d="M0,0 L8,3 L0,6 Z" fill="#FB8C00"/>
    </marker>
  </defs>

  <text x="400" y="22" text-anchor="middle" font-size="15" font-weight="700" fill="#333">2-Flop Synchronizer — RTL Block Diagram</text>
  <text x="400" y="40" text-anchor="middle" font-size="10" fill="#777" font-style="italic">First flop absorbs metastability; second flop gives it a full clock period to resolve</text>

  <!-- Async in (teal — incoming data, dashed = async) -->
  <text x="55" y="123" text-anchor="end" font-size="11" fill="#00897B" font-weight="700">i_async_in</text>
  <text x="55" y="138" text-anchor="end" font-size="9" fill="#00897B" font-style="italic">(async)</text>
  <line x1="60" y1="120" x2="180" y2="120" stroke="#00897B" stroke-width="2" stroke-dasharray="5,3" marker-end="url(#arrTeal)"/>

  <!-- First flop (orange = state, with red ⚠ — at metastability risk) -->
  <rect x="180" y="80" width="100" height="80" rx="6" fill="#FFF3E0" stroke="#FB8C00" stroke-width="2"/>
  <text x="230" y="105" text-anchor="middle" font-size="12" font-weight="700" fill="#FB8C00">r_meta</text>
  <text x="230" y="123" text-anchor="middle" font-size="10" fill="#333">FF #1</text>
  <text x="188" y="148" font-size="10" fill="#555">D</text>
  <text x="266" y="148" font-size="10" fill="#555">Q</text>
  <text x="230" y="172" text-anchor="middle" font-size="9" fill="#E53935" font-style="italic">⚠ may go metastable</text>

  <!-- Between flops (orange — register-to-register) -->
  <line x1="280" y1="120" x2="390" y2="120" stroke="#FB8C00" stroke-width="1.8" marker-end="url(#arrOrange)"/>
  <text x="335" y="110" text-anchor="middle" font-size="9" fill="#FB8C00" font-style="italic">resolves over 1 clk period</text>

  <!-- Second flop (orange = state, with ✓ note) -->
  <rect x="390" y="80" width="100" height="80" rx="6" fill="#FFF3E0" stroke="#FB8C00" stroke-width="2"/>
  <text x="440" y="105" text-anchor="middle" font-size="12" font-weight="700" fill="#FB8C00">r_sync</text>
  <text x="440" y="123" text-anchor="middle" font-size="10" fill="#333">FF #2</text>
  <text x="398" y="148" font-size="10" fill="#555">D</text>
  <text x="476" y="148" font-size="10" fill="#555">Q</text>
  <text x="440" y="172" text-anchor="middle" font-size="9" fill="#43A047" font-style="italic">✓ clean &amp; synchronous</text>

  <!-- Output (green) -->
  <line x1="490" y1="120" x2="640" y2="120" stroke="#43A047" stroke-width="2" marker-end="url(#arrGreen)"/>
  <text x="660" y="124" font-size="11" fill="#43A047" font-weight="700">o_sync_out</text>
  <text x="660" y="138" font-size="9" fill="#999" font-style="italic">(sync)</text>

  <!-- Clock (blue) -->
  <text x="55" y="223" text-anchor="end" font-size="11" fill="#1E88E5" font-weight="700">i_clk</text>
  <line x1="60" y1="220" x2="490" y2="220" stroke="#1E88E5" stroke-width="1.5"/>
  <line x1="230" y1="220" x2="230" y2="160" stroke="#1E88E5" stroke-width="1.5" marker-end="url(#arrBlue)"/>
  <line x1="440" y1="220" x2="440" y2="160" stroke="#1E88E5" stroke-width="1.5" marker-end="url(#arrBlue)"/>

  <text x="335" y="260" text-anchor="middle" font-size="10" fill="#666" font-style="italic">Latency cost: 2 clock cycles. Logic cost: 2 flops, 0 LUTs.</text>
</svg>
