<?xml version="1.0" encoding="UTF-8"?>
<svg xmlns="http://www.w3.org/2000/svg" viewBox="0 0 880 380" font-family="Inter, sans-serif">
  <defs>
    <marker id="arr" markerWidth="8" markerHeight="6" refX="7" refY="3" orient="auto">
      <path d="M0,0 L8,3 L0,6 Z" fill="#333"/>
    </marker>
    <marker id="arrBlue" markerWidth="8" markerHeight="6" refX="7" refY="3" orient="auto">
      <path d="M0,0 L8,3 L0,6 Z" fill="#1E88E5"/>
    </marker>
    <marker id="arrRed" markerWidth="8" markerHeight="6" refX="7" refY="3" orient="auto">
      <path d="M0,0 L8,3 L0,6 Z" fill="#E53935"/>
    </marker>
    <marker id="arrPurple" markerWidth="8" markerHeight="6" refX="7" refY="3" orient="auto">
      <path d="M0,0 L8,3 L0,6 Z" fill="#8E24AA"/>
    </marker>
    <marker id="arrOrange" markerWidth="8" markerHeight="6" refX="7" refY="3" orient="auto">
      <path d="M0,0 L8,3 L0,6 Z" fill="#FB8C00"/>
    </marker>
    <marker id="arrTeal" markerWidth="8" markerHeight="6" refX="7" refY="3" orient="auto">
      <path d="M0,0 L8,3 L0,6 Z" fill="#00897B"/>
    </marker>
  </defs>

  <text x="440" y="22" text-anchor="middle" font-size="15" font-weight="700" fill="#333">Loadable Counter — RTL Block Diagram</text>
  <text x="440" y="40" text-anchor="middle" font-size="10" fill="#777" font-style="italic">2:1 MUX picks i_load_val or count+1; reset has top priority on the register</text>

  <!-- i_load_val coming in from top (teal) -->
  <text x="265" y="62" text-anchor="middle" font-size="11" fill="#00897B" font-weight="700">i_load_val</text>
  <line x1="265" y1="68" x2="265" y2="108" stroke="#00897B" stroke-width="1.6" marker-end="url(#arrTeal)"/>

  <!-- +1 adder -->
  <rect x="120" y="148" width="70" height="36" rx="4" fill="#E8F5E9" stroke="#43A047" stroke-width="1.8"/>
  <text x="155" y="172" text-anchor="middle" font-size="13" font-weight="700" fill="#43A047">+ 1</text>
  <line x1="190" y1="165" x2="225" y2="155" stroke="#333" stroke-width="1.5" marker-end="url(#arr)"/>

  <!-- 2:1 MUX -->
  <polygon points="225,85 273,108 273,152 225,175" fill="#F3E5F5" stroke="#8E24AA" stroke-width="2"/>
  <text x="249" y="134" text-anchor="middle" font-size="11" font-weight="700" fill="#8E24AA">MUX</text>
  <text x="231" y="108" font-size="9" fill="#555" font-weight="700">1</text>
  <text x="231" y="162" font-size="9" fill="#555" font-weight="700">0</text>

  <!-- MUX top input fed from i_load_val -->
  <line x1="265" y1="108" x2="263" y2="108" stroke="#00897B" stroke-width="1.6"/>

  <!-- MUX out → Register D -->
  <line x1="273" y1="130" x2="340" y2="130" stroke="#333" stroke-width="1.5"/>
  <line x1="340" y1="130" x2="340" y2="220" stroke="#333" stroke-width="1.5"/>
  <line x1="340" y1="220" x2="390" y2="220" stroke="#333" stroke-width="1.5" marker-end="url(#arr)"/>
  <text x="285" y="124" font-size="9" fill="#666" font-style="italic">next</text>

  <!-- Register -->
  <rect x="390" y="200" width="150" height="110" rx="6" fill="#FFF3E0" stroke="#FB8C00" stroke-width="2"/>
  <text x="465" y="225" text-anchor="middle" font-size="13" font-weight="700" fill="#FB8C00">Register</text>
  <text x="465" y="248" text-anchor="middle" font-size="10" fill="#333">[W-1:0]</text>
  <text x="465" y="264" text-anchor="middle" font-size="11" fill="#FB8C00" font-weight="700">o_count</text>

  <text x="396" y="217" font-size="9" fill="#FB8C00" font-weight="700">D</text>
  <text x="423" y="304" font-size="9" fill="#FB8C00" font-weight="700">CLK</text>
  <text x="460" y="304" font-size="9" fill="#FB8C00" font-weight="700">R</text>
  <text x="527" y="252" font-size="9" fill="#FB8C00" font-weight="700">Q</text>
  <polygon points="418,310 430,310 424,302" fill="none" stroke="#FB8C00" stroke-width="1.5"/>

  <!-- Register Q → out tap -->
  <line x1="540" y1="248" x2="600" y2="248" stroke="#FB8C00" stroke-width="2"/>
  <circle cx="600" cy="248" r="3.2" fill="#FB8C00"/>

  <!-- Q → o_count output -->
  <line x1="600" y1="248" x2="780" y2="248" stroke="#FB8C00" stroke-width="2" marker-end="url(#arrOrange)"/>
  <text x="790" y="252" font-size="11" font-weight="700" fill="#FB8C00">o_count</text>

  <!-- Feedback Q → +1 input -->
  <line x1="600" y1="248" x2="600" y2="350" stroke="#FB8C00" stroke-width="1.5" stroke-dasharray="3,3"/>
  <line x1="600" y1="350" x2="155" y2="350" stroke="#FB8C00" stroke-width="1.5" stroke-dasharray="3,3"/>
  <line x1="155" y1="350" x2="155" y2="184" stroke="#FB8C00" stroke-width="1.5" stroke-dasharray="3,3" marker-end="url(#arrOrange)"/>
  <text x="330" y="366" font-size="9" fill="#FB8C00" font-style="italic">feedback (Q → D+1)</text>

  <!-- i_load: drives MUX sel (purple) -->
  <text x="60" y="62" text-anchor="end" font-size="11" fill="#8E24AA" font-weight="700">i_load</text>
  <line x1="65" y1="58" x2="249" y2="58" stroke="#8E24AA" stroke-width="1.6"/>
  <line x1="249" y1="58" x2="249" y2="85" stroke="#8E24AA" stroke-width="1.6" marker-end="url(#arrPurple)"/>
  <text x="255" y="80" font-size="9" fill="#8E24AA" font-style="italic">sel</text>

  <!-- i_clk -->
  <text x="60" y="282" text-anchor="end" font-size="11" fill="#1E88E5" font-weight="700">i_clk</text>
  <line x1="65" y1="279" x2="424" y2="279" stroke="#1E88E5" stroke-width="1.6"/>
  <line x1="424" y1="279" x2="424" y2="310" stroke="#1E88E5" stroke-width="1.6" marker-end="url(#arrBlue)"/>

  <!-- i_reset -->
  <text x="60" y="362" text-anchor="end" font-size="11" fill="#E53935" font-weight="700">i_reset</text>
  <line x1="65" y1="358" x2="460" y2="358" stroke="#E53935" stroke-width="1.6"/>
  <line x1="460" y1="358" x2="460" y2="310" stroke="#E53935" stroke-width="1.6" marker-end="url(#arrRed)"/>

  <!-- Priority annotation -->
  <text x="700" y="65" font-size="9" fill="#777" font-style="italic">Priority: reset &gt; load &gt; count</text>
  <text x="700" y="80" font-size="9" fill="#777" font-style="italic">(reset wins at R pin;</text>
  <text x="700" y="93" font-size="9" fill="#777" font-style="italic">load wins at MUX)</text>
</svg>
