<?xml version="1.0" encoding="UTF-8"?>
<svg xmlns="http://www.w3.org/2000/svg" viewBox="0 0 760 420" font-family="Inter, sans-serif">
  <defs>
    <marker id="arr" markerWidth="8" markerHeight="6" refX="8" refY="3" orient="auto">
      <path d="M0,0 L8,3 L0,6 Z" fill="#333"/>
    </marker>
    <marker id="arr-r" markerWidth="8" markerHeight="6" refX="8" refY="3" orient="auto">
      <path d="M0,0 L8,3 L0,6 Z" fill="#C62828"/>
    </marker>
    <marker id="arr-g" markerWidth="8" markerHeight="6" refX="8" refY="3" orient="auto">
      <path d="M0,0 L8,3 L0,6 Z" fill="#2E7D32"/>
    </marker>
  </defs>

  <text x="380" y="22" text-anchor="middle" font-size="15" font-weight="700" fill="#333">Counter-Based Debouncer — Implicit State Machine</text>
  <text x="380" y="40" text-anchor="middle" font-size="10" fill="#777" font-style="italic">"Accept new value only after CLKS_STABLE consecutive cycles of difference"</text>

  <!-- Reset arrow -->
  <line x1="120" y1="62" x2="120" y2="98" stroke="#C62828" stroke-width="2" marker-end="url(#arr-r)"/>
  <text x="120" y="56" text-anchor="middle" font-size="10" fill="#C62828" font-weight="600">RESET</text>

  <!-- ===== STABLE_LOW state ===== -->
  <circle cx="120" cy="170" r="68" fill="#E3F2FD" stroke="#1565C0" stroke-width="2.5"/>
  <text x="120" y="158" text-anchor="middle" font-size="13" font-weight="700" fill="#1565C0">STABLE_LOW</text>
  <text x="120" y="178" text-anchor="middle" font-size="10" fill="#555">o_clean = 0</text>
  <text x="120" y="194" text-anchor="middle" font-size="9" fill="#888" font-style="italic">r_count = 0</text>

  <!-- Self-loop on STABLE_LOW -->
  <path d="M 70,140 Q 30,100 65,135" fill="none" stroke="#999" stroke-width="1.2" stroke-dasharray="3,2" marker-end="url(#arr)"/>
  <text x="20" y="105" font-size="9" fill="#888">i_noisy=0</text>

  <!-- STABLE_LOW → COUNTING_RISE -->
  <path d="M 188,160 Q 290,110 388,160" fill="none" stroke="#333" stroke-width="2" marker-end="url(#arr)"/>
  <text x="288" y="118" text-anchor="middle" font-size="9" fill="#333" font-weight="600">i_noisy = 1</text>
  <text x="288" y="132" text-anchor="middle" font-size="8" fill="#888" font-style="italic">(input differs from output)</text>

  <!-- ===== COUNTING_RISE state ===== -->
  <circle cx="450" cy="170" r="72" fill="#FFF8E1" stroke="#F9A825" stroke-width="2.5"/>
  <text x="450" y="156" text-anchor="middle" font-size="12" font-weight="700" fill="#F9A825">COUNTING_RISE</text>
  <text x="450" y="174" text-anchor="middle" font-size="10" fill="#555">o_clean = 0</text>
  <text x="450" y="190" text-anchor="middle" font-size="9" fill="#888" font-style="italic">r_count++ each cycle</text>

  <!-- Self-loop on COUNTING_RISE (still high, keep counting) -->
  <path d="M 510,135 Q 555,95 525,135" fill="none" stroke="#999" stroke-width="1.2" stroke-dasharray="3,2" marker-end="url(#arr)"/>
  <text x="525" y="92" font-size="9" fill="#888">i_noisy=1 &amp; count&lt;MAX</text>

  <!-- COUNTING_RISE → STABLE_LOW (bounce back) -->
  <path d="M 380,200 Q 290,250 188,200" fill="none" stroke="#C62828" stroke-width="1.8" stroke-dasharray="6,3" marker-end="url(#arr-r)"/>
  <text x="288" y="252" text-anchor="middle" font-size="9" fill="#C62828" font-weight="600">i_noisy = 0  (bounce!)</text>
  <text x="288" y="265" text-anchor="middle" font-size="8" fill="#C62828" font-style="italic">r_count ← 0</text>

  <!-- COUNTING_RISE → STABLE_HIGH (accept) -->
  <path d="M 522,170 Q 600,170 658,170" fill="none" stroke="#2E7D32" stroke-width="2.2" marker-end="url(#arr-g)"/>
  <text x="595" y="161" text-anchor="middle" font-size="9" fill="#2E7D32" font-weight="700">count == MAX</text>
  <text x="595" y="174" text-anchor="middle" font-size="8" fill="#2E7D32" font-style="italic">accept!</text>

  <!-- ===== STABLE_HIGH state ===== -->
  <circle cx="690" cy="170" r="60" fill="#E8F5E9" stroke="#2E7D32" stroke-width="2.5"/>
  <text x="690" y="158" text-anchor="middle" font-size="13" font-weight="700" fill="#2E7D32">STABLE_HIGH</text>
  <text x="690" y="178" text-anchor="middle" font-size="10" fill="#555">o_clean = 1</text>
  <text x="690" y="194" text-anchor="middle" font-size="9" fill="#888" font-style="italic">r_count = 0</text>

  <!-- Self-loop on STABLE_HIGH -->
  <path d="M 740,140 Q 770,100 745,135" fill="none" stroke="#999" stroke-width="1.2" stroke-dasharray="3,2" marker-end="url(#arr)"/>
  <text x="744" y="105" font-size="9" fill="#888">i_noisy=1</text>

  <!-- STABLE_HIGH → COUNTING_FALL (downward) -->
  <path d="M 690,230 Q 690,290 522,310" fill="none" stroke="#333" stroke-width="2" marker-end="url(#arr)"/>
  <text x="685" y="282" text-anchor="end" font-size="9" fill="#333" font-weight="600">i_noisy = 0</text>

  <!-- ===== COUNTING_FALL state ===== -->
  <circle cx="450" cy="320" r="72" fill="#FFF8E1" stroke="#F9A825" stroke-width="2.5"/>
  <text x="450" y="306" text-anchor="middle" font-size="12" font-weight="700" fill="#F9A825">COUNTING_FALL</text>
  <text x="450" y="324" text-anchor="middle" font-size="10" fill="#555">o_clean = 1</text>
  <text x="450" y="340" text-anchor="middle" font-size="9" fill="#888" font-style="italic">r_count++ each cycle</text>

  <!-- Self-loop on COUNTING_FALL -->
  <path d="M 510,355 Q 555,395 525,355" fill="none" stroke="#999" stroke-width="1.2" stroke-dasharray="3,2" marker-end="url(#arr)"/>
  <text x="525" y="403" font-size="9" fill="#888">i_noisy=0 &amp; count&lt;MAX</text>

  <!-- COUNTING_FALL → STABLE_HIGH (bounce back) -->
  <path d="M 522,290 Q 605,260 660,225" fill="none" stroke="#C62828" stroke-width="1.8" stroke-dasharray="6,3" marker-end="url(#arr-r)"/>
  <text x="610" y="248" text-anchor="middle" font-size="9" fill="#C62828" font-weight="600">i_noisy = 1  (bounce!)</text>

  <!-- COUNTING_FALL → STABLE_LOW (accept) -->
  <path d="M 378,320 Q 250,320 158,228" fill="none" stroke="#2E7D32" stroke-width="2.2" marker-end="url(#arr-g)"/>
  <text x="240" y="335" text-anchor="middle" font-size="9" fill="#2E7D32" font-weight="700">count == MAX → accept!</text>

  <!-- Legend -->
  <rect x="40" y="365" width="370" height="40" rx="4" fill="#F5F5F5" stroke="#DDD" stroke-width="1"/>
  <text x="55" y="380" font-size="10" font-weight="700" fill="#333">Legend</text>
  <line x1="120" y1="377" x2="155" y2="377" stroke="#333" stroke-width="2" marker-end="url(#arr)"/>
  <text x="160" y="380" font-size="9" fill="#555">edge / input change</text>
  <line x1="120" y1="392" x2="155" y2="392" stroke="#C62828" stroke-width="1.8" stroke-dasharray="6,3"/>
  <text x="160" y="395" font-size="9" fill="#555">bounce → reset counter</text>
  <line x1="290" y1="377" x2="325" y2="377" stroke="#2E7D32" stroke-width="2.2"/>
  <text x="330" y="380" font-size="9" fill="#555">accept new value</text>
  <line x1="290" y1="392" x2="325" y2="392" stroke="#999" stroke-width="1.2" stroke-dasharray="3,2"/>
  <text x="330" y="395" font-size="9" fill="#555">stay in state</text>
</svg>
