<?xml version="1.0" encoding="UTF-8"?>
<svg xmlns="http://www.w3.org/2000/svg" viewBox="0 0 760 470" font-family="Inter, sans-serif">
  <defs>
    <marker id="arr" markerWidth="8" markerHeight="6" refX="8" refY="3" orient="auto">
      <path d="M0,0 L8,3 L0,6 Z" fill="#333"/>
    </marker>
    <marker id="arrTick" markerWidth="6" markerHeight="6" refX="3" refY="3" orient="auto">
      <path d="M0,0 L6,3 L0,6 Z" fill="#666"/>
    </marker>
  </defs>

  <text x="380" y="22" text-anchor="middle" font-size="15" font-weight="700" fill="#333">PWM with a Loadable Period Register</text>
  <text x="380" y="40" text-anchor="middle" font-size="10" fill="#777" font-style="italic">Loadable counter sets PWM period; a duty-cycle compare sets the high-time</text>

  <!-- Period register -->
  <rect x="40" y="80" width="130" height="50" rx="6" fill="#FFF9C4" stroke="#D4A843" stroke-width="2"/>
  <text x="105" y="100" text-anchor="middle" font-size="11" font-weight="700" fill="#7B5E00">Period Register</text>
  <text x="105" y="118" text-anchor="middle" font-size="10" fill="#C2185B">i_load_val (= N-1)</text>

  <!-- Loadable counter -->
  <rect x="220" y="160" width="160" height="70" rx="6" fill="#E3F2FD" stroke="#1565C0" stroke-width="2"/>
  <text x="300" y="182" text-anchor="middle" font-size="12" font-weight="700" fill="#1565C0">Loadable Counter</text>
  <text x="300" y="200" text-anchor="middle" font-size="10" fill="#333">priority: reset &gt; load &gt; +1</text>
  <text x="300" y="216" text-anchor="middle" font-size="10" fill="#2E7D32">o_count → 0..N-1</text>

  <!-- Period reg -> counter load value -->
  <line x1="170" y1="105" x2="200" y2="105" stroke="#333" stroke-width="1.5"/>
  <line x1="200" y1="105" x2="200" y2="175" stroke="#333" stroke-width="1.5"/>
  <line x1="200" y1="175" x2="220" y2="175" stroke="#333" stroke-width="1.5" marker-end="url(#arr)"/>
  <text x="178" y="160" font-size="9" fill="#666">load_val</text>

  <!-- Duty register -->
  <rect x="430" y="80" width="130" height="50" rx="6" fill="#FFF9C4" stroke="#D4A843" stroke-width="2"/>
  <text x="495" y="100" text-anchor="middle" font-size="11" font-weight="700" fill="#7B5E00">Duty Register</text>
  <text x="495" y="118" text-anchor="middle" font-size="10" fill="#F57C00">i_duty (≤ N-1)</text>

  <!-- Compare -->
  <rect x="430" y="170" width="130" height="50" rx="6" fill="#FFF3E0" stroke="#E65100" stroke-width="2"/>
  <text x="495" y="190" text-anchor="middle" font-size="11" font-weight="700" fill="#E65100">Compare</text>
  <text x="495" y="208" text-anchor="middle" font-size="10" fill="#2E7D32">o_count &lt; duty ?</text>

  <!-- Wiring -->
  <line x1="380" y1="195" x2="430" y2="195" stroke="#333" stroke-width="1.5" marker-end="url(#arr)"/>
  <line x1="495" y1="130" x2="495" y2="170" stroke="#333" stroke-width="1.5" marker-end="url(#arr)"/>

  <!-- PWM out -->
  <line x1="560" y1="195" x2="640" y2="195" stroke="#27AE60" stroke-width="2" marker-end="url(#arr)"/>
  <text x="660" y="198" font-size="11" font-weight="700" fill="#2E7D32">o_pwm</text>

  <!-- Divider -->
  <line x1="40" y1="250" x2="720" y2="250" stroke="#DDD" stroke-width="1" stroke-dasharray="3,3"/>
  <text x="380" y="270" text-anchor="middle" font-size="11" font-weight="700" fill="#333">Same duty ratio (50%), two different period values N</text>

  <!-- =========================================================== -->
  <!-- Waveform A: N = 8, duty = 4  (two full periods in 16 cycles) -->
  <!-- =========================================================== -->
  <!-- x grid: cycle 0 at x=120, cycle width = 25px, 16 cycles → x=520 -->
  <text x="55" y="312" font-size="10" font-weight="700" fill="#2E7D32">o_pwm</text>
  <text x="55" y="326" font-size="9" fill="#666">N = 8</text>
  <text x="55" y="338" font-size="9" fill="#666">duty = 4</text>

  <!-- baseline / 0 reference -->
  <line x1="120" y1="335" x2="520" y2="335" stroke="#CCC" stroke-width="0.8"/>

  <!-- waveform polyline: HIGH=305, LOW=335; transitions every 4 cycles -->
  <polyline points="120,305 220,305 220,335 320,335 320,305 420,305 420,335 520,335"
            fill="none" stroke="#27AE60" stroke-width="2.2"/>

  <!-- period bracket for first period of A -->
  <line x1="120" y1="290" x2="320" y2="290" stroke="#666" stroke-width="1" marker-start="url(#arrTick)" marker-end="url(#arrTick)"/>
  <text x="220" y="285" text-anchor="middle" font-size="9" fill="#666">period = 8 cycles</text>

  <!-- cycle tick labels -->
  <text x="120" y="352" text-anchor="middle" font-size="8" fill="#999">0</text>
  <text x="220" y="352" text-anchor="middle" font-size="8" fill="#999">4</text>
  <text x="320" y="352" text-anchor="middle" font-size="8" fill="#999">8</text>
  <text x="420" y="352" text-anchor="middle" font-size="8" fill="#999">12</text>
  <text x="520" y="352" text-anchor="middle" font-size="8" fill="#999">16</text>

  <!-- =========================================================== -->
  <!-- Waveform B: N = 16, duty = 8  (one full period in 16 cycles) -->
  <!-- =========================================================== -->
  <text x="55" y="392" font-size="10" font-weight="700" fill="#2E7D32">o_pwm</text>
  <text x="55" y="406" font-size="9" fill="#666">N = 16</text>
  <text x="55" y="418" font-size="9" fill="#666">duty = 8</text>

  <!-- baseline -->
  <line x1="120" y1="415" x2="520" y2="415" stroke="#CCC" stroke-width="0.8"/>

  <!-- waveform: HIGH=385, LOW=415; one transition at cycle 8 (x=320) -->
  <polyline points="120,385 320,385 320,415 520,415"
            fill="none" stroke="#1565C0" stroke-width="2.2"/>

  <!-- period bracket for B -->
  <line x1="120" y1="370" x2="520" y2="370" stroke="#666" stroke-width="1" marker-start="url(#arrTick)" marker-end="url(#arrTick)"/>
  <text x="320" y="365" text-anchor="middle" font-size="9" fill="#666">period = 16 cycles</text>

  <!-- cycle tick labels -->
  <text x="120" y="432" text-anchor="middle" font-size="8" fill="#999">0</text>
  <text x="220" y="432" text-anchor="middle" font-size="8" fill="#999">4</text>
  <text x="320" y="432" text-anchor="middle" font-size="8" fill="#999">8</text>
  <text x="420" y="432" text-anchor="middle" font-size="8" fill="#999">12</text>
  <text x="520" y="432" text-anchor="middle" font-size="8" fill="#999">16</text>

  <!-- summary note -->
  <text x="380" y="458" text-anchor="middle" font-size="9" fill="#777" font-style="italic">Double N → half the frequency; duty register held proportional, so brightness/average stays the same.</text>
</svg>
