<?xml version="1.0" encoding="UTF-8"?>
<svg xmlns="http://www.w3.org/2000/svg" viewBox="0 0 760 320" font-family="Inter, sans-serif">
  <defs>
    <marker id="arr" markerWidth="8" markerHeight="6" refX="8" refY="3" orient="auto">
      <path d="M0,0 L8,3 L0,6 Z" fill="#333"/>
    </marker>
  </defs>

  <text x="380" y="22" text-anchor="middle" font-size="15" font-weight="700" fill="#333">Modulo-N Counter — Behavior Overview</text>
  <text x="380" y="40" text-anchor="middle" font-size="10" fill="#777" font-style="italic">Counts 0, 1, 2, ..., N-1, then wraps. Generates a 1-cycle pulse at rollover.</text>

  <!-- Sawtooth waveform of count -->
  <line x1="60" y1="220" x2="700" y2="220" stroke="#333" stroke-width="1.5" marker-end="url(#arr)"/>
  <text x="710" y="223" font-size="10" fill="#333">t</text>
  <line x1="70" y1="240" x2="70" y2="80" stroke="#333" stroke-width="1.5" marker-end="url(#arr)"/>
  <text x="40" y="80" font-size="10" fill="#7B1FA2">count</text>

  <!-- Sawtooth segments -->
  <line x1="70" y1="220" x2="190" y2="100" stroke="#1565C0" stroke-width="2"/>
  <line x1="190" y1="100" x2="190" y2="220" stroke="#1565C0" stroke-width="1" stroke-dasharray="3,2"/>
  <line x1="190" y1="220" x2="310" y2="100" stroke="#1565C0" stroke-width="2"/>
  <line x1="310" y1="100" x2="310" y2="220" stroke="#1565C0" stroke-width="1" stroke-dasharray="3,2"/>
  <line x1="310" y1="220" x2="430" y2="100" stroke="#1565C0" stroke-width="2"/>
  <line x1="430" y1="100" x2="430" y2="220" stroke="#1565C0" stroke-width="1" stroke-dasharray="3,2"/>
  <line x1="430" y1="220" x2="550" y2="100" stroke="#1565C0" stroke-width="2"/>
  <line x1="550" y1="100" x2="550" y2="220" stroke="#1565C0" stroke-width="1" stroke-dasharray="3,2"/>
  <line x1="550" y1="220" x2="670" y2="100" stroke="#1565C0" stroke-width="2"/>

  <!-- N-1 label -->
  <line x1="60" y1="100" x2="70" y2="100" stroke="#333" stroke-width="1"/>
  <text x="55" y="104" text-anchor="end" font-size="11" fill="#333" font-weight="600">N-1</text>
  <line x1="60" y1="220" x2="70" y2="220" stroke="#333" stroke-width="1"/>
  <text x="55" y="224" text-anchor="end" font-size="11" fill="#333">0</text>

  <!-- Wrap pulses -->
  <text x="40" y="265" font-size="10" fill="#2E7D32" font-weight="600">o_wrap</text>
  <line x1="70" y1="280" x2="190" y2="280" stroke="#E65100" stroke-width="2"/>
  <line x1="190" y1="280" x2="190" y2="260" stroke="#E65100" stroke-width="2"/>
  <line x1="190" y1="260" x2="195" y2="260" stroke="#E65100" stroke-width="2"/>
  <line x1="195" y1="260" x2="195" y2="280" stroke="#E65100" stroke-width="2"/>
  <line x1="195" y1="280" x2="310" y2="280" stroke="#E65100" stroke-width="2"/>
  <line x1="310" y1="280" x2="310" y2="260" stroke="#E65100" stroke-width="2"/>
  <line x1="310" y1="260" x2="315" y2="260" stroke="#E65100" stroke-width="2"/>
  <line x1="315" y1="260" x2="315" y2="280" stroke="#E65100" stroke-width="2"/>
  <line x1="315" y1="280" x2="430" y2="280" stroke="#E65100" stroke-width="2"/>
  <line x1="430" y1="280" x2="430" y2="260" stroke="#E65100" stroke-width="2"/>
  <line x1="430" y1="260" x2="435" y2="260" stroke="#E65100" stroke-width="2"/>
  <line x1="435" y1="260" x2="435" y2="280" stroke="#E65100" stroke-width="2"/>
  <line x1="435" y1="280" x2="550" y2="280" stroke="#E65100" stroke-width="2"/>
  <line x1="550" y1="280" x2="550" y2="260" stroke="#E65100" stroke-width="2"/>
  <line x1="550" y1="260" x2="555" y2="260" stroke="#E65100" stroke-width="2"/>
  <line x1="555" y1="260" x2="555" y2="280" stroke="#E65100" stroke-width="2"/>
  <line x1="555" y1="280" x2="690" y2="280" stroke="#E65100" stroke-width="2"/>

  <text x="170" y="305" font-size="9" fill="#E65100">1-cycle pulse @ N-1 → 0 rollover</text>
</svg>
