<?xml version="1.0" encoding="UTF-8"?>
<svg xmlns="http://www.w3.org/2000/svg" viewBox="0 0 800 350" font-family="Inter, sans-serif">
  <defs>
    <marker id="arr" markerWidth="8" markerHeight="6" refX="8" refY="3" orient="auto">
      <path d="M0,0 L8,3 L0,6 Z" fill="#333"/>
    </marker>
    <marker id="arrTeal" markerWidth="8" markerHeight="6" refX="8" refY="3" orient="auto">
      <path d="M0,0 L8,3 L0,6 Z" fill="#F57C00"/>
    </marker>
    <marker id="arrBlue" markerWidth="8" markerHeight="6" refX="8" refY="3" orient="auto">
      <path d="M0,0 L8,3 L0,6 Z" fill="#1976D2"/>
    </marker>
    <marker id="arrRed" markerWidth="8" markerHeight="6" refX="8" refY="3" orient="auto">
      <path d="M0,0 L8,3 L0,6 Z" fill="#D32F2F"/>
    </marker>
    <marker id="arrGreen" markerWidth="8" markerHeight="6" refX="8" refY="3" orient="auto">
      <path d="M0,0 L8,3 L0,6 Z" fill="#2E7D32"/>
    </marker>
    <marker id="arrOrange" markerWidth="8" markerHeight="6" refX="8" refY="3" orient="auto">
      <path d="M0,0 L8,3 L0,6 Z" fill="#7B1FA2"/>
    </marker>
    <marker id="arrMag" markerWidth="8" markerHeight="6" refX="8" refY="3" orient="auto">
      <path d="M0,0 L8,3 L0,6 Z" fill="#C2185B"/>
    </marker>
  </defs>

  <text x="400" y="22" text-anchor="middle" font-size="15" font-weight="700" fill="#333">Counter-Based Debouncer — RTL Block Diagram</text>
  <text x="400" y="40" text-anchor="middle" font-size="10" fill="#777" font-style="italic">Counter measures how long i_noisy has differed from o_clean. Accept only after CLKS_STABLE.</text>

  <!-- Noisy input (teal) -->
  <text x="55" y="123" text-anchor="end" font-size="11" fill="#F57C00" font-weight="700">i_noisy</text>
  <line x1="60" y1="120" x2="170" y2="120" stroke="#F57C00" stroke-width="1.8" marker-end="url(#arrTeal)"/>
  <circle cx="155" cy="120" r="3" fill="#F57C00"/>

  <!-- ≠ Compare (magenta) -->
  <rect x="170" y="95" width="100" height="50" rx="6" fill="#FCE4EC" stroke="#C2185B" stroke-width="2"/>
  <text x="220" y="115" text-anchor="middle" font-size="11" font-weight="700" fill="#C2185B">≠ Compare</text>
  <text x="220" y="132" text-anchor="middle" font-size="10" fill="#F57C00">i_noisy ≠ o_clean</text>

  <!-- o_clean feedback to compare (green dashed feedback) -->
  <line x1="640" y1="245" x2="640" y2="305" stroke="#2E7D32" stroke-width="1.3" stroke-dasharray="3,3"/>
  <line x1="640" y1="305" x2="220" y2="305" stroke="#2E7D32" stroke-width="1.3" stroke-dasharray="3,3"/>
  <line x1="220" y1="305" x2="220" y2="145" stroke="#2E7D32" stroke-width="1.3" stroke-dasharray="3,3" marker-end="url(#arrGreen)"/>
  <text x="380" y="320" font-size="9" fill="#2E7D32" font-style="italic">feedback: o_clean</text>

  <!-- Counter (orange = state) -->
  <rect x="310" y="170" width="160" height="80" rx="6" fill="#F3E5F5" stroke="#7B1FA2" stroke-width="2"/>
  <text x="390" y="195" text-anchor="middle" font-size="12" font-weight="700" fill="#7B1FA2">r_count</text>
  <text x="390" y="213" text-anchor="middle" font-size="10" fill="#333">$clog2(CLKS_STABLE) bits</text>
  <text x="390" y="230" text-anchor="middle" font-size="10" fill="#333">enable: differ</text>
  <text x="390" y="245" text-anchor="middle" font-size="10" fill="#333">sync_reset: same</text>

  <!-- Compare ≠ out splits to counter enable -->
  <line x1="270" y1="120" x2="295" y2="120" stroke="#C2185B" stroke-width="1.5"/>
  <line x1="295" y1="120" x2="295" y2="195" stroke="#C2185B" stroke-width="1.5"/>
  <line x1="295" y1="195" x2="310" y2="195" stroke="#C2185B" stroke-width="1.5" marker-end="url(#arrMag)"/>
  <text x="278" y="180" font-size="9" fill="#C2185B">en</text>

  <!-- Terminal count comparator (magenta) -->
  <rect x="510" y="170" width="130" height="50" rx="6" fill="#FCE4EC" stroke="#C2185B" stroke-width="2"/>
  <text x="575" y="190" text-anchor="middle" font-size="11" font-weight="700" fill="#C2185B">== Compare</text>
  <text x="575" y="208" text-anchor="middle" font-size="10" fill="#333">count == MAX</text>
  <line x1="470" y1="195" x2="510" y2="195" stroke="#7B1FA2" stroke-width="1.5" marker-end="url(#arrOrange)"/>

  <!-- o_clean register (orange = state, but boldly labeled green for the output) -->
  <rect x="510" y="100" width="130" height="50" rx="6" fill="#F3E5F5" stroke="#7B1FA2" stroke-width="2"/>
  <text x="575" y="120" text-anchor="middle" font-size="11" font-weight="700" fill="#2E7D32">o_clean Register</text>
  <text x="575" y="138" text-anchor="middle" font-size="10" fill="#333">load i_noisy on accept</text>

  <!-- terminal count → o_clean register enable -->
  <line x1="575" y1="170" x2="575" y2="150" stroke="#C2185B" stroke-width="1.5" marker-end="url(#arrMag)"/>
  <text x="585" y="165" font-size="9" fill="#C2185B">accept</text>

  <!-- i_noisy bypass into o_clean register D -->
  <line x1="155" y1="120" x2="155" y2="60" stroke="#F57C00" stroke-width="1.4"/>
  <line x1="155" y1="60" x2="575" y2="60" stroke="#F57C00" stroke-width="1.4"/>
  <line x1="575" y1="60" x2="575" y2="100" stroke="#F57C00" stroke-width="1.4" marker-end="url(#arrTeal)"/>
  <text x="335" y="55" font-size="9" fill="#F57C00" font-style="italic">i_noisy → D on accept cycle</text>

  <!-- Output (green) -->
  <line x1="640" y1="125" x2="730" y2="125" stroke="#2E7D32" stroke-width="2" marker-end="url(#arrGreen)"/>
  <text x="740" y="128" font-size="11" font-weight="700" fill="#2E7D32">o_clean</text>

  <!-- Clock (blue) -->
  <text x="55" y="278" text-anchor="end" font-size="11" fill="#1976D2" font-weight="700">i_clk</text>
  <line x1="60" y1="275" x2="700" y2="275" stroke="#1976D2" stroke-width="1.4"/>
  <line x1="390" y1="275" x2="390" y2="250" stroke="#1976D2" stroke-width="1.4" marker-end="url(#arrBlue)"/>
  <line x1="575" y1="275" x2="575" y2="150" stroke="#1976D2" stroke-width="1.4" stroke-dasharray="2,2"/>

  <!-- Reset (red) -->
  <text x="55" y="343" text-anchor="end" font-size="11" fill="#D32F2F" font-weight="700">i_reset</text>
  <line x1="60" y1="340" x2="700" y2="340" stroke="#D32F2F" stroke-width="1.4"/>
  <line x1="390" y1="340" x2="390" y2="250" stroke="#D32F2F" stroke-width="0.8" stroke-dasharray="2,2"/>
</svg>
