<?xml version="1.0" encoding="UTF-8"?>
<svg xmlns="http://www.w3.org/2000/svg" viewBox="0 0 800 280" font-family="Inter, sans-serif">
  <defs>
    <marker id="arr" markerWidth="8" markerHeight="6" refX="8" refY="3" orient="auto">
      <path d="M0,0 L8,3 L0,6 Z" fill="#333"/>
    </marker>
  </defs>

  <text x="400" y="22" text-anchor="middle" font-size="15" font-weight="700" fill="#333">SIPO Shift Register — RTL Block Diagram</text>
  <text x="400" y="40" text-anchor="middle" font-size="10" fill="#777" font-style="italic">Chain of D flip-flops: each Q feeds the next D. 1 bit per clock enters at bit 0.</text>

  <!-- Serial in -->
  <text x="35" y="123" text-anchor="end" font-size="11" fill="#333" font-weight="600">i_serial_in</text>
  <line x1="40" y1="120" x2="100" y2="120" stroke="#333" stroke-width="1.5" marker-end="url(#arr)"/>

  <!-- 8 flip-flops -->
  <g id="ff0">
    <rect x="100" y="95" width="60" height="55" rx="4" fill="#E3F2FD" stroke="#1565C0" stroke-width="1.8"/>
    <text x="130" y="115" text-anchor="middle" font-size="10" font-weight="700" fill="#1565C0">FF[0]</text>
    <text x="108" y="135" font-size="9" fill="#555">D</text>
    <text x="148" y="135" font-size="9" fill="#555">Q</text>
  </g>
  <line x1="160" y1="120" x2="180" y2="120" stroke="#333" stroke-width="1.5" marker-end="url(#arr)"/>

  <g id="ff1">
    <rect x="180" y="95" width="60" height="55" rx="4" fill="#E3F2FD" stroke="#1565C0" stroke-width="1.8"/>
    <text x="210" y="115" text-anchor="middle" font-size="10" font-weight="700" fill="#1565C0">FF[1]</text>
    <text x="188" y="135" font-size="9" fill="#555">D</text>
    <text x="228" y="135" font-size="9" fill="#555">Q</text>
  </g>
  <line x1="240" y1="120" x2="260" y2="120" stroke="#333" stroke-width="1.5" marker-end="url(#arr)"/>

  <g id="ff2">
    <rect x="260" y="95" width="60" height="55" rx="4" fill="#E3F2FD" stroke="#1565C0" stroke-width="1.8"/>
    <text x="290" y="115" text-anchor="middle" font-size="10" font-weight="700" fill="#1565C0">FF[2]</text>
    <text x="268" y="135" font-size="9" fill="#555">D</text>
    <text x="308" y="135" font-size="9" fill="#555">Q</text>
  </g>
  <line x1="320" y1="120" x2="340" y2="120" stroke="#333" stroke-width="1.5"/>

  <text x="360" y="124" text-anchor="middle" font-size="14" font-weight="700" fill="#888">···</text>

  <line x1="380" y1="120" x2="400" y2="120" stroke="#333" stroke-width="1.5" marker-end="url(#arr)"/>

  <g id="ff7">
    <rect x="400" y="95" width="60" height="55" rx="4" fill="#E3F2FD" stroke="#1565C0" stroke-width="1.8"/>
    <text x="430" y="115" text-anchor="middle" font-size="10" font-weight="700" fill="#1565C0">FF[N-1]</text>
    <text x="408" y="135" font-size="9" fill="#555">D</text>
    <text x="448" y="135" font-size="9" fill="#555">Q</text>
  </g>

  <!-- Q output of last to "no more chain" -->
  <line x1="460" y1="120" x2="500" y2="120" stroke="#999" stroke-width="1.2" stroke-dasharray="3,2"/>
  <text x="510" y="123" font-size="9" fill="#999" font-style="italic">(drops off MSB)</text>

  <!-- Parallel out taps -->
  <line x1="130" y1="150" x2="130" y2="200" stroke="#27AE60" stroke-width="1.5" marker-end="url(#arr)"/>
  <text x="130" y="215" text-anchor="middle" font-size="9" fill="#27AE60" font-weight="600">par[0]</text>
  <line x1="210" y1="150" x2="210" y2="200" stroke="#27AE60" stroke-width="1.5" marker-end="url(#arr)"/>
  <text x="210" y="215" text-anchor="middle" font-size="9" fill="#27AE60" font-weight="600">par[1]</text>
  <line x1="290" y1="150" x2="290" y2="200" stroke="#27AE60" stroke-width="1.5" marker-end="url(#arr)"/>
  <text x="290" y="215" text-anchor="middle" font-size="9" fill="#27AE60" font-weight="600">par[2]</text>
  <line x1="430" y1="150" x2="430" y2="200" stroke="#27AE60" stroke-width="1.5" marker-end="url(#arr)"/>
  <text x="430" y="215" text-anchor="middle" font-size="9" fill="#27AE60" font-weight="600">par[N-1]</text>

  <text x="280" y="240" text-anchor="middle" font-size="11" fill="#27AE60" font-weight="700">o_parallel_out [N-1:0]</text>

  <!-- Clock -->
  <text x="35" y="73" text-anchor="end" font-size="11" fill="#333" font-weight="600">i_clk</text>
  <line x1="40" y1="70" x2="460" y2="70" stroke="#1565C0" stroke-width="1.2"/>
  <line x1="130" y1="70" x2="130" y2="95" stroke="#1565C0" stroke-width="1.2" marker-end="url(#arr)"/>
  <line x1="210" y1="70" x2="210" y2="95" stroke="#1565C0" stroke-width="1.2" marker-end="url(#arr)"/>
  <line x1="290" y1="70" x2="290" y2="95" stroke="#1565C0" stroke-width="1.2" marker-end="url(#arr)"/>
  <line x1="430" y1="70" x2="430" y2="95" stroke="#1565C0" stroke-width="1.2" marker-end="url(#arr)"/>

  <text x="650" y="120" font-size="10" fill="#777" font-style="italic">Zero LUTs —</text>
  <text x="650" y="135" font-size="10" fill="#777" font-style="italic">pure wire routing</text>
  <text x="650" y="150" font-size="10" fill="#777" font-style="italic">between flops</text>
</svg>
