<svg xmlns="http://www.w3.org/2000/svg" viewBox="0 0 700 420" font-family="Inter, Arial, sans-serif">
  <defs>
    <marker id="ah" markerWidth="10" markerHeight="7" refX="10" refY="3.5" orient="auto">
      <polygon points="0 0, 10 3.5, 0 7" fill="#333"/>
    </marker>
  </defs>
  <rect width="700" height="420" rx="12" fill="#FAFAFA" stroke="#DDD"/>
  <text x="350" y="32" text-anchor="middle" font-size="16" font-weight="700" fill="#333">wire vs. reg Decision Flowchart</text>
  <!-- Start -->
  <rect x="245" y="50" width="210" height="40" rx="20" fill="#FFC904" stroke="#333" stroke-width="1.5"/>
  <text x="350" y="76" text-anchor="middle" font-size="13" font-weight="600">Signal needs a value?</text>
  <line x1="350" y1="90" x2="350" y2="120" stroke="#333" stroke-width="1.5" marker-end="url(#ah)"/>
  <!-- Driven by assign? -->
  <rect x="220" y="120" width="260" height="44" rx="6" fill="#E3F2FD" stroke="#1565C0" stroke-width="1.5"/>
  <text x="350" y="138" text-anchor="middle" font-size="12" font-weight="600" fill="#1565C0">Driven by assign or</text>
  <text x="350" y="154" text-anchor="middle" font-size="12" font-weight="600" fill="#1565C0">module port connection?</text>
  <line x1="220" y1="142" x2="100" y2="142" stroke="#2E7D32" stroke-width="1.5" marker-end="url(#ah)"/>
  <text x="160" y="135" font-size="11" fill="#2E7D32" font-weight="600">YES</text>
  <rect x="20" y="122" width="80" height="40" rx="6" fill="#E8F5E9" stroke="#2E7D32" stroke-width="2"/>
  <text x="60" y="147" text-anchor="middle" font-size="14" font-weight="700" fill="#2E7D32">wire</text>
  <!-- Assigned in always? -->
  <line x1="350" y1="164" x2="350" y2="200" stroke="#333" stroke-width="1.5" marker-end="url(#ah)"/>
  <text x="358" y="188" font-size="11" fill="#C62828" font-weight="600">NO</text>
  <rect x="220" y="200" width="260" height="44" rx="6" fill="#F3E5F5" stroke="#9C27B0" stroke-width="1.5"/>
  <text x="350" y="218" text-anchor="middle" font-size="12" font-weight="600" fill="#9C27B0">Assigned inside</text>
  <text x="350" y="234" text-anchor="middle" font-size="12" font-weight="600" fill="#9C27B0">always block?</text>
  <line x1="220" y1="222" x2="100" y2="222" stroke="#2E7D32" stroke-width="1.5" marker-end="url(#ah)"/>
  <text x="160" y="215" font-size="11" fill="#2E7D32" font-weight="600">YES</text>
  <rect x="20" y="202" width="80" height="40" rx="6" fill="#F3E5F5" stroke="#9C27B0" stroke-width="2"/>
  <text x="60" y="227" text-anchor="middle" font-size="14" font-weight="700" fill="#9C27B0">reg</text>
  <!-- Sub-decision: posedge? -->
  <line x1="60" y1="242" x2="60" y2="280" stroke="#333" stroke-width="1.5" marker-end="url(#ah)"/>
  <rect x="130" y="275" width="240" height="44" rx="6" fill="#FFF8E1" stroke="#F9A825" stroke-width="1.5"/>
  <text x="250" y="293" text-anchor="middle" font-size="12" font-weight="600" fill="#333">always @(posedge clk)?</text>
  <text x="250" y="309" text-anchor="middle" font-size="11" fill="#666">(clock edge in sensitivity list)</text>
  <line x1="60" y1="297" x2="130" y2="297" stroke="#333" stroke-width="1"/>
  <!-- YES → FF -->
  <line x1="160" y1="319" x2="160" y2="355" stroke="#333" stroke-width="1.5" marker-end="url(#ah)"/>
  <text x="168" y="340" font-size="11" fill="#2E7D32" font-weight="600">YES</text>
  <rect x="100" y="355" width="120" height="44" rx="6" fill="#E3F2FD" stroke="#1565C0" stroke-width="2"/>
  <text x="160" y="373" text-anchor="middle" font-size="12" font-weight="700" fill="#1565C0">Flip-Flop</text>
  <text x="160" y="389" text-anchor="middle" font-size="10" fill="#666">(real register)</text>
  <!-- NO → comb -->
  <line x1="340" y1="319" x2="340" y2="355" stroke="#333" stroke-width="1.5" marker-end="url(#ah)"/>
  <text x="348" y="340" font-size="11" fill="#C62828" font-weight="600">NO (@*)</text>
  <rect x="270" y="355" width="140" height="44" rx="6" fill="#E8F5E9" stroke="#2E7D32" stroke-width="2"/>
  <text x="340" y="373" text-anchor="middle" font-size="12" font-weight="700" fill="#2E7D32">Combinational</text>
  <text x="340" y="389" text-anchor="middle" font-size="10" fill="#666">(no storage)</text>
  <text x="350" y="414" text-anchor="middle" font-size="10" fill="#999">reg does NOT always mean register — it depends on the sensitivity list</text>
</svg>