<svg xmlns="http://www.w3.org/2000/svg" viewBox="0 0 960 500" font-family="Inter, Segoe UI, Helvetica Neue, sans-serif">
  <defs>
    <filter id="lc-sh" x="-2%" y="-2%" width="104%" height="108%">
      <feDropShadow dx="0" dy="2" stdDeviation="3" flood-opacity="0.15"/>
    </filter>
    <marker id="lc-arw" viewBox="0 0 10 7" refX="10" refY="3.5" markerWidth="7" markerHeight="5" orient="auto-start-reverse">
      <path d="M 0 0 L 10 3.5 L 0 7 z" fill="#5F6062"/>
    </marker>
    <marker id="lc-carry" viewBox="0 0 10 7" refX="10" refY="3.5" markerWidth="7" markerHeight="5" orient="auto-start-reverse">
      <path d="M 0 0 L 10 3.5 L 0 7 z" fill="#A87C1F"/>
    </marker>
  </defs>

  <!-- =================== LEFT PANEL: FPGA FABRIC =================== -->
  <text x="225" y="28" text-anchor="middle" font-size="15" font-weight="700" fill="#2C2A29">iCE40 HX1K Fabric</text>
  <text x="225" y="46" text-anchor="middle" font-size="10" fill="#5F6062" font-style="italic">1280 logic cells &#183; each = 1 LUT4 + 1 CARRY + 1 FF</text>

  <!-- Chip outline -->
  <rect x="40" y="60" width="370" height="370" rx="10" fill="#FAFAFA" stroke="#2C2A29" stroke-width="2.5" filter="url(#lc-sh)"/>

  <!-- I/O blocks: top row -->
  <g fill="#FFE082" stroke="#C9A000" stroke-width="1">
    <rect x="60"  y="72" width="32" height="20" rx="2"/>
    <rect x="100" y="72" width="32" height="20" rx="2"/>
    <rect x="140" y="72" width="32" height="20" rx="2"/>
    <rect x="180" y="72" width="32" height="20" rx="2"/>
    <rect x="220" y="72" width="32" height="20" rx="2"/>
    <rect x="260" y="72" width="32" height="20" rx="2"/>
    <rect x="300" y="72" width="32" height="20" rx="2"/>
    <rect x="340" y="72" width="32" height="20" rx="2"/>
  </g>
  <!-- I/O blocks: bottom row -->
  <g fill="#FFE082" stroke="#C9A000" stroke-width="1">
    <rect x="60"  y="398" width="32" height="20" rx="2"/>
    <rect x="100" y="398" width="32" height="20" rx="2"/>
    <rect x="140" y="398" width="32" height="20" rx="2"/>
    <rect x="180" y="398" width="32" height="20" rx="2"/>
    <rect x="220" y="398" width="32" height="20" rx="2"/>
    <rect x="260" y="398" width="32" height="20" rx="2"/>
    <rect x="300" y="398" width="32" height="20" rx="2"/>
    <rect x="340" y="398" width="32" height="20" rx="2"/>
  </g>
  <!-- I/O blocks: left col -->
  <g fill="#FFE082" stroke="#C9A000" stroke-width="1">
    <rect x="48" y="110" width="20" height="28" rx="2"/>
    <rect x="48" y="148" width="20" height="28" rx="2"/>
    <rect x="48" y="186" width="20" height="28" rx="2"/>
    <rect x="48" y="224" width="20" height="28" rx="2"/>
    <rect x="48" y="262" width="20" height="28" rx="2"/>
    <rect x="48" y="300" width="20" height="28" rx="2"/>
    <rect x="48" y="338" width="20" height="28" rx="2"/>
    <rect x="48" y="376" width="20" height="28" rx="2"/>
  </g>
  <!-- I/O blocks: right col -->
  <g fill="#FFE082" stroke="#C9A000" stroke-width="1">
    <rect x="382" y="110" width="20" height="28" rx="2"/>
    <rect x="382" y="148" width="20" height="28" rx="2"/>
    <rect x="382" y="186" width="20" height="28" rx="2"/>
    <rect x="382" y="224" width="20" height="28" rx="2"/>
    <rect x="382" y="262" width="20" height="28" rx="2"/>
    <rect x="382" y="300" width="20" height="28" rx="2"/>
    <rect x="382" y="338" width="20" height="28" rx="2"/>
    <rect x="382" y="376" width="20" height="28" rx="2"/>
  </g>

  <!-- Routing channels -->
  <g stroke="#CFD8DC" stroke-width="1">
    <line x1="80"  y1="100" x2="370" y2="100"/>
    <line x1="80"  y1="135" x2="370" y2="135"/>
    <line x1="80"  y1="170" x2="370" y2="170"/>
    <line x1="80"  y1="205" x2="370" y2="205"/>
    <line x1="80"  y1="240" x2="370" y2="240"/>
    <line x1="80"  y1="275" x2="370" y2="275"/>
    <line x1="80"  y1="310" x2="370" y2="310"/>
    <line x1="80"  y1="345" x2="370" y2="345"/>
    <line x1="80"  y1="380" x2="370" y2="380"/>
    <line x1="80"  y1="100" x2="80"  y2="395"/>
    <line x1="115" y1="100" x2="115" y2="395"/>
    <line x1="150" y1="100" x2="150" y2="395"/>
    <line x1="185" y1="100" x2="185" y2="395"/>
    <line x1="220" y1="100" x2="220" y2="395"/>
    <line x1="255" y1="100" x2="255" y2="395"/>
    <line x1="290" y1="100" x2="290" y2="395"/>
    <line x1="325" y1="100" x2="325" y2="395"/>
    <line x1="360" y1="100" x2="360" y2="395"/>
  </g>

  <!-- Logic cells: each split into LUT half (blue) + CARRY half (gold) -->
  <!-- Reusable: rect 28x28 with split (top=18 LUT, bottom=10 CARRY) -->
  <!-- Row 1 -->
  <g>
    <g>
      <rect x="84"  y="104" width="28" height="18" fill="#BBDEFB" stroke="#1565C0" stroke-width="1"/>
      <rect x="84"  y="122" width="28" height="10" fill="#F4D27A" stroke="#A87C1F" stroke-width="1"/>
      <rect x="119" y="104" width="28" height="18" fill="#BBDEFB" stroke="#1565C0" stroke-width="1"/>
      <rect x="119" y="122" width="28" height="10" fill="#F4D27A" stroke="#A87C1F" stroke-width="1"/>
      <rect x="154" y="104" width="28" height="18" fill="#BBDEFB" stroke="#1565C0" stroke-width="1"/>
      <rect x="154" y="122" width="28" height="10" fill="#F4D27A" stroke="#A87C1F" stroke-width="1"/>
      <rect x="189" y="104" width="28" height="18" fill="#BBDEFB" stroke="#1565C0" stroke-width="1"/>
      <rect x="189" y="122" width="28" height="10" fill="#F4D27A" stroke="#A87C1F" stroke-width="1"/>
      <rect x="224" y="104" width="28" height="18" fill="#BBDEFB" stroke="#1565C0" stroke-width="1"/>
      <rect x="224" y="122" width="28" height="10" fill="#F4D27A" stroke="#A87C1F" stroke-width="1"/>
      <rect x="259" y="104" width="28" height="18" fill="#BBDEFB" stroke="#1565C0" stroke-width="1"/>
      <rect x="259" y="122" width="28" height="10" fill="#F4D27A" stroke="#A87C1F" stroke-width="1"/>
      <rect x="294" y="104" width="28" height="18" fill="#BBDEFB" stroke="#1565C0" stroke-width="1"/>
      <rect x="294" y="122" width="28" height="10" fill="#F4D27A" stroke="#A87C1F" stroke-width="1"/>
      <rect x="329" y="104" width="28" height="18" fill="#BBDEFB" stroke="#1565C0" stroke-width="1"/>
      <rect x="329" y="122" width="28" height="10" fill="#F4D27A" stroke="#A87C1F" stroke-width="1"/>
    </g>
    <!-- Row 2 (col 5 highlighted with green LUT — the "zoom" cell) -->
    <g>
      <rect x="84"  y="139" width="28" height="18" fill="#BBDEFB" stroke="#1565C0" stroke-width="1"/>
      <rect x="84"  y="157" width="28" height="10" fill="#F4D27A" stroke="#A87C1F" stroke-width="1"/>
      <rect x="119" y="139" width="28" height="18" fill="#BBDEFB" stroke="#1565C0" stroke-width="1"/>
      <rect x="119" y="157" width="28" height="10" fill="#F4D27A" stroke="#A87C1F" stroke-width="1"/>
      <rect x="154" y="139" width="28" height="18" fill="#BBDEFB" stroke="#1565C0" stroke-width="1"/>
      <rect x="154" y="157" width="28" height="10" fill="#F4D27A" stroke="#A87C1F" stroke-width="1"/>
      <rect x="189" y="139" width="28" height="18" fill="#BBDEFB" stroke="#1565C0" stroke-width="1"/>
      <rect x="189" y="157" width="28" height="10" fill="#F4D27A" stroke="#A87C1F" stroke-width="1"/>
      <rect x="224" y="139" width="28" height="18" fill="#C8E6C9" stroke="#2E7D32" stroke-width="1"/>
      <rect x="224" y="157" width="28" height="10" fill="#F4D27A" stroke="#A87C1F" stroke-width="1"/>
      <rect x="259" y="139" width="28" height="18" fill="#BBDEFB" stroke="#1565C0" stroke-width="1"/>
      <rect x="259" y="157" width="28" height="10" fill="#F4D27A" stroke="#A87C1F" stroke-width="1"/>
      <rect x="294" y="139" width="28" height="18" fill="#BBDEFB" stroke="#1565C0" stroke-width="1"/>
      <rect x="294" y="157" width="28" height="10" fill="#F4D27A" stroke="#A87C1F" stroke-width="1"/>
      <rect x="329" y="139" width="28" height="18" fill="#BBDEFB" stroke="#1565C0" stroke-width="1"/>
      <rect x="329" y="157" width="28" height="10" fill="#F4D27A" stroke="#A87C1F" stroke-width="1"/>
    </g>
    <!-- Row 3 (with EBR) -->
    <g>
      <rect x="84"  y="174" width="28" height="18" fill="#BBDEFB" stroke="#1565C0" stroke-width="1"/>
      <rect x="84"  y="192" width="28" height="10" fill="#F4D27A" stroke="#A87C1F" stroke-width="1"/>
      <rect x="119" y="174" width="28" height="18" fill="#BBDEFB" stroke="#1565C0" stroke-width="1"/>
      <rect x="119" y="192" width="28" height="10" fill="#F4D27A" stroke="#A87C1F" stroke-width="1"/>
      <rect x="154" y="174" width="28" height="18" fill="#BBDEFB" stroke="#1565C0" stroke-width="1"/>
      <rect x="154" y="192" width="28" height="10" fill="#F4D27A" stroke="#A87C1F" stroke-width="1"/>
      <rect x="189" y="174" width="63" height="28" rx="2" fill="#FFCCBC" stroke="#BF360C" stroke-width="1"/>
      <text x="220" y="192" text-anchor="middle" font-size="9" font-weight="700" fill="#BF360C">EBR</text>
      <rect x="259" y="174" width="28" height="18" fill="#BBDEFB" stroke="#1565C0" stroke-width="1"/>
      <rect x="259" y="192" width="28" height="10" fill="#F4D27A" stroke="#A87C1F" stroke-width="1"/>
      <rect x="294" y="174" width="28" height="18" fill="#BBDEFB" stroke="#1565C0" stroke-width="1"/>
      <rect x="294" y="192" width="28" height="10" fill="#F4D27A" stroke="#A87C1F" stroke-width="1"/>
      <rect x="329" y="174" width="28" height="18" fill="#BBDEFB" stroke="#1565C0" stroke-width="1"/>
      <rect x="329" y="192" width="28" height="10" fill="#F4D27A" stroke="#A87C1F" stroke-width="1"/>
    </g>
    <!-- Row 4 -->
    <g>
      <rect x="84"  y="209" width="28" height="18" fill="#BBDEFB" stroke="#1565C0" stroke-width="1"/>
      <rect x="84"  y="227" width="28" height="10" fill="#F4D27A" stroke="#A87C1F" stroke-width="1"/>
      <rect x="119" y="209" width="28" height="18" fill="#BBDEFB" stroke="#1565C0" stroke-width="1"/>
      <rect x="119" y="227" width="28" height="10" fill="#F4D27A" stroke="#A87C1F" stroke-width="1"/>
      <rect x="154" y="209" width="28" height="18" fill="#BBDEFB" stroke="#1565C0" stroke-width="1"/>
      <rect x="154" y="227" width="28" height="10" fill="#F4D27A" stroke="#A87C1F" stroke-width="1"/>
      <rect x="189" y="209" width="28" height="18" fill="#BBDEFB" stroke="#1565C0" stroke-width="1"/>
      <rect x="189" y="227" width="28" height="10" fill="#F4D27A" stroke="#A87C1F" stroke-width="1"/>
      <rect x="224" y="209" width="28" height="18" fill="#BBDEFB" stroke="#1565C0" stroke-width="1"/>
      <rect x="224" y="227" width="28" height="10" fill="#F4D27A" stroke="#A87C1F" stroke-width="1"/>
      <rect x="259" y="209" width="28" height="18" fill="#BBDEFB" stroke="#1565C0" stroke-width="1"/>
      <rect x="259" y="227" width="28" height="10" fill="#F4D27A" stroke="#A87C1F" stroke-width="1"/>
      <rect x="294" y="209" width="28" height="18" fill="#BBDEFB" stroke="#1565C0" stroke-width="1"/>
      <rect x="294" y="227" width="28" height="10" fill="#F4D27A" stroke="#A87C1F" stroke-width="1"/>
      <rect x="329" y="209" width="28" height="18" fill="#BBDEFB" stroke="#1565C0" stroke-width="1"/>
      <rect x="329" y="227" width="28" height="10" fill="#F4D27A" stroke="#A87C1F" stroke-width="1"/>
    </g>
    <!-- Row 5 -->
    <g>
      <rect x="84"  y="244" width="28" height="18" fill="#BBDEFB" stroke="#1565C0" stroke-width="1"/>
      <rect x="84"  y="262" width="28" height="10" fill="#F4D27A" stroke="#A87C1F" stroke-width="1"/>
      <rect x="119" y="244" width="28" height="18" fill="#BBDEFB" stroke="#1565C0" stroke-width="1"/>
      <rect x="119" y="262" width="28" height="10" fill="#F4D27A" stroke="#A87C1F" stroke-width="1"/>
      <rect x="154" y="244" width="28" height="18" fill="#BBDEFB" stroke="#1565C0" stroke-width="1"/>
      <rect x="154" y="262" width="28" height="10" fill="#F4D27A" stroke="#A87C1F" stroke-width="1"/>
      <rect x="189" y="244" width="28" height="18" fill="#BBDEFB" stroke="#1565C0" stroke-width="1"/>
      <rect x="189" y="262" width="28" height="10" fill="#F4D27A" stroke="#A87C1F" stroke-width="1"/>
      <rect x="224" y="244" width="28" height="18" fill="#BBDEFB" stroke="#1565C0" stroke-width="1"/>
      <rect x="224" y="262" width="28" height="10" fill="#F4D27A" stroke="#A87C1F" stroke-width="1"/>
      <rect x="259" y="244" width="28" height="18" fill="#BBDEFB" stroke="#1565C0" stroke-width="1"/>
      <rect x="259" y="262" width="28" height="10" fill="#F4D27A" stroke="#A87C1F" stroke-width="1"/>
      <rect x="294" y="244" width="28" height="18" fill="#BBDEFB" stroke="#1565C0" stroke-width="1"/>
      <rect x="294" y="262" width="28" height="10" fill="#F4D27A" stroke="#A87C1F" stroke-width="1"/>
      <rect x="329" y="244" width="28" height="18" fill="#BBDEFB" stroke="#1565C0" stroke-width="1"/>
      <rect x="329" y="262" width="28" height="10" fill="#F4D27A" stroke="#A87C1F" stroke-width="1"/>
    </g>
    <!-- Row 6 (with EBR) -->
    <g>
      <rect x="84"  y="279" width="28" height="18" fill="#BBDEFB" stroke="#1565C0" stroke-width="1"/>
      <rect x="84"  y="297" width="28" height="10" fill="#F4D27A" stroke="#A87C1F" stroke-width="1"/>
      <rect x="119" y="279" width="28" height="18" fill="#BBDEFB" stroke="#1565C0" stroke-width="1"/>
      <rect x="119" y="297" width="28" height="10" fill="#F4D27A" stroke="#A87C1F" stroke-width="1"/>
      <rect x="154" y="279" width="63" height="28" rx="2" fill="#FFCCBC" stroke="#BF360C" stroke-width="1"/>
      <text x="185" y="297" text-anchor="middle" font-size="9" font-weight="700" fill="#BF360C">EBR</text>
      <rect x="224" y="279" width="28" height="18" fill="#BBDEFB" stroke="#1565C0" stroke-width="1"/>
      <rect x="224" y="297" width="28" height="10" fill="#F4D27A" stroke="#A87C1F" stroke-width="1"/>
      <rect x="259" y="279" width="28" height="18" fill="#BBDEFB" stroke="#1565C0" stroke-width="1"/>
      <rect x="259" y="297" width="28" height="10" fill="#F4D27A" stroke="#A87C1F" stroke-width="1"/>
      <rect x="294" y="279" width="28" height="18" fill="#BBDEFB" stroke="#1565C0" stroke-width="1"/>
      <rect x="294" y="297" width="28" height="10" fill="#F4D27A" stroke="#A87C1F" stroke-width="1"/>
      <rect x="329" y="279" width="28" height="18" fill="#BBDEFB" stroke="#1565C0" stroke-width="1"/>
      <rect x="329" y="297" width="28" height="10" fill="#F4D27A" stroke="#A87C1F" stroke-width="1"/>
    </g>
    <!-- Row 7 -->
    <g>
      <rect x="84"  y="314" width="28" height="18" fill="#BBDEFB" stroke="#1565C0" stroke-width="1"/>
      <rect x="84"  y="332" width="28" height="10" fill="#F4D27A" stroke="#A87C1F" stroke-width="1"/>
      <rect x="119" y="314" width="28" height="18" fill="#BBDEFB" stroke="#1565C0" stroke-width="1"/>
      <rect x="119" y="332" width="28" height="10" fill="#F4D27A" stroke="#A87C1F" stroke-width="1"/>
      <rect x="154" y="314" width="28" height="18" fill="#BBDEFB" stroke="#1565C0" stroke-width="1"/>
      <rect x="154" y="332" width="28" height="10" fill="#F4D27A" stroke="#A87C1F" stroke-width="1"/>
      <rect x="189" y="314" width="28" height="18" fill="#BBDEFB" stroke="#1565C0" stroke-width="1"/>
      <rect x="189" y="332" width="28" height="10" fill="#F4D27A" stroke="#A87C1F" stroke-width="1"/>
      <rect x="224" y="314" width="28" height="18" fill="#BBDEFB" stroke="#1565C0" stroke-width="1"/>
      <rect x="224" y="332" width="28" height="10" fill="#F4D27A" stroke="#A87C1F" stroke-width="1"/>
      <rect x="259" y="314" width="28" height="18" fill="#BBDEFB" stroke="#1565C0" stroke-width="1"/>
      <rect x="259" y="332" width="28" height="10" fill="#F4D27A" stroke="#A87C1F" stroke-width="1"/>
      <rect x="294" y="314" width="28" height="18" fill="#BBDEFB" stroke="#1565C0" stroke-width="1"/>
      <rect x="294" y="332" width="28" height="10" fill="#F4D27A" stroke="#A87C1F" stroke-width="1"/>
      <rect x="329" y="314" width="28" height="18" fill="#BBDEFB" stroke="#1565C0" stroke-width="1"/>
      <rect x="329" y="332" width="28" height="10" fill="#F4D27A" stroke="#A87C1F" stroke-width="1"/>
    </g>
    <!-- Row 8 -->
    <g>
      <rect x="84"  y="349" width="28" height="18" fill="#BBDEFB" stroke="#1565C0" stroke-width="1"/>
      <rect x="84"  y="367" width="28" height="10" fill="#F4D27A" stroke="#A87C1F" stroke-width="1"/>
      <rect x="119" y="349" width="28" height="18" fill="#BBDEFB" stroke="#1565C0" stroke-width="1"/>
      <rect x="119" y="367" width="28" height="10" fill="#F4D27A" stroke="#A87C1F" stroke-width="1"/>
      <rect x="154" y="349" width="28" height="18" fill="#BBDEFB" stroke="#1565C0" stroke-width="1"/>
      <rect x="154" y="367" width="28" height="10" fill="#F4D27A" stroke="#A87C1F" stroke-width="1"/>
      <rect x="189" y="349" width="28" height="18" fill="#BBDEFB" stroke="#1565C0" stroke-width="1"/>
      <rect x="189" y="367" width="28" height="10" fill="#F4D27A" stroke="#A87C1F" stroke-width="1"/>
      <rect x="224" y="349" width="28" height="18" fill="#BBDEFB" stroke="#1565C0" stroke-width="1"/>
      <rect x="224" y="367" width="28" height="10" fill="#F4D27A" stroke="#A87C1F" stroke-width="1"/>
      <rect x="259" y="349" width="28" height="18" fill="#BBDEFB" stroke="#1565C0" stroke-width="1"/>
      <rect x="259" y="367" width="28" height="10" fill="#F4D27A" stroke="#A87C1F" stroke-width="1"/>
      <rect x="294" y="349" width="28" height="18" fill="#BBDEFB" stroke="#1565C0" stroke-width="1"/>
      <rect x="294" y="367" width="28" height="10" fill="#F4D27A" stroke="#A87C1F" stroke-width="1"/>
      <rect x="329" y="349" width="28" height="18" fill="#BBDEFB" stroke="#1565C0" stroke-width="1"/>
      <rect x="329" y="367" width="28" height="10" fill="#F4D27A" stroke="#A87C1F" stroke-width="1"/>
    </g>
  </g>

  <!-- Highlight ring around the "zoom" cell (row 2, col 5) -->
  <rect x="220" y="135" width="36" height="36" rx="3" fill="none" stroke="#FFC904" stroke-width="2.5" stroke-dasharray="3 2"/>

  <!-- Vertical carry-chain hint: arrows in column 5 connecting CARRY halves up the column -->
  <g stroke="#A87C1F" stroke-width="0.9" fill="none" opacity="0.55">
    <line x1="238" y1="367" x2="238" y2="332"/>
    <line x1="238" y1="332" x2="238" y2="297"/>
    <line x1="238" y1="297" x2="238" y2="262"/>
    <line x1="238" y1="262" x2="238" y2="227"/>
    <line x1="238" y1="227" x2="238" y2="192"/>
    <line x1="238" y1="192" x2="238" y2="157"/>
    <line x1="238" y1="157" x2="238" y2="122"/>
  </g>

  <!-- Legend -->
  <g font-size="10" fill="#2C2A29">
    <g>
      <rect x="50" y="438" width="14" height="9" fill="#BBDEFB" stroke="#1565C0"/>
      <rect x="50" y="447" width="14" height="5" fill="#F4D27A" stroke="#A87C1F"/>
    </g>
    <text x="70" y="450">Logic cell = LUT4 + CARRY (+ FF)</text>
    <rect x="244" y="442" width="14" height="10" fill="#FFCCBC" stroke="#BF360C"/>
    <text x="264" y="450">Block RAM</text>
    <rect x="328" y="442" width="14" height="10" fill="#FFE082" stroke="#C9A000"/>
    <text x="348" y="450">I/O block</text>
  </g>

  <!-- Connector arrow from highlighted tile to right panel -->
  <path d="M 258 153 C 320 153, 380 165, 470 175" fill="none" stroke="#FFC904" stroke-width="2" stroke-dasharray="4 3" marker-end="url(#lc-arw)"/>
  <text x="370" y="148" font-size="10" fill="#C9A000" font-style="italic">zoom in →</text>

  <!-- =================== RIGHT PANEL: ONE LOGIC CELL =================== -->
  <text x="705" y="28" text-anchor="middle" font-size="15" font-weight="700" fill="#2C2A29">Inside one Logic Cell</text>
  <text x="705" y="46" text-anchor="middle" font-size="10" fill="#5F6062" font-style="italic">LUT4 + CARRY + FF, with a dedicated carry-in/out wire</text>

  <!-- Logic cell box -->
  <rect x="470" y="60" width="470" height="320" rx="10" fill="#FFFFFF" stroke="#2C2A29" stroke-width="2.5" filter="url(#lc-sh)"/>

  <!-- Carry-in arrow into the CARRY from below the cell -->
  <line x1="600" y1="335" x2="600" y2="305" stroke="#A87C1F" stroke-width="2" marker-end="url(#lc-carry)"/>
  <text x="608" y="328" font-size="10" font-style="italic" fill="#A87C1F">cin (from LC below)</text>

  <!-- 4 input wires -->
  <g stroke="#2C2A29" stroke-width="1.5" fill="none">
    <line x1="490" y1="110" x2="555" y2="110"/>
    <line x1="490" y1="135" x2="555" y2="135"/>
    <line x1="490" y1="160" x2="555" y2="160"/>
    <line x1="490" y1="185" x2="555" y2="185"/>
  </g>
  <g font-size="11" font-family="JetBrains Mono, monospace" fill="#2C2A29">
    <text x="486" y="113" text-anchor="end">a</text>
    <text x="486" y="138" text-anchor="end">b</text>
    <text x="486" y="163" text-anchor="end">c</text>
    <text x="486" y="188" text-anchor="end">d</text>
  </g>

  <!-- Tap-down: a, b also feed CARRY -->
  <g stroke="#A87C1F" stroke-width="1.4" fill="none" stroke-dasharray="3 2">
    <path d="M 540 110 L 540 270 L 580 270"/>
    <path d="M 530 135 L 530 282 L 580 282"/>
  </g>
  <text x="498" y="225" font-size="8.5" fill="#A87C1F" font-style="italic">(a, b also</text>
  <text x="498" y="237" font-size="8.5" fill="#A87C1F" font-style="italic">drive CARRY)</text>

  <!-- LUT4 box -->
  <rect x="555" y="80" width="155" height="135" rx="6" fill="#E3F2FD" stroke="#1565C0" stroke-width="2"/>
  <text x="632" y="100" text-anchor="middle" font-size="13" font-weight="700" fill="#1565C0">4-input LUT</text>
  <text x="632" y="114" text-anchor="middle" font-size="9" fill="#1565C0">16 config bits → any 4-in fn</text>
  <text x="632" y="128" text-anchor="middle" font-size="8.5" fill="#1565C0" font-style="italic">(in adder mode: sum = a⊕b⊕cin)</text>

  <!-- Mini truth table inside LUT -->
  <g font-size="8" font-family="JetBrains Mono, monospace" fill="#2C2A29">
    <text x="568" y="148">abcd  y</text>
    <text x="568" y="160">0000  0</text>
    <text x="568" y="170">0001  1</text>
    <text x="568" y="180">0010  1</text>
    <text x="568" y="190">....  .</text>
    <text x="568" y="200">1111  1</text>

    <text x="638" y="148">addr  bit</text>
    <text x="638" y="160">  0   0</text>
    <text x="638" y="170">  1   1</text>
    <text x="638" y="180">  2   1</text>
    <text x="638" y="190">      ...</text>
    <text x="638" y="200"> 15   1</text>
  </g>

  <!-- CARRY box -->
  <rect x="555" y="240" width="155" height="65" rx="6" fill="#FFF8E1" stroke="#A87C1F" stroke-width="2"/>
  <text x="632" y="260" text-anchor="middle" font-size="13" font-weight="700" fill="#A87C1F">CARRY</text>
  <text x="632" y="274" text-anchor="middle" font-size="9" fill="#A87C1F">cout = majority(a, b, cin)</text>
  <text x="632" y="288" text-anchor="middle" font-size="8.5" fill="#A87C1F" font-style="italic">fixed-function · not configurable</text>

  <!-- cout from CARRY going up out of the cell (routed around the LUT on the right) -->
  <path d="M 700 250 L 730 250 L 730 70" fill="none" stroke="#A87C1F" stroke-width="2" marker-end="url(#lc-carry)"/>
  <text x="736" y="78" font-size="10" font-style="italic" fill="#A87C1F">cout (to LC above)</text>

  <!-- LUT output → FF and mux -->
  <line x1="710" y1="147" x2="775" y2="147" stroke="#2C2A29" stroke-width="1.5"/>
  <text x="742" y="140" text-anchor="middle" font-size="9" fill="#5F6062" font-style="italic">sum / LUT_OUT</text>

  <!-- Flip-flop box -->
  <rect x="775" y="115" width="80" height="65" rx="4" fill="#FFF3E0" stroke="#E65100" stroke-width="2"/>
  <text x="815" y="138" text-anchor="middle" font-size="13" font-weight="700" fill="#E65100">D-FF</text>
  <text x="815" y="153" text-anchor="middle" font-size="9" fill="#E65100">edge-triggered</text>
  <text x="781" y="172" font-size="9" font-family="JetBrains Mono, monospace" fill="#2C2A29">D</text>
  <text x="850" y="172" font-size="9" font-family="JetBrains Mono, monospace" fill="#2C2A29" text-anchor="end">Q</text>

  <!-- Clock to FF -->
  <line x1="815" y1="200" x2="815" y2="180" stroke="#2C2A29" stroke-width="1.5"/>
  <text x="815" y="213" text-anchor="middle" font-size="10" font-family="JetBrains Mono, monospace" fill="#2C2A29">clk</text>

  <!-- 2:1 mux selecting comb-or-registered output -->
  <polygon points="870,135 905,148 905,178 870,191" fill="#F3E5F5" stroke="#6A1B9A" stroke-width="1.5"/>
  <text x="887" y="167" text-anchor="middle" font-size="10" font-weight="700" fill="#6A1B9A">2:1</text>
  <!-- comb path bypass into mux top -->
  <line x1="710" y1="147" x2="870" y2="147" stroke="#2C2A29" stroke-width="1.5"/>
  <!-- FF Q to mux bottom -->
  <line x1="855" y1="158" x2="870" y2="170" stroke="#2C2A29" stroke-width="1.5"/>
  <!-- mux output -->
  <line x1="905" y1="162" x2="925" y2="162" stroke="#2C2A29" stroke-width="2"/>
  <text x="928" y="166" font-size="11" font-family="JetBrains Mono, monospace" fill="#2C2A29">y</text>

  <!-- Caption beneath -->
  <g font-size="10.5" fill="#2C2A29">
    <text x="490" y="332" font-weight="700" fill="#1565C0">LUT</text>
    <text x="520" y="332">tiny SRAM. 16 config bits = any 4-input function.</text>
    <text x="490" y="347" font-weight="700" fill="#A87C1F">CARRY</text>
    <text x="535" y="347">fixed adder helper. cin/cout bypass routing — fast chain.</text>
    <text x="490" y="362" font-weight="700" fill="#E65100">FF</text>
    <text x="510" y="362">1 bit of state.</text>
    <text x="585" y="362" font-weight="700" fill="#6A1B9A">2:1 mux</text>
    <text x="635" y="362">picks combinational vs. registered.</text>
  </g>

  <!-- Bitstream caption (bottom strip) -->
  <rect x="40" y="468" width="900" height="22" rx="4" fill="#000000"/>
  <text x="490" y="484" text-anchor="middle" font-size="11" font-weight="700" fill="#FFC904">
    yosys reports SB_LUT4 and SB_CARRY separately — same chip resource, distinct primitives, distinct counts
  </text>
</svg>
