<svg xmlns="http://www.w3.org/2000/svg" viewBox="0 0 760 460" font-family="Inter, Arial, sans-serif">
  <defs>
    <marker id="ah" markerWidth="10" markerHeight="7" refX="10" refY="3.5" orient="auto">
      <polygon points="0 0, 10 3.5, 0 7" fill="#333"/>
    </marker>
    <marker id="ah-purple" markerWidth="10" markerHeight="7" refX="10" refY="3.5" orient="auto">
      <polygon points="0 0, 10 3.5, 0 7" fill="#9C27B0"/>
    </marker>
  </defs>
  <rect width="760" height="460" rx="12" fill="#FAFAFA" stroke="#DDD"/>
  <text x="380" y="32" text-anchor="middle" font-size="16" font-weight="700" fill="#333">wire vs. reg Decision Flowchart</text>

  <!-- Start -->
  <rect x="275" y="50" width="210" height="40" rx="20" fill="#FFC904" stroke="#333" stroke-width="1.5"/>
  <text x="380" y="76" text-anchor="middle" font-size="13" font-weight="600">Signal needs a value?</text>
  <line x1="380" y1="90" x2="380" y2="120" stroke="#333" stroke-width="1.5" marker-end="url(#ah)"/>

  <!-- Driven by assign? -->
  <rect x="250" y="120" width="260" height="44" rx="6" fill="#E3F2FD" stroke="#1565C0" stroke-width="1.5"/>
  <text x="380" y="138" text-anchor="middle" font-size="12" font-weight="600" fill="#1565C0">Driven by assign or</text>
  <text x="380" y="154" text-anchor="middle" font-size="12" font-weight="600" fill="#1565C0">module port connection?</text>
  <!-- YES → wire -->
  <line x1="250" y1="142" x2="130" y2="142" stroke="#2E7D32" stroke-width="1.5" marker-end="url(#ah)"/>
  <text x="190" y="135" font-size="11" fill="#2E7D32" font-weight="600">YES</text>
  <rect x="50" y="122" width="80" height="40" rx="6" fill="#E8F5E9" stroke="#2E7D32" stroke-width="2"/>
  <text x="90" y="147" text-anchor="middle" font-size="14" font-weight="700" fill="#2E7D32">wire</text>
  <!-- NO → down -->
  <line x1="380" y1="164" x2="380" y2="200" stroke="#333" stroke-width="1.5" marker-end="url(#ah)"/>
  <text x="388" y="188" font-size="11" fill="#C62828" font-weight="600">NO</text>

  <!-- Assigned in always? -->
  <rect x="250" y="200" width="260" height="44" rx="6" fill="#F3E5F5" stroke="#9C27B0" stroke-width="1.5"/>
  <text x="380" y="218" text-anchor="middle" font-size="12" font-weight="600" fill="#9C27B0">Assigned inside</text>
  <text x="380" y="234" text-anchor="middle" font-size="12" font-weight="600" fill="#9C27B0">always block?</text>
  <!-- YES → reg -->
  <line x1="250" y1="222" x2="130" y2="222" stroke="#2E7D32" stroke-width="1.5" marker-end="url(#ah)"/>
  <text x="190" y="215" font-size="11" fill="#2E7D32" font-weight="600">YES</text>
  <rect x="50" y="202" width="80" height="40" rx="6" fill="#F3E5F5" stroke="#9C27B0" stroke-width="2"/>
  <text x="90" y="227" text-anchor="middle" font-size="14" font-weight="700" fill="#9C27B0">reg</text>
  <!-- NO → undriven (right side) -->
  <line x1="510" y1="222" x2="595" y2="222" stroke="#C62828" stroke-width="1.5" marker-end="url(#ah)"/>
  <text x="535" y="215" font-size="11" fill="#C62828" font-weight="600">NO</text>
  <rect x="600" y="200" width="140" height="44" rx="6" fill="#FFEBEE" stroke="#C62828" stroke-width="2"/>
  <text x="670" y="220" text-anchor="middle" font-size="12" font-weight="700" fill="#C62828">Undriven!</text>
  <text x="670" y="236" text-anchor="middle" font-size="10" fill="#666">(bug — fix your code)</text>

  <!-- reg → posedge sub-decision: clearly marked as a follow-up for the reg branch -->
  <line x1="90" y1="242" x2="90" y2="285" stroke="#9C27B0" stroke-width="1.5" stroke-dasharray="5,3"/>
  <line x1="90" y1="285" x2="180" y2="285" stroke="#9C27B0" stroke-width="1.5" stroke-dasharray="5,3" marker-end="url(#ah-purple)"/>
  <text x="100" y="262" font-size="10" fill="#9C27B0" font-style="italic" font-weight="600">if reg, then ask:</text>

  <!-- always @(posedge clk)? -->
  <rect x="180" y="262" width="260" height="46" rx="6" fill="#FFF8E1" stroke="#F9A825" stroke-width="1.5"/>
  <text x="310" y="280" text-anchor="middle" font-size="12" font-weight="600" fill="#333">always @(posedge clk)?</text>
  <text x="310" y="297" text-anchor="middle" font-size="11" fill="#666">(clock edge in sensitivity list)</text>

  <!-- YES → Flip-Flop -->
  <line x1="240" y1="308" x2="240" y2="350" stroke="#333" stroke-width="1.5" marker-end="url(#ah)"/>
  <text x="248" y="332" font-size="11" fill="#2E7D32" font-weight="600">YES</text>
  <rect x="180" y="350" width="120" height="44" rx="6" fill="#E3F2FD" stroke="#1565C0" stroke-width="2"/>
  <text x="240" y="368" text-anchor="middle" font-size="12" font-weight="700" fill="#1565C0">Flip-Flop</text>
  <text x="240" y="384" text-anchor="middle" font-size="10" fill="#666">(real register)</text>

  <!-- NO → Combinational -->
  <line x1="380" y1="308" x2="380" y2="350" stroke="#333" stroke-width="1.5" marker-end="url(#ah)"/>
  <text x="388" y="332" font-size="11" fill="#C62828" font-weight="600">NO (@*)</text>
  <rect x="320" y="350" width="140" height="44" rx="6" fill="#E8F5E9" stroke="#2E7D32" stroke-width="2"/>
  <text x="390" y="368" text-anchor="middle" font-size="12" font-weight="700" fill="#2E7D32">Combinational</text>
  <text x="390" y="384" text-anchor="middle" font-size="10" fill="#666">(no storage)</text>

  <text x="380" y="430" text-anchor="middle" font-size="10" fill="#999">reg does NOT always mean register — it depends on the sensitivity list</text>
</svg>
