<?xml version="1.0" encoding="UTF-8"?>
<svg xmlns="http://www.w3.org/2000/svg" viewBox="0 0 700 340" font-family="Inter, sans-serif">
  <defs>
    <marker id="arr" markerWidth="8" markerHeight="6" refX="8" refY="3" orient="auto">
      <path d="M0,0 L8,3 L0,6 Z" fill="#333"/>
    </marker>
  </defs>

  <text x="350" y="22" text-anchor="middle" font-size="15" font-weight="700" fill="#333">Hierarchical Module Design — Go Board Top</text>

  <!-- TOP MODULE -->
  <rect x="240" y="40" width="220" height="44" rx="8" fill="#E3F2FD" stroke="#1565C0" stroke-width="2.5"/>
  <text x="350" y="60" text-anchor="middle" font-size="12" font-weight="700" fill="#1565C0">top_button_counter</text>
  <text x="350" y="76" text-anchor="middle" font-size="9" fill="#555">Level 0 — system integration</text>

  <!-- Connector lines to level 1 -->
  <line x1="120" y1="84" x2="120" y2="120" stroke="#555" stroke-width="1.5"/>
  <line x1="280" y1="84" x2="280" y2="120" stroke="#555" stroke-width="1.5"/>
  <line x1="420" y1="84" x2="420" y2="120" stroke="#555" stroke-width="1.5"/>
  <line x1="560" y1="84" x2="560" y2="120" stroke="#555" stroke-width="1.5"/>
  <line x1="120" y1="84" x2="560" y2="84" stroke="#555" stroke-width="1.5"/>
  <line x1="350" y1="84" x2="350" y2="84" stroke="#555" stroke-width="1.5"/>

  <!-- DEBOUNCE x2 -->
  <rect x="30" y="120" width="180" height="44" rx="6" fill="#FFF8E1" stroke="#F9A825" stroke-width="1.5"/>
  <text x="120" y="140" text-anchor="middle" font-size="10" font-weight="600" fill="#333">debounce × 2</text>
  <text x="120" y="155" text-anchor="middle" font-size="8" fill="#888">#(.CLKS_TO_STABLE(250000))</text>

  <!-- EDGE DETECTOR -->
  <rect x="220" y="120" width="120" height="44" rx="6" fill="#FFF8E1" stroke="#F9A825" stroke-width="1.5"/>
  <text x="280" y="140" text-anchor="middle" font-size="10" font-weight="600" fill="#333">edge_detector</text>
  <text x="280" y="155" text-anchor="middle" font-size="8" fill="#888">press pulse gen</text>

  <!-- COUNTER -->
  <rect x="350" y="120" width="140" height="44" rx="6" fill="#FFF8E1" stroke="#F9A825" stroke-width="1.5"/>
  <text x="420" y="140" text-anchor="middle" font-size="10" font-weight="600" fill="#333">counter_mod_n</text>
  <text x="420" y="155" text-anchor="middle" font-size="8" fill="#888">#(.N(16))</text>

  <!-- HEX TO 7SEG -->
  <rect x="500" y="120" width="120" height="44" rx="6" fill="#FFF8E1" stroke="#F9A825" stroke-width="1.5"/>
  <text x="560" y="140" text-anchor="middle" font-size="10" font-weight="600" fill="#333">hex_to_7seg</text>
  <text x="560" y="155" text-anchor="middle" font-size="8" fill="#888">display decoder</text>

  <!-- Level 2 — inside debounce -->
  <line x1="70" y1="164" x2="70" y2="200" stroke="#999" stroke-width="1"/>
  <line x1="170" y1="164" x2="170" y2="200" stroke="#999" stroke-width="1"/>
  <line x1="70" y1="190" x2="170" y2="190" stroke="#999" stroke-width="1"/>

  <rect x="20" y="200" width="110" height="36" rx="5" fill="#E8F5E9" stroke="#2E7D32" stroke-width="1"/>
  <text x="75" y="218" text-anchor="middle" font-size="9" font-weight="600" fill="#2E7D32">synchronizer</text>
  <text x="75" y="230" text-anchor="middle" font-size="7" fill="#888">2-FF sync</text>

  <rect x="140" y="200" width="110" height="36" rx="5" fill="#E8F5E9" stroke="#2E7D32" stroke-width="1"/>
  <text x="195" y="218" text-anchor="middle" font-size="9" font-weight="600" fill="#2E7D32">counter</text>
  <text x="195" y="230" text-anchor="middle" font-size="7" fill="#888">stability timer</text>

  <!-- Level labels -->
  <text x="680" y="66" font-size="9" fill="#1565C0" font-weight="600">Level 0</text>
  <text x="680" y="146" font-size="9" fill="#F9A825" font-weight="600">Level 1</text>
  <text x="680" y="222" font-size="9" fill="#2E7D32" font-weight="600">Level 2</text>

  <!-- Design philosophy box -->
  <rect x="60" y="264" width="580" height="55" rx="8" fill="#F5F5F5" stroke="#DDD" stroke-width="1"/>
  <text x="350" y="283" text-anchor="middle" font-size="10" font-weight="600" fill="#333">Design Philosophy</text>
  <text x="350" y="300" text-anchor="middle" font-size="9" fill="#555">Design top-down (architecture) · Implement bottom-up (test leaves first) · Integrate and verify at each level</text>
  <text x="350" y="312" text-anchor="middle" font-size="9" fill="#888">Each module: independently understandable, testable, and reusable</text>
</svg>
