<?xml version="1.0" encoding="UTF-8"?>
<svg xmlns="http://www.w3.org/2000/svg" viewBox="0 0 720 260" font-family="Inter, sans-serif">
  <defs>
    <marker id="arr" markerWidth="8" markerHeight="6" refX="8" refY="3" orient="auto">
      <path d="M0,0 L8,3 L0,6 Z" fill="#333"/>
    </marker>
  </defs>

  <!-- Title -->
  <text x="360" y="24" text-anchor="middle" font-size="15" font-weight="700" fill="#1565C0">2-FF Metastability Synchronizer</text>

  <!-- Async input label -->
  <text x="30" y="108" text-anchor="start" font-size="12" fill="#C62828" font-weight="600">Async In</text>
  <line x1="90" y1="104" x2="150" y2="104" stroke="#C62828" stroke-width="2.5" marker-end="url(#arr)"/>

  <!-- FF1 (meta) -->
  <rect x="155" y="72" width="100" height="65" rx="6" fill="#FFEBEE" stroke="#C62828" stroke-width="2"/>
  <text x="205" y="96" text-anchor="middle" font-size="11" font-weight="600" fill="#C62828">FF1</text>
  <text x="205" y="112" text-anchor="middle" font-size="9" fill="#666">r_meta</text>
  <!-- clock triangle -->
  <polygon points="160,130 172,124 160,118" fill="none" stroke="#C62828" stroke-width="1.5"/>
  <!-- metastable zone -->
  <rect x="158" y="142" width="94" height="22" rx="4" fill="#FFCDD2" stroke="#C62828" stroke-width="1" stroke-dasharray="3,2"/>
  <text x="205" y="157" text-anchor="middle" font-size="8" fill="#C62828" font-style="italic">May go metastable</text>

  <!-- wire between FFs -->
  <line x1="255" y1="104" x2="345" y2="104" stroke="#333" stroke-width="2" marker-end="url(#arr)"/>
  <text x="300" y="96" text-anchor="middle" font-size="9" fill="#555">1 full clock</text>
  <text x="300" y="122" text-anchor="middle" font-size="9" fill="#555">period to resolve</text>

  <!-- FF2 (sync) -->
  <rect x="350" y="72" width="100" height="65" rx="6" fill="#E8F5E9" stroke="#2E7D32" stroke-width="2"/>
  <text x="400" y="96" text-anchor="middle" font-size="11" font-weight="600" fill="#2E7D32">FF2</text>
  <text x="400" y="112" text-anchor="middle" font-size="9" fill="#666">r_sync</text>
  <!-- clock triangle -->
  <polygon points="355,130 367,124 355,118" fill="none" stroke="#2E7D32" stroke-width="1.5"/>
  <!-- safe zone -->
  <rect x="353" y="142" width="94" height="22" rx="4" fill="#C8E6C9" stroke="#2E7D32" stroke-width="1"/>
  <text x="400" y="157" text-anchor="middle" font-size="8" fill="#2E7D32" font-style="italic">Extremely safe</text>

  <!-- output -->
  <line x1="450" y1="104" x2="540" y2="104" stroke="#2E7D32" stroke-width="2.5" marker-end="url(#arr)"/>
  <text x="570" y="108" text-anchor="start" font-size="12" fill="#2E7D32" font-weight="600">Sync Out</text>

  <!-- Clock input at bottom -->
  <line x1="205" y1="200" x2="205" y2="137" stroke="#1565C0" stroke-width="1.5" marker-end="url(#arr)"/>
  <line x1="400" y1="200" x2="400" y2="137" stroke="#1565C0" stroke-width="1.5" marker-end="url(#arr)"/>
  <line x1="140" y1="200" x2="460" y2="200" stroke="#1565C0" stroke-width="1.5"/>
  <!-- clock symbol -->
  <text x="300" y="218" text-anchor="middle" font-size="11" fill="#1565C0" font-weight="600">i_clk (25 MHz)</text>

  <!-- Latency annotation -->
  <rect x="490" y="172" width="210" height="44" rx="6" fill="#FFF8E1" stroke="#F9A825" stroke-width="1.5"/>
  <text x="595" y="190" text-anchor="middle" font-size="10" fill="#333" font-weight="600">Cost: 2 clock cycles latency</text>
  <text x="595" y="206" text-anchor="middle" font-size="9" fill="#666">MTBF at 25 MHz ≈ centuries</text>
</svg>
