<?xml version="1.0" encoding="UTF-8"?>
<svg xmlns="http://www.w3.org/2000/svg" viewBox="0 0 750 220" font-family="Inter, sans-serif">
  <defs>
    <marker id="arr" markerWidth="8" markerHeight="6" refX="8" refY="3" orient="auto">
      <path d="M0,0 L8,3 L0,6 Z" fill="#333"/>
    </marker>
    <marker id="arr-b" markerWidth="8" markerHeight="6" refX="8" refY="3" orient="auto">
      <path d="M0,0 L8,3 L0,6 Z" fill="#1565C0"/>
    </marker>
  </defs>
  <text x="375" y="20" text-anchor="middle" font-size="14" font-weight="700" fill="#333">Critical Path — The Timing Constraint</text>
  <rect x="40" y="55" width="80" height="70" rx="6" fill="#E3F2FD" stroke="#1565C0" stroke-width="2"/>
  <text x="80" y="80" text-anchor="middle" font-size="11" font-weight="600" fill="#1565C0">FF A</text>
  <text x="80" y="96" text-anchor="middle" font-size="8" fill="#555">(source)</text>
  <line x1="120" y1="90" x2="170" y2="90" stroke="#333" stroke-width="2" marker-end="url(#arr)"/>
  <text x="145" y="80" text-anchor="middle" font-size="8" fill="#888">Tclk-to-q</text>
  <ellipse cx="310" cy="90" rx="120" ry="45" fill="#FFF8E1" stroke="#F9A825" stroke-width="2"/>
  <text x="310" y="82" text-anchor="middle" font-size="11" font-weight="600" fill="#333">Combinational</text>
  <text x="310" y="98" text-anchor="middle" font-size="11" font-weight="600" fill="#333">Logic</text>
  <text x="310" y="118" text-anchor="middle" font-size="8" fill="#888">Tcomb + Trouting</text>
  <line x1="430" y1="90" x2="530" y2="90" stroke="#333" stroke-width="2" marker-end="url(#arr)"/>
  <line x1="505" y1="60" x2="535" y2="60" stroke="#C62828" stroke-width="1.5"/>
  <line x1="505" y1="56" x2="505" y2="64" stroke="#C62828" stroke-width="1.5"/>
  <line x1="535" y1="56" x2="535" y2="64" stroke="#C62828" stroke-width="1.5"/>
  <text x="520" y="54" text-anchor="middle" font-size="8" fill="#C62828" font-weight="600">Tsetup</text>
  <rect x="540" y="55" width="80" height="70" rx="6" fill="#E3F2FD" stroke="#1565C0" stroke-width="2"/>
  <text x="580" y="80" text-anchor="middle" font-size="11" font-weight="600" fill="#1565C0">FF B</text>
  <text x="580" y="96" text-anchor="middle" font-size="8" fill="#555">(dest)</text>
  <line x1="620" y1="90" x2="660" y2="90" stroke="#333" stroke-width="1.5" marker-end="url(#arr)"/>
  <line x1="80" y1="165" x2="80" y2="130" stroke="#1565C0" stroke-width="1.5" marker-end="url(#arr-b)"/>
  <line x1="580" y1="165" x2="580" y2="130" stroke="#1565C0" stroke-width="1.5" marker-end="url(#arr-b)"/>
  <line x1="40" y1="165" x2="660" y2="165" stroke="#1565C0" stroke-width="1.5"/>
  <text x="330" y="182" text-anchor="middle" font-size="10" fill="#1565C0" font-weight="600">i_clk (25 MHz → 40 ns period)</text>
  <rect x="100" y="195" width="550" height="22" rx="4" fill="#FFF8E1" stroke="#F9A825" stroke-width="1"/>
  <text x="375" y="210" text-anchor="middle" font-size="9" fill="#333" font-weight="600">Requirement: Tclk-to-q + Tcomb + Trouting + Tsetup &lt; Tclk_period (40 ns)</text>
</svg>
