<?xml version="1.0" encoding="UTF-8"?>
<svg xmlns="http://www.w3.org/2000/svg" viewBox="0 0 740 290" font-family="Inter, sans-serif">
  <defs>
    <marker id="arr2" markerWidth="8" markerHeight="6" refX="8" refY="3" orient="auto">
      <path d="M0,0 L8,3 L0,6 Z" fill="#333"/>
    </marker>
  </defs>
  <text x="370" y="20" text-anchor="middle" font-size="14" font-weight="700" fill="#333">Pipelining — Fixing Timing Violations</text>
  <text x="20" y="55" font-size="11" font-weight="700" fill="#C62828">BEFORE (long critical path)</text>
  <rect x="30" y="65" width="55" height="40" rx="4" fill="#E3F2FD" stroke="#1565C0" stroke-width="1.5"/>
  <text x="58" y="88" text-anchor="middle" font-size="9" fill="#1565C0">FF</text>
  <line x1="85" y1="85" x2="110" y2="85" stroke="#333" stroke-width="1.5" marker-end="url(#arr2)"/>
  <rect x="115" y="65" width="80" height="40" rx="4" fill="#FFEBEE" stroke="#C62828" stroke-width="1.5"/>
  <text x="155" y="88" text-anchor="middle" font-size="8" fill="#333">A + B</text>
  <line x1="195" y1="85" x2="215" y2="85" stroke="#333" stroke-width="1.5" marker-end="url(#arr2)"/>
  <rect x="220" y="65" width="80" height="40" rx="4" fill="#FFEBEE" stroke="#C62828" stroke-width="1.5"/>
  <text x="260" y="88" text-anchor="middle" font-size="8" fill="#333">+ C</text>
  <line x1="300" y1="85" x2="320" y2="85" stroke="#333" stroke-width="1.5" marker-end="url(#arr2)"/>
  <rect x="325" y="65" width="80" height="40" rx="4" fill="#FFEBEE" stroke="#C62828" stroke-width="1.5"/>
  <text x="365" y="88" text-anchor="middle" font-size="8" fill="#333">+ D</text>
  <line x1="405" y1="85" x2="425" y2="85" stroke="#333" stroke-width="1.5" marker-end="url(#arr2)"/>
  <rect x="430" y="65" width="55" height="40" rx="4" fill="#E3F2FD" stroke="#1565C0" stroke-width="1.5"/>
  <text x="458" y="88" text-anchor="middle" font-size="9" fill="#1565C0">FF</text>
  <line x1="115" y1="115" x2="425" y2="115" stroke="#C62828" stroke-width="1.5"/>
  <text x="270" y="132" text-anchor="middle" font-size="9" fill="#C62828" font-weight="600">Critical path: 3 chained additions</text>
  <text x="20" y="168" font-size="11" font-weight="700" fill="#2E7D32">AFTER (pipelined — 2 parallel adds per stage)</text>
  <rect x="30" y="180" width="55" height="40" rx="4" fill="#E3F2FD" stroke="#1565C0" stroke-width="1.5"/>
  <text x="58" y="203" text-anchor="middle" font-size="9" fill="#1565C0">FF</text>
  <line x1="85" y1="200" x2="110" y2="200" stroke="#333" stroke-width="1.5" marker-end="url(#arr2)"/>
  <rect x="115" y="175" width="110" height="50" rx="4" fill="#E8F5E9" stroke="#2E7D32" stroke-width="1.5"/>
  <text x="170" y="196" text-anchor="middle" font-size="8" fill="#333">A+B</text>
  <text x="170" y="210" text-anchor="middle" font-size="8" fill="#333">C+D  (parallel)</text>
  <line x1="225" y1="200" x2="255" y2="200" stroke="#333" stroke-width="1.5" marker-end="url(#arr2)"/>
  <rect x="260" y="180" width="55" height="40" rx="4" fill="#E3F2FD" stroke="#1565C0" stroke-width="2"/>
  <text x="288" y="203" text-anchor="middle" font-size="9" fill="#1565C0">FF</text>
  <line x1="315" y1="200" x2="340" y2="200" stroke="#333" stroke-width="1.5" marker-end="url(#arr2)"/>
  <rect x="345" y="180" width="100" height="40" rx="4" fill="#E8F5E9" stroke="#2E7D32" stroke-width="1.5"/>
  <text x="395" y="203" text-anchor="middle" font-size="8" fill="#333">sum1 + sum2</text>
  <line x1="445" y1="200" x2="470" y2="200" stroke="#333" stroke-width="1.5" marker-end="url(#arr2)"/>
  <rect x="475" y="180" width="55" height="40" rx="4" fill="#E3F2FD" stroke="#1565C0" stroke-width="1.5"/>
  <text x="503" y="203" text-anchor="middle" font-size="9" fill="#1565C0">FF</text>
  <line x1="115" y1="232" x2="255" y2="232" stroke="#2E7D32" stroke-width="1.5"/>
  <text x="185" y="248" text-anchor="middle" font-size="9" fill="#2E7D32" font-weight="600">Max path: 1 addition → PASS</text>
  <rect x="540" y="168" width="185" height="55" rx="6" fill="#FFF8E1" stroke="#F9A825" stroke-width="1"/>
  <text x="632" y="186" text-anchor="middle" font-size="9" fill="#333" font-weight="600">Trade-off:</text>
  <text x="632" y="200" text-anchor="middle" font-size="8" fill="#555">+1 cycle latency</text>
  <text x="632" y="212" text-anchor="middle" font-size="8" fill="#555">+2 flip-flops (pipeline regs)</text>
  <text x="632" y="224" text-anchor="middle" font-size="8" fill="#2E7D32">Higher Fmax (throughput)</text>
</svg>
