<?xml version="1.0" encoding="UTF-8"?>
<svg xmlns="http://www.w3.org/2000/svg" viewBox="0 0 820 380" font-family="Inter, sans-serif">
  <defs>
    <marker id="arr" markerWidth="9" markerHeight="7" refX="8.5" refY="3.5" orient="auto">
      <path d="M0,0 L9,3.5 L0,7 Z" fill="#333"/>
    </marker>
    <marker id="arr-r" markerWidth="9" markerHeight="7" refX="8.5" refY="3.5" orient="auto">
      <path d="M0,0 L9,3.5 L0,7 Z" fill="#C62828"/>
    </marker>
    <marker id="arr-g" markerWidth="9" markerHeight="7" refX="8.5" refY="3.5" orient="auto">
      <path d="M0,0 L9,3.5 L0,7 Z" fill="#2E7D32"/>
    </marker>
  </defs>

  <text x="410" y="22" text-anchor="middle" font-size="15" font-weight="700" fill="#333">
    Pattern Detector for "1011" — Moore FSM (5 states, overlap-aware)
  </text>

  <!-- RESET indicator -->
  <line x1="60" y1="100" x2="60" y2="148" stroke="#C62828" stroke-width="2" marker-end="url(#arr-r)"/>
  <text x="60" y="94" text-anchor="middle" font-size="10" fill="#C62828" font-weight="700">RESET</text>

  <!-- ══════ S0 (idle) ══════ -->
  <circle cx="100" cy="180" r="42" fill="#F5F5F5" stroke="#666" stroke-width="2.5"/>
  <text x="100" y="176" text-anchor="middle" font-size="14" font-weight="700" fill="#333">S0</text>
  <text x="100" y="194" text-anchor="middle" font-size="9" fill="#888">o_det=0</text>

  <!-- ══════ S1 (saw 1) ══════ -->
  <circle cx="260" cy="180" r="42" fill="#FFF8E1" stroke="#F9A825" stroke-width="2.5"/>
  <text x="260" y="176" text-anchor="middle" font-size="14" font-weight="700" fill="#B8860B">S1</text>
  <text x="260" y="194" text-anchor="middle" font-size="9" fill="#888">o_det=0</text>

  <!-- ══════ S10 (saw 10) ══════ -->
  <circle cx="420" cy="180" r="42" fill="#FFF8E1" stroke="#F9A825" stroke-width="2.5"/>
  <text x="420" y="176" text-anchor="middle" font-size="14" font-weight="700" fill="#B8860B">S10</text>
  <text x="420" y="194" text-anchor="middle" font-size="9" fill="#888">o_det=0</text>

  <!-- ══════ S101 (saw 101) ══════ -->
  <circle cx="580" cy="180" r="42" fill="#FFF8E1" stroke="#F9A825" stroke-width="2.5"/>
  <text x="580" y="176" text-anchor="middle" font-size="14" font-weight="700" fill="#B8860B">S101</text>
  <text x="580" y="194" text-anchor="middle" font-size="9" fill="#888">o_det=0</text>

  <!-- ══════ SMATCH (MATCH state) ══════ -->
  <circle cx="740" cy="180" r="44" fill="#E8F5E9" stroke="#2E7D32" stroke-width="3"/>
  <circle cx="740" cy="180" r="36" fill="none" stroke="#2E7D32" stroke-width="1.2"/>
  <text x="740" y="172" text-anchor="middle" font-size="13" font-weight="700" fill="#2E7D32">SMATCH</text>
  <text x="740" y="186" text-anchor="middle" font-size="8" fill="#2E7D32" font-style="italic">(saw 1011)</text>
  <text x="740" y="200" text-anchor="middle" font-size="10" fill="#2E7D32" font-weight="700">o_det=1 ✓</text>

  <!-- ═══ S0 → S1 on 1 ═══ -->
  <path d="M 142,180 L 218,180" fill="none" stroke="#333" stroke-width="1.8" marker-end="url(#arr)"/>
  <text x="180" y="172" text-anchor="middle" font-size="11" fill="#333" font-weight="700">1</text>

  <!-- ═══ S1 → S10 on 0 ═══ -->
  <path d="M 302,180 L 378,180" fill="none" stroke="#333" stroke-width="1.8" marker-end="url(#arr)"/>
  <text x="340" y="172" text-anchor="middle" font-size="11" fill="#333" font-weight="700">0</text>

  <!-- ═══ S10 → S101 on 1 ═══ -->
  <path d="M 462,180 L 538,180" fill="none" stroke="#333" stroke-width="1.8" marker-end="url(#arr)"/>
  <text x="500" y="172" text-anchor="middle" font-size="11" fill="#333" font-weight="700">1</text>

  <!-- ═══ S101 → SMATCH on 1 (the MATCH) ═══ -->
  <path d="M 622,180 L 696,180" fill="none" stroke="#2E7D32" stroke-width="2.5" marker-end="url(#arr-g)"/>
  <text x="660" y="172" text-anchor="middle" font-size="11" fill="#2E7D32" font-weight="700">1 ★</text>

  <!-- ═══ S0 self-loop on 0 (below) ═══ -->
  <path d="M 82,218 Q 60,260 100,265 Q 140,260 118,218" fill="none" stroke="#333" stroke-width="1.6" marker-end="url(#arr)"/>
  <text x="100" y="280" text-anchor="middle" font-size="11" fill="#333" font-weight="700">0</text>

  <!-- ═══ S1 self-loop on 1 (above) ═══ -->
  <path d="M 242,142 Q 220,100 260,90 Q 300,100 278,142" fill="none" stroke="#333" stroke-width="1.6" marker-end="url(#arr)"/>
  <text x="260" y="80" text-anchor="middle" font-size="11" fill="#333" font-weight="700">1</text>

  <!-- ═══ S10 → S0 on 0 (long curve below) ═══ -->
  <path d="M 400,222 Q 260,320 122,212" fill="none" stroke="#5A7FA0" stroke-width="1.4" stroke-dasharray="4,3" marker-end="url(#arr)"/>
  <text x="260" y="312" text-anchor="middle" font-size="10" fill="#5A7FA0" font-weight="700">0  (fail — back to start)</text>

  <!-- ═══ S101 → S0 on 0 (longer curve below, lower) ═══ -->
  <path d="M 560,222 Q 320,360 122,222" fill="none" stroke="#5A7FA0" stroke-width="1.4" stroke-dasharray="4,3" marker-end="url(#arr)"/>
  <text x="340" y="352" text-anchor="middle" font-size="10" fill="#5A7FA0" font-weight="700">0  (fail — back to start)</text>

  <!-- ═══ SMATCH → S1 on 1 (overlap, curve above) ═══ -->
  <path d="M 720,140 Q 500,40 278,142" fill="none" stroke="#2E7D32" stroke-width="1.6" stroke-dasharray="4,3" marker-end="url(#arr-g)"/>
  <text x="500" y="40" text-anchor="middle" font-size="10" fill="#2E7D32" font-weight="700">1  (overlap! "...11" → S1)</text>

  <!-- ═══ SMATCH → S10 on 0 (curve below) ═══ -->
  <path d="M 720,218 Q 580,280 442,218" fill="none" stroke="#2E7D32" stroke-width="1.6" stroke-dasharray="4,3" marker-end="url(#arr-g)"/>
  <text x="580" y="270" text-anchor="middle" font-size="10" fill="#2E7D32" font-weight="700">0  ("...10" → S10)</text>

  <!-- Legend -->
  <rect x="20" y="332" width="780" height="36" rx="4" fill="#FAFAFA" stroke="#DDD" stroke-width="1"/>
  <text x="35" y="354" font-size="10" fill="#333">
    <tspan font-weight="700">★ Match cycle</tspan> · double-ring state = output asserted ·
    <tspan fill="#5A7FA0">dashed blue</tspan> = "fail" path back toward start ·
    <tspan fill="#2E7D32">dashed green</tspan> = after-match transitions (note: not always back to S0 — that's the overlap trick)
  </text>
</svg>
