<?xml version="1.0" encoding="UTF-8"?>
<svg xmlns="http://www.w3.org/2000/svg" viewBox="0 0 780 380" font-family="Inter, sans-serif">
  <defs>
    <marker id="arr" markerWidth="8" markerHeight="6" refX="8" refY="3" orient="auto">
      <path d="M0,0 L8,3 L0,6 Z" fill="#333"/>
    </marker>
    <marker id="arr-b" markerWidth="8" markerHeight="6" refX="8" refY="3" orient="auto">
      <path d="M0,0 L8,3 L0,6 Z" fill="#1565C0"/>
    </marker>
  </defs>

  <text x="390" y="24" text-anchor="middle" font-size="16" font-weight="700" fill="#333">3-Always-Block FSM Architecture (Moore)</text>

  <!-- ══════ OUTER FSM BOX ══════ -->
  <rect x="30" y="40" width="720" height="290" rx="12" fill="#FAFAFA" stroke="#999" stroke-width="1.5" stroke-dasharray="6,3"/>
  <text x="50" y="62" font-size="11" fill="#888" font-style="italic">FSM Module</text>

  <!-- ══════ INPUTS ══════ -->
  <text x="10" y="160" font-size="12" fill="#333" font-weight="600" text-anchor="end" transform="rotate(-90, 10, 160)">Inputs</text>
  <line x1="40" y1="190" x2="115" y2="190" stroke="#333" stroke-width="2" marker-end="url(#arr)"/>

  <!-- ══════ BLOCK 2: Next-State Logic ══════ -->
  <rect x="120" y="100" width="190" height="140" rx="8" fill="#FFF8E1" stroke="#F9A825" stroke-width="2"/>
  <text x="215" y="128" text-anchor="middle" font-size="13" font-weight="700" fill="#333">Block 2</text>
  <text x="215" y="148" text-anchor="middle" font-size="11" fill="#555">Next-State Logic</text>
  <text x="215" y="168" text-anchor="middle" font-size="10" fill="#888" font-style="italic">always @(*)</text>
  <text x="215" y="188" text-anchor="middle" font-size="9" fill="#F9A825" font-weight="600">COMBINATIONAL</text>

  <!-- Block 2 annotation -->
  <text x="215" y="210" text-anchor="middle" font-size="8" fill="#C62828">default: r_next = r_state</text>

  <!-- Arrow Block2 → Block1 (next_state) -->
  <line x1="310" y1="170" x2="385" y2="170" stroke="#333" stroke-width="2" marker-end="url(#arr)"/>
  <text x="348" y="160" text-anchor="middle" font-size="9" fill="#555">r_next_state</text>

  <!-- ══════ BLOCK 1: State Register ══════ -->
  <rect x="390" y="120" width="140" height="100" rx="8" fill="#E3F2FD" stroke="#1565C0" stroke-width="2.5"/>
  <text x="460" y="152" text-anchor="middle" font-size="13" font-weight="700" fill="#1565C0">Block 1</text>
  <text x="460" y="172" text-anchor="middle" font-size="11" fill="#555">State Register</text>
  <text x="460" y="190" text-anchor="middle" font-size="10" fill="#888" font-style="italic">always @(posedge clk)</text>
  <text x="460" y="206" text-anchor="middle" font-size="9" fill="#1565C0" font-weight="600">SEQUENTIAL</text>

  <!-- Clock input to Block 1 -->
  <line x1="460" y1="280" x2="460" y2="225" stroke="#1565C0" stroke-width="2" marker-end="url(#arr-b)"/>
  <polygon points="448,220 460,210 472,220" fill="none" stroke="#1565C0" stroke-width="1.5"/>
  <text x="460" y="298" text-anchor="middle" font-size="11" fill="#1565C0" font-weight="600">i_clk</text>

  <!-- Reset to Block 1 -->
  <line x1="420" y1="280" x2="420" y2="225" stroke="#C62828" stroke-width="1.5" marker-end="url(#arr)"/>
  <text x="420" y="298" text-anchor="middle" font-size="9" fill="#C62828">i_reset</text>

  <!-- Feedback: Block1 → Block2 (current state) -->
  <line x1="460" y1="120" x2="460" y2="80" stroke="#333" stroke-width="2"/>
  <line x1="460" y1="80" x2="130" y2="80" stroke="#333" stroke-width="2"/>
  <line x1="130" y1="80" x2="130" y2="95" stroke="#333" stroke-width="2" marker-end="url(#arr)"/>
  <text x="295" y="73" text-anchor="middle" font-size="9" fill="#555" font-weight="600">r_state (feedback)</text>

  <!-- Arrow Block1 → Block3 (current state) -->
  <line x1="530" y1="170" x2="580" y2="170" stroke="#333" stroke-width="2" marker-end="url(#arr)"/>
  <text x="555" y="160" text-anchor="middle" font-size="9" fill="#555">r_state</text>

  <!-- ══════ BLOCK 3: Output Logic ══════ -->
  <rect x="585" y="100" width="150" height="140" rx="8" fill="#E8F5E9" stroke="#2E7D32" stroke-width="2"/>
  <text x="660" y="128" text-anchor="middle" font-size="13" font-weight="700" fill="#2E7D32">Block 3</text>
  <text x="660" y="148" text-anchor="middle" font-size="11" fill="#555">Output Logic</text>
  <text x="660" y="168" text-anchor="middle" font-size="10" fill="#888" font-style="italic">always @(*)</text>
  <text x="660" y="188" text-anchor="middle" font-size="9" fill="#2E7D32" font-weight="600">COMBINATIONAL</text>

  <!-- Moore annotation -->
  <text x="660" y="210" text-anchor="middle" font-size="8" fill="#2E7D32">Moore: f(state) only</text>

  <!-- Output arrow -->
  <line x1="735" y1="170" x2="770" y2="170" stroke="#2E7D32" stroke-width="2.5" marker-end="url(#arr)"/>
  <text x="768" y="160" font-size="12" fill="#2E7D32" font-weight="600">Outputs</text>

  <!-- Mealy dashed arrow (inputs → Block 3) -->
  <line x1="120" y1="235" x2="580" y2="235" stroke="#9C27B0" stroke-width="1.2" stroke-dasharray="5,3"/>
  <line x1="580" y1="235" x2="580" y2="210" stroke="#9C27B0" stroke-width="1.2" stroke-dasharray="5,3" marker-end="url(#arr)"/>
  <text x="350" y="253" text-anchor="middle" font-size="9" fill="#9C27B0" font-style="italic">(Mealy only: inputs also feed Block 3)</text>

  <!-- Legend -->
  <rect x="40" y="340" width="700" height="28" rx="4" fill="#F5F5F5" stroke="#DDD" stroke-width="1"/>
  <rect x="55" y="349" width="14" height="10" rx="2" fill="#E3F2FD" stroke="#1565C0" stroke-width="1"/>
  <text x="75" y="358" font-size="9" fill="#333">Sequential (posedge clk)</text>
  <rect x="215" y="349" width="14" height="10" rx="2" fill="#FFF8E1" stroke="#F9A825" stroke-width="1"/>
  <text x="235" y="358" font-size="9" fill="#333">Combinational (always @(*))</text>
  <rect x="415" y="349" width="14" height="10" rx="2" fill="#E8F5E9" stroke="#2E7D32" stroke-width="1"/>
  <text x="435" y="358" font-size="9" fill="#333">Combinational — outputs</text>
  <line x1="575" y1="354" x2="605" y2="354" stroke="#9C27B0" stroke-width="1.2" stroke-dasharray="5,3"/>
  <text x="615" y="358" font-size="9" fill="#9C27B0">Mealy path (optional)</text>
</svg>
