<?xml version="1.0" encoding="UTF-8"?>
<svg xmlns="http://www.w3.org/2000/svg" viewBox="0 0 760 290" font-family="Inter, sans-serif">
  <defs>
    <marker id="aBlu" markerWidth="8" markerHeight="6" refX="7" refY="3" orient="auto"><path d="M0,0 L8,3 L0,6 Z" fill="#1976D2"/></marker>
    <marker id="aOrg" markerWidth="8" markerHeight="6" refX="7" refY="3" orient="auto"><path d="M0,0 L8,3 L0,6 Z" fill="#F57C00"/></marker>
    <marker id="aGrn" markerWidth="8" markerHeight="6" refX="7" refY="3" orient="auto"><path d="M0,0 L8,3 L0,6 Z" fill="#2E7D32"/></marker>
    <marker id="aAmb" markerWidth="8" markerHeight="6" refX="7" refY="3" orient="auto"><path d="M0,0 L8,3 L0,6 Z" fill="#9A6F00"/></marker>
  </defs>

  <text x="380" y="22" text-anchor="middle" font-size="14" font-weight="700" fill="#333">rom_array — Synchronous Array ROM (infers Block RAM)</text>

  <!-- Module box -->
  <rect x="50" y="50" width="660" height="200" rx="10" fill="#FAFAFA" stroke="#37474F" stroke-width="2" stroke-dasharray="6,4"/>
  <text x="65" y="70" font-size="12" font-weight="700" fill="#37474F">module rom_array #(.ADDR_W, .DATA_W, .INIT_FILE)</text>

  <!-- Memory array -->
  <rect x="220" y="95" width="200" height="100" rx="8" fill="#FFF3E0" stroke="#9A6F00" stroke-width="2"/>
  <text x="320" y="118" text-anchor="middle" font-size="13" font-weight="700" fill="#9A6F00">mem[0 : 2^ADDR_W−1]</text>
  <text x="320" y="135" text-anchor="middle" font-size="10" fill="#666" font-style="italic">$readmemh(INIT_FILE)</text>
  <text x="320" y="155" text-anchor="middle" font-size="10" fill="#555">DATA_W bits × 2^ADDR_W</text>
  <text x="320" y="172" text-anchor="middle" font-size="9" fill="#888">→ SB_RAM40_4K (EBR)</text>

  <!-- Output register (D flip-flop) -->
  <rect x="475" y="115" width="100" height="65" rx="6" fill="#F3E5F5" stroke="#7B1FA2" stroke-width="2"/>
  <text x="525" y="138" text-anchor="middle" font-size="11" font-weight="700" fill="#7B1FA2">o_data</text>
  <text x="525" y="155" text-anchor="middle" font-size="10" fill="#7B1FA2">D-FF reg</text>
  <text x="525" y="170" text-anchor="middle" font-size="9" fill="#888" font-style="italic">posedge i_clk</text>

  <!-- i_clk -->
  <text x="60" y="105" font-size="12" fill="#1976D2" font-weight="700">i_clk</text>
  <line x1="92" y1="100" x2="525" y2="100" stroke="#1976D2" stroke-width="2"/>
  <line x1="525" y1="100" x2="525" y2="115" stroke="#1976D2" stroke-width="2" marker-end="url(#aBlu)"/>
  <line x1="320" y1="100" x2="320" y2="95" stroke="#1976D2" stroke-width="2" marker-end="url(#aBlu)"/>

  <!-- i_addr -->
  <text x="60" y="148" font-size="12" fill="#F57C00" font-weight="700">i_addr</text>
  <text x="60" y="160" font-size="10" fill="#F57C00">[ADDR_W−1:0]</text>
  <line x1="152" y1="143" x2="220" y2="143" stroke="#F57C00" stroke-width="2" marker-end="url(#aOrg)"/>

  <!-- mem → o_data reg -->
  <line x1="420" y1="147" x2="475" y2="147" stroke="#9A6F00" stroke-width="2" marker-end="url(#aAmb)"/>
  <text x="447" y="140" text-anchor="middle" font-size="9" fill="#9A6F00" font-style="italic">mem[i_addr]</text>

  <!-- o_data out -->
  <line x1="575" y1="147" x2="650" y2="147" stroke="#2E7D32" stroke-width="2" marker-end="url(#aGrn)"/>
  <text x="657" y="151" font-size="12" fill="#2E7D32" font-weight="700">o_data</text>
  <text x="657" y="163" font-size="10" fill="#2E7D32">[DATA_W−1:0]</text>

  <!-- 1-cycle latency note -->
  <rect x="200" y="210" width="360" height="28" rx="4" fill="#FFF8E1" stroke="#F9A825" stroke-width="1"/>
  <text x="380" y="228" text-anchor="middle" font-size="10" fill="#333" font-weight="600">Synchronous read: o_data appears 1 cycle after i_addr ↑ triggers BRAM inference</text>
</svg>
