<?xml version="1.0" encoding="UTF-8"?>
<svg xmlns="http://www.w3.org/2000/svg" viewBox="0 0 820 320" font-family="Inter, sans-serif">
  <defs>
    <marker id="aOrg" markerWidth="8" markerHeight="6" refX="7" refY="3" orient="auto"><path d="M0,0 L8,3 L0,6 Z" fill="#F57C00"/></marker>
    <marker id="aGrn" markerWidth="8" markerHeight="6" refX="7" refY="3" orient="auto"><path d="M0,0 L8,3 L0,6 Z" fill="#2E7D32"/></marker>
    <marker id="aAmb" markerWidth="8" markerHeight="6" refX="7" refY="3" orient="auto"><path d="M0,0 L8,3 L0,6 Z" fill="#9A6F00"/></marker>
    <marker id="aMag" markerWidth="8" markerHeight="6" refX="7" refY="3" orient="auto"><path d="M0,0 L8,3 L0,6 Z" fill="#C2185B"/></marker>
  </defs>

  <text x="410" y="22" text-anchor="middle" font-size="14" font-weight="700" fill="#333">Read-Before-Write vs. Write-First — Same Bits, Different Mux</text>

  <!-- Left: Read-Before-Write -->
  <rect x="20" y="40" width="385" height="260" rx="10" fill="#E8F5E9" stroke="#2E7D32" stroke-width="2"/>
  <text x="213" y="62" text-anchor="middle" font-size="12" font-weight="700" fill="#2E7D32">Read-Before-Write (EBR native)</text>

  <!-- mem block (RBW) -->
  <rect x="115" y="90" width="195" height="115" rx="8" fill="#FFF3E0" stroke="#9A6F00" stroke-width="2"/>
  <text x="213" y="112" text-anchor="middle" font-size="12" font-weight="700" fill="#9A6F00">mem[ ]</text>
  <text x="213" y="135" text-anchor="middle" font-size="10" fill="#7B1FA2">if (we) mem[addr] ← din</text>
  <text x="213" y="155" text-anchor="middle" font-size="10" fill="#7B1FA2">dout ← mem[addr]</text>
  <text x="213" y="180" text-anchor="middle" font-size="9" fill="#888" font-style="italic">reads OLD value during write</text>

  <!-- ports -->
  <text x="30" y="105" font-size="11" fill="#C2185B" font-weight="700">we</text>
  <line x1="55" y1="100" x2="115" y2="100" stroke="#C2185B" stroke-width="2" marker-end="url(#aMag)"/>
  <text x="30" y="135" font-size="11" fill="#F57C00" font-weight="700">addr</text>
  <line x1="64" y1="130" x2="115" y2="130" stroke="#F57C00" stroke-width="2" marker-end="url(#aOrg)"/>
  <text x="30" y="165" font-size="11" fill="#F57C00" font-weight="700">din</text>
  <line x1="55" y1="160" x2="115" y2="160" stroke="#F57C00" stroke-width="2" marker-end="url(#aOrg)"/>
  <line x1="310" y1="155" x2="385" y2="155" stroke="#2E7D32" stroke-width="2" marker-end="url(#aGrn)"/>
  <text x="338" y="148" font-size="10" fill="#2E7D32" font-weight="700">dout</text>

  <text x="213" y="240" text-anchor="middle" font-size="10" fill="#2E7D32" font-weight="700">Direct mem→FF · 0 extra LUTs</text>
  <text x="213" y="258" text-anchor="middle" font-size="9" fill="#555" font-style="italic">Cheapest, default behavior</text>
  <text x="213" y="278" text-anchor="middle" font-size="9" fill="#888" font-style="italic">→ SB_RAM40_4KNR</text>

  <!-- Right: Write-First -->
  <rect x="425" y="40" width="385" height="260" rx="10" fill="#FFF8E1" stroke="#F9A825" stroke-width="2"/>
  <text x="618" y="62" text-anchor="middle" font-size="12" font-weight="700" fill="#F9A825">Write-First (Bypass Mux)</text>

  <!-- mem block (WF) -->
  <rect x="500" y="90" width="170" height="115" rx="8" fill="#FFF3E0" stroke="#9A6F00" stroke-width="2"/>
  <text x="585" y="112" text-anchor="middle" font-size="12" font-weight="700" fill="#9A6F00">mem[ ]</text>
  <text x="585" y="135" text-anchor="middle" font-size="10" fill="#7B1FA2">if (we) mem[addr] ← din</text>
  <text x="585" y="160" text-anchor="middle" font-size="9" fill="#888" font-style="italic">reads OLD value</text>

  <!-- Bypass mux -->
  <polygon points="700,108 740,128 740,170 700,190" fill="#E1F5FE" stroke="#0277BD" stroke-width="2"/>
  <text x="720" y="146" text-anchor="middle" font-size="10" font-weight="700" fill="#0277BD">MUX</text>
  <text x="745" y="120" font-size="8" fill="#888" font-style="italic">1=we</text>
  <text x="745" y="180" font-size="8" fill="#888" font-style="italic">0=else</text>

  <text x="440" y="105" font-size="11" fill="#C2185B" font-weight="700">we</text>
  <line x1="465" y1="100" x2="500" y2="100" stroke="#C2185B" stroke-width="2" marker-end="url(#aMag)"/>
  <line x1="475" y1="100" x2="475" y2="195" stroke="#C2185B" stroke-width="1.5"/>
  <line x1="475" y1="195" x2="715" y2="195" stroke="#C2185B" stroke-width="1.5"/>
  <line x1="715" y1="195" x2="715" y2="190" stroke="#C2185B" stroke-width="1.5" marker-end="url(#aMag)"/>

  <text x="440" y="135" font-size="11" fill="#F57C00" font-weight="700">addr</text>
  <line x1="474" y1="130" x2="500" y2="130" stroke="#F57C00" stroke-width="2" marker-end="url(#aOrg)"/>
  <text x="440" y="165" font-size="11" fill="#F57C00" font-weight="700">din</text>
  <line x1="465" y1="160" x2="500" y2="160" stroke="#F57C00" stroke-width="2" marker-end="url(#aOrg)"/>

  <!-- mem → mux (low path) -->
  <line x1="670" y1="160" x2="700" y2="160" stroke="#9A6F00" stroke-width="2" marker-end="url(#aAmb)"/>
  <!-- din → mux (high path) -->
  <line x1="490" y1="160" x2="490" y2="120" stroke="#F57C00" stroke-width="1.5" stroke-dasharray="3,2"/>
  <line x1="490" y1="120" x2="700" y2="120" stroke="#F57C00" stroke-width="1.5" stroke-dasharray="3,2" marker-end="url(#aOrg)"/>

  <!-- mux → dout -->
  <line x1="740" y1="149" x2="795" y2="149" stroke="#2E7D32" stroke-width="2" marker-end="url(#aGrn)"/>
  <text x="765" y="142" font-size="10" fill="#2E7D32" font-weight="700">dout</text>

  <text x="618" y="240" text-anchor="middle" font-size="10" fill="#9A6F00" font-weight="700">Extra mux + extra LUTs per bit</text>
  <text x="618" y="258" text-anchor="middle" font-size="9" fill="#555" font-style="italic">Use only if you need just-written value</text>
  <text x="618" y="278" text-anchor="middle" font-size="9" fill="#888" font-style="italic">Costs muxing in/around the EBR</text>
</svg>
