<?xml version="1.0" encoding="UTF-8"?>
<svg xmlns="http://www.w3.org/2000/svg" viewBox="0 0 900 360" font-family="Inter, sans-serif">
  <defs>
    <marker id="aBlu" markerWidth="8" markerHeight="6" refX="7" refY="3" orient="auto"><path d="M0,0 L8,3 L0,6 Z" fill="#1976D2"/></marker>
    <marker id="aOrg" markerWidth="8" markerHeight="6" refX="7" refY="3" orient="auto"><path d="M0,0 L8,3 L0,6 Z" fill="#F57C00"/></marker>
    <marker id="aGrn" markerWidth="8" markerHeight="6" refX="7" refY="3" orient="auto"><path d="M0,0 L8,3 L0,6 Z" fill="#2E7D32"/></marker>
    <marker id="aMag" markerWidth="8" markerHeight="6" refX="7" refY="3" orient="auto"><path d="M0,0 L8,3 L0,6 Z" fill="#C2185B"/></marker>
    <marker id="aAmb" markerWidth="8" markerHeight="6" refX="7" refY="3" orient="auto"><path d="M0,0 L8,3 L0,6 Z" fill="#9A6F00"/></marker>
  </defs>

  <text x="450" y="22" text-anchor="middle" font-size="14" font-weight="700" fill="#333">echo_top — uart_rx + fifo + uart_tx (Integration Wrapper)</text>

  <!-- outer module -->
  <rect x="30" y="45" width="840" height="290" rx="10" fill="#FAFAFA" stroke="#37474F" stroke-width="2" stroke-dasharray="6,4"/>
  <text x="45" y="65" font-size="12" font-weight="700" fill="#37474F">module echo_top — ~15 cells of wrapper logic</text>

  <!-- uart_rx submodule -->
  <rect x="100" y="100" width="180" height="120" rx="8" fill="#FCE4EC" stroke="#C2185B" stroke-width="2"/>
  <text x="190" y="124" text-anchor="middle" font-size="12" font-weight="700" fill="#C2185B">u_uart_rx</text>
  <text x="190" y="140" text-anchor="middle" font-size="9" fill="#888" font-style="italic">(uart_rx, ~65 cells)</text>
  <text x="115" y="162" font-size="9" fill="#F57C00" font-weight="700">.i_rx</text>
  <text x="115" y="178" font-size="9" fill="#1976D2" font-weight="700">.i_clk</text>
  <text x="265" y="162" font-size="9" fill="#2E7D32" font-weight="700" text-anchor="end">.o_data[7:0]</text>
  <text x="265" y="178" font-size="9" fill="#2E7D32" font-weight="700" text-anchor="end">.o_valid</text>

  <!-- FIFO -->
  <rect x="350" y="100" width="180" height="120" rx="8" fill="#FCE4EC" stroke="#C2185B" stroke-width="2"/>
  <text x="440" y="124" text-anchor="middle" font-size="12" font-weight="700" fill="#C2185B">u_rx_fifo</text>
  <text x="440" y="140" text-anchor="middle" font-size="9" fill="#888" font-style="italic">(fifo 8×8, ~80 cells)</text>
  <text x="365" y="162" font-size="9" fill="#F57C00" font-weight="700">.i_wr</text>
  <text x="365" y="178" font-size="9" fill="#F57C00" font-weight="700">.i_din</text>
  <text x="365" y="194" font-size="9" fill="#F57C00" font-weight="700">.i_rd</text>
  <text x="515" y="162" font-size="9" fill="#2E7D32" font-weight="700" text-anchor="end">.o_dout</text>
  <text x="515" y="178" font-size="9" fill="#2E7D32" font-weight="700" text-anchor="end">.o_empty</text>
  <text x="515" y="194" font-size="9" fill="#2E7D32" font-weight="700" text-anchor="end">.o_full</text>

  <!-- uart_tx -->
  <rect x="600" y="100" width="180" height="120" rx="8" fill="#FCE4EC" stroke="#C2185B" stroke-width="2"/>
  <text x="690" y="124" text-anchor="middle" font-size="12" font-weight="700" fill="#C2185B">u_uart_tx</text>
  <text x="690" y="140" text-anchor="middle" font-size="9" fill="#888" font-style="italic">(uart_tx, ~32 cells)</text>
  <text x="615" y="162" font-size="9" fill="#F57C00" font-weight="700">.i_data</text>
  <text x="615" y="178" font-size="9" fill="#F57C00" font-weight="700">.i_valid</text>
  <text x="765" y="162" font-size="9" fill="#2E7D32" font-weight="700" text-anchor="end">.o_busy</text>
  <text x="765" y="178" font-size="9" fill="#2E7D32" font-weight="700" text-anchor="end">.o_tx</text>

  <!-- top-level signals -->
  <text x="40" y="170" font-size="12" fill="#F57C00" font-weight="700">i_rx</text>
  <line x1="70" y1="165" x2="100" y2="165" stroke="#F57C00" stroke-width="2" marker-end="url(#aOrg)"/>

  <text x="40" y="80" font-size="12" fill="#1976D2" font-weight="700">i_clk</text>
  <line x1="76" y1="75" x2="780" y2="75" stroke="#1976D2" stroke-width="2"/>
  <line x1="190" y1="75" x2="190" y2="100" stroke="#1976D2" stroke-width="1.5" marker-end="url(#aBlu)"/>
  <line x1="440" y1="75" x2="440" y2="100" stroke="#1976D2" stroke-width="1.5" marker-end="url(#aBlu)"/>
  <line x1="690" y1="75" x2="690" y2="100" stroke="#1976D2" stroke-width="1.5" marker-end="url(#aBlu)"/>

  <!-- rx data → fifo din -->
  <line x1="280" y1="162" x2="350" y2="178" stroke="#9A6F00" stroke-width="2" marker-end="url(#aAmb)"/>
  <text x="290" y="155" font-size="9" fill="#9A6F00" font-style="italic">byte</text>

  <!-- rx valid → fifo wr -->
  <line x1="280" y1="178" x2="350" y2="162" stroke="#C2185B" stroke-width="1.5" marker-end="url(#aMag)"/>
  <text x="295" y="190" font-size="9" fill="#C2185B" font-style="italic">valid → write</text>

  <!-- fifo dout → tx data -->
  <line x1="530" y1="162" x2="600" y2="162" stroke="#9A6F00" stroke-width="2" marker-end="url(#aAmb)"/>

  <!-- fifo !empty AND !tx_busy → fifo.rd + tx.valid -->
  <rect x="555" y="240" width="120" height="40" rx="6" fill="#FFF8E1" stroke="#F9A825" stroke-width="1.5"/>
  <text x="615" y="258" text-anchor="middle" font-size="9" font-weight="700" fill="#9A6F00">handshake AND</text>
  <text x="615" y="272" text-anchor="middle" font-size="8" fill="#9A6F00">!empty &amp; !busy</text>

  <line x1="450" y1="220" x2="450" y2="260" stroke="#2E7D32" stroke-width="1.5"/>
  <line x1="450" y1="260" x2="555" y2="260" stroke="#2E7D32" stroke-width="1.5" marker-end="url(#aGrn)"/>
  <text x="448" y="240" font-size="8" fill="#2E7D32" font-style="italic">!empty</text>

  <line x1="780" y1="178" x2="800" y2="178" stroke="#2E7D32" stroke-width="1.5"/>
  <line x1="800" y1="178" x2="800" y2="260" stroke="#2E7D32" stroke-width="1.5"/>
  <line x1="800" y1="260" x2="675" y2="260" stroke="#2E7D32" stroke-width="1.5" marker-end="url(#aGrn)"/>
  <text x="803" y="235" font-size="8" fill="#2E7D32" font-style="italic">!busy</text>

  <!-- AND result → fifo rd & tx valid -->
  <line x1="615" y1="240" x2="615" y2="200" stroke="#C2185B" stroke-width="1.5" marker-end="url(#aMag)"/>
  <text x="618" y="225" font-size="8" fill="#C2185B" font-weight="700">tx.valid</text>

  <line x1="555" y1="250" x2="500" y2="250" stroke="#C2185B" stroke-width="1.5"/>
  <line x1="500" y1="250" x2="500" y2="200" stroke="#C2185B" stroke-width="1.5" marker-end="url(#aMag)"/>
  <text x="463" y="240" font-size="8" fill="#C2185B" font-weight="700">fifo.rd</text>

  <!-- tx out -->
  <line x1="780" y1="178" x2="780" y2="178" stroke="#2E7D32" stroke-width="2"/>
  <line x1="800" y1="178" x2="848" y2="178" stroke="#2E7D32" stroke-width="2" marker-end="url(#aGrn)"/>
  <text x="855" y="183" font-size="12" fill="#2E7D32" font-weight="700">o_tx</text>

  <!-- footer -->
  <text x="450" y="320" text-anchor="middle" font-size="10" fill="#555" font-style="italic">Wrapper (~15 cells) wires three IP blocks; backpressure via fifo.full enforces flow control</text>
</svg>
