<?xml version="1.0" encoding="UTF-8"?>
<svg xmlns="http://www.w3.org/2000/svg" viewBox="0 0 880 320" font-family="Inter, sans-serif">
  <defs>
    <marker id="aBlu" markerWidth="8" markerHeight="6" refX="7" refY="3" orient="auto"><path d="M0,0 L8,3 L0,6 Z" fill="#1976D2"/></marker>
    <marker id="aOrg" markerWidth="8" markerHeight="6" refX="7" refY="3" orient="auto"><path d="M0,0 L8,3 L0,6 Z" fill="#F57C00"/></marker>
    <marker id="aGrn" markerWidth="8" markerHeight="6" refX="7" refY="3" orient="auto"><path d="M0,0 L8,3 L0,6 Z" fill="#2E7D32"/></marker>
    <marker id="aPur" markerWidth="8" markerHeight="6" refX="7" refY="3" orient="auto"><path d="M0,0 L8,3 L0,6 Z" fill="#7B1FA2"/></marker>
    <marker id="aTeal" markerWidth="8" markerHeight="6" refX="7" refY="3" orient="auto"><path d="M0,0 L8,3 L0,6 Z" fill="#00838F"/></marker>
  </defs>

  <text x="440" y="22" text-anchor="middle" font-size="14" font-weight="700" fill="#333">S_DATA — Sample at slot 7, Shift into r_data, Repeat 8 Times</text>

  <!-- module box -->
  <rect x="30" y="45" width="820" height="240" rx="10" fill="#FAFAFA" stroke="#37474F" stroke-width="2" stroke-dasharray="6,4"/>

  <!-- r_slot counter -->
  <rect x="140" y="80" width="170" height="80" rx="8" fill="#F3E5F5" stroke="#7B1FA2" stroke-width="2"/>
  <text x="225" y="102" text-anchor="middle" font-size="12" font-weight="700" fill="#7B1FA2">r_slot (4 bits)</text>
  <text x="225" y="120" text-anchor="middle" font-size="9" fill="#888">advances on r_osx_tick</text>
  <text x="225" y="135" text-anchor="middle" font-size="9" fill="#888">0..15 within a bit</text>
  <text x="225" y="150" text-anchor="middle" font-size="9" fill="#888" font-style="italic">wraps at 15 → new bit</text>

  <!-- compare slot==7 -->
  <rect x="350" y="80" width="110" height="38" rx="6" fill="#E1F5FE" stroke="#0277BD" stroke-width="1.5"/>
  <text x="405" y="96" text-anchor="middle" font-size="10" font-weight="700" fill="#0277BD">slot == 7?</text>
  <text x="405" y="110" text-anchor="middle" font-size="8" fill="#0277BD">(mid-bit)</text>

  <!-- shift register r_data -->
  <rect x="500" y="80" width="190" height="120" rx="8" fill="#FFF3E0" stroke="#9A6F00" stroke-width="2"/>
  <text x="595" y="105" text-anchor="middle" font-size="13" font-weight="700" fill="#9A6F00">r_data[7:0]</text>
  <text x="595" y="122" text-anchor="middle" font-size="10" fill="#555">SIPO shift register</text>
  <text x="595" y="142" text-anchor="middle" font-size="10" fill="#7B1FA2">r_data ← { rx_sync,</text>
  <text x="595" y="158" text-anchor="middle" font-size="10" fill="#7B1FA2">           r_data[7:1] }</text>
  <text x="595" y="180" text-anchor="middle" font-size="9" fill="#888" font-style="italic">LSB-first, new bit → MSB</text>

  <!-- r_bit -->
  <rect x="140" y="190" width="170" height="70" rx="8" fill="#F3E5F5" stroke="#7B1FA2" stroke-width="2"/>
  <text x="225" y="212" text-anchor="middle" font-size="12" font-weight="700" fill="#7B1FA2">r_bit (3 bits)</text>
  <text x="225" y="228" text-anchor="middle" font-size="9" fill="#888">data-bit index 0..7</text>
  <text x="225" y="244" text-anchor="middle" font-size="9" fill="#888" font-style="italic">+1 per slot==15 wrap</text>

  <!-- inputs -->
  <text x="40" y="100" font-size="12" fill="#1976D2" font-weight="700">i_clk</text>
  <line x1="76" y1="95" x2="820" y2="95" stroke="#1976D2" stroke-width="2"/>
  <line x1="225" y1="95" x2="225" y2="80" stroke="#1976D2" stroke-width="1.5" marker-end="url(#aBlu)"/>
  <line x1="595" y1="95" x2="595" y2="80" stroke="#1976D2" stroke-width="1.5" marker-end="url(#aBlu)"/>
  <line x1="225" y1="180" x2="225" y2="190" stroke="#1976D2" stroke-width="1.5" marker-end="url(#aBlu)"/>

  <text x="40" y="138" font-size="12" fill="#00838F" font-weight="700">r_osx_tick</text>
  <line x1="116" y1="133" x2="140" y2="133" stroke="#00838F" stroke-width="2" marker-end="url(#aTeal)"/>

  <text x="40" y="178" font-size="12" fill="#F57C00" font-weight="700">r_rx_sync</text>
  <line x1="115" y1="173" x2="490" y2="173" stroke="#F57C00" stroke-width="2"/>
  <line x1="490" y1="173" x2="500" y2="173" stroke="#F57C00" stroke-width="2" marker-end="url(#aOrg)"/>
  <text x="300" y="166" font-size="9" fill="#F57C00" font-style="italic">2-FF synchronized RX line</text>

  <!-- slot → compare -->
  <line x1="310" y1="100" x2="350" y2="100" stroke="#7B1FA2" stroke-width="1.5" marker-end="url(#aPur)"/>

  <!-- compare → r_data sample enable -->
  <line x1="460" y1="100" x2="500" y2="100" stroke="#00838F" stroke-width="1.5" marker-end="url(#aTeal)"/>
  <text x="470" y="93" font-size="8" fill="#00838F" font-weight="700">sample-en</text>

  <!-- r_bit feedback -->
  <line x1="310" y1="225" x2="345" y2="225" stroke="#7B1FA2" stroke-width="1.5"/>
  <line x1="345" y1="225" x2="345" y2="200" stroke="#7B1FA2" stroke-width="1.5" marker-end="url(#aPur)"/>

  <!-- r_data → output -->
  <line x1="690" y1="140" x2="780" y2="140" stroke="#2E7D32" stroke-width="2" marker-end="url(#aGrn)"/>
  <text x="788" y="144" font-size="12" fill="#2E7D32" font-weight="700">o_data[7:0]</text>

  <!-- footer -->
  <text x="440" y="305" text-anchor="middle" font-size="10" fill="#555" font-style="italic">After 8 bits sampled (r_bit==7 and slot==15): FSM advances S_DATA → S_STOP</text>
</svg>
