<?xml version="1.0" encoding="UTF-8"?>
<svg xmlns="http://www.w3.org/2000/svg" viewBox="0 0 760 240" font-family="Inter, sans-serif">
  <defs>
    <marker id="aBlu" markerWidth="8" markerHeight="6" refX="7" refY="3" orient="auto"><path d="M0,0 L8,3 L0,6 Z" fill="#1976D2"/></marker>
    <marker id="aGrn" markerWidth="8" markerHeight="6" refX="7" refY="3" orient="auto"><path d="M0,0 L8,3 L0,6 Z" fill="#2E7D32"/></marker>
    <marker id="aPur" markerWidth="8" markerHeight="6" refX="7" refY="3" orient="auto"><path d="M0,0 L8,3 L0,6 Z" fill="#7B1FA2"/></marker>
    <marker id="aTeal" markerWidth="8" markerHeight="6" refX="7" refY="3" orient="auto"><path d="M0,0 L8,3 L0,6 Z" fill="#00838F"/></marker>
  </defs>

  <text x="380" y="22" text-anchor="middle" font-size="14" font-weight="700" fill="#333">Oversample Tick Generator — Inner Counter, 1-Cycle Pulse</text>

  <!-- module box -->
  <rect x="40" y="45" width="680" height="160" rx="10" fill="#FAFAFA" stroke="#37474F" stroke-width="2" stroke-dasharray="6,4"/>

  <!-- r_osx_cnt -->
  <rect x="200" y="80" width="180" height="90" rx="8" fill="#F3E5F5" stroke="#7B1FA2" stroke-width="2"/>
  <text x="290" y="105" text-anchor="middle" font-size="13" font-weight="700" fill="#7B1FA2">r_osx_cnt</text>
  <text x="290" y="122" text-anchor="middle" font-size="10" fill="#555">$clog2(CLKS_PER_OSX) bits</text>
  <text x="290" y="140" text-anchor="middle" font-size="10" fill="#888">cycle 0 .. CLKS_PER_OSX−1</text>
  <text x="290" y="158" text-anchor="middle" font-size="9" fill="#888" font-style="italic">+1 every clk; wrap at MAX</text>

  <!-- compare -->
  <rect x="420" y="80" width="100" height="40" rx="6" fill="#E1F5FE" stroke="#0277BD" stroke-width="1.5"/>
  <text x="470" y="98" text-anchor="middle" font-size="10" font-weight="700" fill="#0277BD">==</text>
  <text x="470" y="112" text-anchor="middle" font-size="8" fill="#0277BD">CLKS_PER_OSX−1</text>

  <!-- r_osx_tick reg -->
  <rect x="555" y="80" width="130" height="60" rx="8" fill="#F3E5F5" stroke="#7B1FA2" stroke-width="2"/>
  <text x="620" y="103" text-anchor="middle" font-size="12" font-weight="700" fill="#7B1FA2">r_osx_tick</text>
  <text x="620" y="120" text-anchor="middle" font-size="9" fill="#888">1-bit pulse reg</text>
  <text x="620" y="134" text-anchor="middle" font-size="9" fill="#888" font-style="italic">high for 1 cycle</text>

  <!-- inputs -->
  <text x="50" y="100" font-size="12" fill="#1976D2" font-weight="700">i_clk</text>
  <line x1="86" y1="95" x2="700" y2="95" stroke="#1976D2" stroke-width="2"/>
  <line x1="290" y1="95" x2="290" y2="80" stroke="#1976D2" stroke-width="1.5" marker-end="url(#aBlu)"/>
  <line x1="620" y1="95" x2="620" y2="80" stroke="#1976D2" stroke-width="1.5" marker-end="url(#aBlu)"/>

  <!-- cnt → compare -->
  <line x1="380" y1="100" x2="420" y2="100" stroke="#7B1FA2" stroke-width="1.5" marker-end="url(#aPur)"/>

  <!-- compare → tick reg -->
  <line x1="520" y1="100" x2="555" y2="100" stroke="#00838F" stroke-width="1.5" marker-end="url(#aTeal)"/>

  <!-- tick fanout -->
  <line x1="685" y1="110" x2="730" y2="110" stroke="#00838F" stroke-width="2" marker-end="url(#aTeal)"/>
  <text x="740" y="114" font-size="11" fill="#00838F" font-weight="700">r_osx_tick</text>
  <text x="740" y="126" font-size="9" fill="#888">to RX FSM</text>

  <!-- self feedback cnt -->
  <path d="M 380 145 Q 460 220 200 145" fill="none" stroke="#7B1FA2" stroke-width="1.2" stroke-dasharray="4,3" marker-end="url(#aPur)"/>
  <text x="290" y="190" text-anchor="middle" font-size="9" fill="#7B1FA2" font-style="italic">+1 / wrap to 0 at MAX</text>

  <!-- footer -->
  <text x="380" y="225" text-anchor="middle" font-size="10" fill="#555" font-style="italic">Inner level of the two-counter hierarchy: divides clk into 16 ticks per bit (16× oversampling)</text>
</svg>
