<?xml version="1.0" encoding="UTF-8"?>
<svg xmlns="http://www.w3.org/2000/svg" viewBox="0 0 920 420" font-family="Inter, sans-serif">
  <defs>
    <marker id="aBlu" markerWidth="8" markerHeight="6" refX="7" refY="3" orient="auto"><path d="M0,0 L8,3 L0,6 Z" fill="#1976D2"/></marker>
    <marker id="aRed" markerWidth="8" markerHeight="6" refX="7" refY="3" orient="auto"><path d="M0,0 L8,3 L0,6 Z" fill="#D32F2F"/></marker>
    <marker id="aOrg" markerWidth="8" markerHeight="6" refX="7" refY="3" orient="auto"><path d="M0,0 L8,3 L0,6 Z" fill="#F57C00"/></marker>
    <marker id="aGrn" markerWidth="8" markerHeight="6" refX="7" refY="3" orient="auto"><path d="M0,0 L8,3 L0,6 Z" fill="#2E7D32"/></marker>
    <marker id="aPur" markerWidth="8" markerHeight="6" refX="7" refY="3" orient="auto"><path d="M0,0 L8,3 L0,6 Z" fill="#7B1FA2"/></marker>
    <marker id="aTeal" markerWidth="8" markerHeight="6" refX="7" refY="3" orient="auto"><path d="M0,0 L8,3 L0,6 Z" fill="#00838F"/></marker>
    <marker id="aMag" markerWidth="8" markerHeight="6" refX="7" refY="3" orient="auto"><path d="M0,0 L8,3 L0,6 Z" fill="#C2185B"/></marker>
  </defs>

  <text x="460" y="22" text-anchor="middle" font-size="14" font-weight="700" fill="#333">uart_tx — Complete RTL: r_state · r_baud · r_bit · r_shift</text>

  <!-- module box -->
  <rect x="30" y="45" width="860" height="345" rx="10" fill="#FAFAFA" stroke="#37474F" stroke-width="2" stroke-dasharray="6,4"/>
  <text x="45" y="65" font-size="12" font-weight="700" fill="#37474F">module uart_tx #(.CLKS_PER_BIT = 217)</text>

  <!-- FSM block (r_state) -->
  <rect x="200" y="85" width="180" height="115" rx="8" fill="#F3E5F5" stroke="#7B1FA2" stroke-width="2"/>
  <text x="290" y="108" text-anchor="middle" font-size="13" font-weight="700" fill="#7B1FA2">r_state (2 bits)</text>
  <text x="290" y="126" text-anchor="middle" font-size="10" fill="#555">S_IDLE → S_START</text>
  <text x="290" y="142" text-anchor="middle" font-size="10" fill="#555">→ S_DATA(×8) → S_STOP</text>
  <text x="290" y="162" text-anchor="middle" font-size="9" fill="#888" font-style="italic">control FSM</text>
  <text x="290" y="180" text-anchor="middle" font-size="9" fill="#7B1FA2" font-weight="700">always @(posedge i_clk)</text>

  <!-- r_baud counter -->
  <rect x="420" y="85" width="180" height="80" rx="8" fill="#F3E5F5" stroke="#7B1FA2" stroke-width="2"/>
  <text x="510" y="108" text-anchor="middle" font-size="12" font-weight="700" fill="#7B1FA2">r_baud</text>
  <text x="510" y="125" text-anchor="middle" font-size="10" fill="#555">CNT_W bits</text>
  <text x="510" y="142" text-anchor="middle" font-size="9" fill="#888">counts 0..CLKS_PER_BIT−1</text>
  <text x="510" y="158" text-anchor="middle" font-size="9" fill="#888" font-style="italic">→ wraps every bit time</text>

  <!-- r_bit counter -->
  <rect x="420" y="180" width="180" height="60" rx="8" fill="#F3E5F5" stroke="#7B1FA2" stroke-width="2"/>
  <text x="510" y="202" text-anchor="middle" font-size="12" font-weight="700" fill="#7B1FA2">r_bit (3 bits)</text>
  <text x="510" y="220" text-anchor="middle" font-size="9" fill="#888">data-bit index 0..7</text>
  <text x="510" y="234" text-anchor="middle" font-size="9" fill="#888" font-style="italic">advances per baud wrap</text>

  <!-- r_shift -->
  <rect x="640" y="85" width="180" height="115" rx="8" fill="#FFF3E0" stroke="#9A6F00" stroke-width="2"/>
  <text x="730" y="108" text-anchor="middle" font-size="13" font-weight="700" fill="#9A6F00">r_shift[7:0]</text>
  <text x="730" y="126" text-anchor="middle" font-size="10" fill="#555">PISO shift register</text>
  <text x="730" y="146" text-anchor="middle" font-size="10" fill="#7B1FA2">load: r_shift ← i_data</text>
  <text x="730" y="162" text-anchor="middle" font-size="10" fill="#7B1FA2">shift: {1'b1, r_shift[7:1]}</text>
  <text x="730" y="182" text-anchor="middle" font-size="9" fill="#888" font-style="italic">LSB → o_tx every bit time</text>

  <!-- inputs — i_clk bus lifted above the register rects so it does not pass through them -->
  <text x="40" y="83" font-size="12" fill="#1976D2" font-weight="700">i_clk</text>
  <line x1="76" y1="78" x2="870" y2="78" stroke="#1976D2" stroke-width="2"/>
  <line x1="350" y1="78" x2="350" y2="85" stroke="#1976D2" stroke-width="1.5" marker-end="url(#aBlu)"/>
  <line x1="540" y1="78" x2="540" y2="85" stroke="#1976D2" stroke-width="1.5" marker-end="url(#aBlu)"/>
  <line x1="730" y1="78" x2="730" y2="85" stroke="#1976D2" stroke-width="1.5" marker-end="url(#aBlu)"/>
  <line x1="410" y1="78" x2="410" y2="210" stroke="#1976D2" stroke-width="1.5"/>
  <line x1="410" y1="210" x2="420" y2="210" stroke="#1976D2" stroke-width="1.5" marker-end="url(#aBlu)"/>

  <text x="40" y="140" font-size="12" fill="#D32F2F" font-weight="700">i_reset</text>
  <line x1="88" y1="135" x2="200" y2="135" stroke="#D32F2F" stroke-width="2" marker-end="url(#aRed)"/>

  <text x="40" y="175" font-size="12" fill="#C2185B" font-weight="700">i_valid</text>
  <line x1="80" y1="170" x2="200" y2="170" stroke="#C2185B" stroke-width="2" marker-end="url(#aMag)"/>

  <text x="40" y="220" font-size="12" fill="#F57C00" font-weight="700">i_data[7:0]</text>
  <line x1="125" y1="215" x2="170" y2="215" stroke="#F57C00" stroke-width="2"/>
  <line x1="170" y1="215" x2="170" y2="155" stroke="#F57C00" stroke-width="2"/>
  <line x1="170" y1="155" x2="640" y2="143" stroke="#F57C00" stroke-width="2" marker-end="url(#aOrg)"/>
  <text x="380" y="148" font-size="9" fill="#F57C00" font-style="italic">load r_shift on S_IDLE+i_valid</text>

  <!-- state → all -->
  <line x1="380" y1="120" x2="420" y2="120" stroke="#7B1FA2" stroke-width="1.5" marker-end="url(#aPur)"/>
  <text x="395" y="113" font-size="8" fill="#7B1FA2">r_state</text>
  <line x1="380" y1="200" x2="420" y2="200" stroke="#7B1FA2" stroke-width="1.5" marker-end="url(#aPur)"/>

  <!-- r_baud feedback to FSM (tick) -->
  <line x1="600" y1="125" x2="620" y2="125" stroke="#00838F" stroke-width="1.5"/>
  <line x1="620" y1="125" x2="620" y2="68" stroke="#00838F" stroke-width="1.5"/>
  <line x1="620" y1="68" x2="290" y2="68" stroke="#00838F" stroke-width="1.5"/>
  <line x1="290" y1="68" x2="290" y2="85" stroke="#00838F" stroke-width="1.5" marker-end="url(#aTeal)"/>
  <text x="455" y="62" font-size="9" fill="#00838F" font-style="italic">r_baud == CLKS_PER_BIT−1 (bit-time tick)</text>

  <!-- r_bit feedback to FSM -->
  <line x1="420" y1="210" x2="400" y2="210" stroke="#7B1FA2" stroke-width="1.5"/>
  <line x1="400" y1="210" x2="400" y2="200" stroke="#7B1FA2" stroke-width="1.5" marker-end="url(#aPur)"/>

  <!-- Outputs -->
  <!-- o_tx: from r_shift[0] -->
  <line x1="820" y1="145" x2="880" y2="145" stroke="#2E7D32" stroke-width="2"/>
  <line x1="880" y1="145" x2="880" y2="280" stroke="#2E7D32" stroke-width="2"/>
  <line x1="880" y1="280" x2="160" y2="280" stroke="#2E7D32" stroke-width="2"/>
  <line x1="160" y1="280" x2="125" y2="280" stroke="#2E7D32" stroke-width="2" marker-end="url(#aGrn)"/>
  <text x="40" y="284" font-size="12" fill="#2E7D32" font-weight="700">o_tx</text>
  <text x="500" y="293" text-anchor="middle" font-size="9" fill="#2E7D32" font-weight="700">o_tx ← r_shift[0] (or 0 for start, 1 for stop/idle)</text>

  <!-- o_busy: from FSM (1 in non-IDLE) -->
  <line x1="200" y1="190" x2="160" y2="190" stroke="#2E7D32" stroke-width="2"/>
  <line x1="160" y1="190" x2="160" y2="320" stroke="#2E7D32" stroke-width="2"/>
  <line x1="160" y1="320" x2="125" y2="320" stroke="#2E7D32" stroke-width="2" marker-end="url(#aGrn)"/>
  <text x="40" y="324" font-size="12" fill="#2E7D32" font-weight="700">o_busy</text>
  <text x="190" y="335" font-size="9" fill="#2E7D32" font-weight="700">1 while r_state ≠ S_IDLE</text>

  <!-- legend -->
  <rect x="500" y="305" width="380" height="68" rx="6" fill="#F5F5F5" stroke="#DDD" stroke-width="1"/>
  <text x="690" y="322" text-anchor="middle" font-size="10" font-weight="700" fill="#333">Signal palette (matches code coloring)</text>
  <text x="510" y="340" font-size="9" fill="#1976D2" font-weight="700">i_clk</text>
  <text x="555" y="340" font-size="9" fill="#D32F2F" font-weight="700">i_reset</text>
  <text x="605" y="340" font-size="9" fill="#F57C00" font-weight="700">i_data</text>
  <text x="655" y="340" font-size="9" fill="#C2185B" font-weight="700">i_valid</text>
  <text x="705" y="340" font-size="9" fill="#7B1FA2" font-weight="700">r_state/r_baud/r_bit</text>
  <text x="510" y="356" font-size="9" fill="#9A6F00" font-weight="700">r_shift</text>
  <text x="560" y="356" font-size="9" fill="#00838F" font-weight="700">baud_tick</text>
  <text x="625" y="356" font-size="9" fill="#2E7D32" font-weight="700">o_tx / o_busy</text>
  <text x="690" y="368" text-anchor="middle" font-size="8" fill="#888" font-style="italic">~32 cells total on iCE40 HX1K</text>
</svg>
