<?xml version="1.0" encoding="UTF-8"?>
<svg xmlns="http://www.w3.org/2000/svg" viewBox="0 0 880 360" font-family="Inter, sans-serif">
  <defs>
    <marker id="aBlu" markerWidth="8" markerHeight="6" refX="7" refY="3" orient="auto"><path d="M0,0 L8,3 L0,6 Z" fill="#1976D2"/></marker>
    <marker id="aOrg" markerWidth="8" markerHeight="6" refX="7" refY="3" orient="auto"><path d="M0,0 L8,3 L0,6 Z" fill="#F57C00"/></marker>
    <marker id="aGrn" markerWidth="8" markerHeight="6" refX="7" refY="3" orient="auto"><path d="M0,0 L8,3 L0,6 Z" fill="#2E7D32"/></marker>
    <marker id="aPur" markerWidth="8" markerHeight="6" refX="7" refY="3" orient="auto"><path d="M0,0 L8,3 L0,6 Z" fill="#7B1FA2"/></marker>
    <marker id="aAmb" markerWidth="8" markerHeight="6" refX="7" refY="3" orient="auto"><path d="M0,0 L8,3 L0,6 Z" fill="#9A6F00"/></marker>
    <marker id="aTeal" markerWidth="8" markerHeight="6" refX="7" refY="3" orient="auto"><path d="M0,0 L8,3 L0,6 Z" fill="#00838F"/></marker>
    <marker id="aMag" markerWidth="8" markerHeight="6" refX="7" refY="3" orient="auto"><path d="M0,0 L8,3 L0,6 Z" fill="#C2185B"/></marker>
  </defs>

  <text x="440" y="22" text-anchor="middle" font-size="14" font-weight="700" fill="#333">hello_tx — Char ROM + Slow Timer + uart_tx Submodule</text>

  <!-- outer module -->
  <rect x="30" y="45" width="820" height="290" rx="10" fill="#FAFAFA" stroke="#37474F" stroke-width="2" stroke-dasharray="6,4"/>
  <text x="45" y="65" font-size="12" font-weight="700" fill="#37474F">module hello_tx</text>

  <!-- char rom -->
  <rect x="130" y="90" width="180" height="80" rx="8" fill="#FFF3E0" stroke="#9A6F00" stroke-width="2"/>
  <text x="220" y="112" text-anchor="middle" font-size="12" font-weight="700" fill="#9A6F00">rom[0:4]</text>
  <text x="220" y="128" text-anchor="middle" font-size="9" fill="#555">'H','E','L','L','O'</text>
  <text x="220" y="146" text-anchor="middle" font-size="9" fill="#666" font-style="italic">initial begin … end</text>
  <text x="220" y="160" text-anchor="middle" font-size="8" fill="#888">~5 LUTs (case-collapsed)</text>

  <!-- r_timer -->
  <rect x="130" y="190" width="180" height="70" rx="8" fill="#F3E5F5" stroke="#7B1FA2" stroke-width="2"/>
  <text x="220" y="212" text-anchor="middle" font-size="12" font-weight="700" fill="#7B1FA2">r_timer (24 bits)</text>
  <text x="220" y="228" text-anchor="middle" font-size="9" fill="#888">counts to 12_500_000</text>
  <text x="220" y="244" text-anchor="middle" font-size="9" fill="#888" font-style="italic">pulses r_send (0.5 s @ 25 MHz)</text>

  <!-- r_idx -->
  <rect x="350" y="190" width="120" height="70" rx="8" fill="#F3E5F5" stroke="#7B1FA2" stroke-width="2"/>
  <text x="410" y="212" text-anchor="middle" font-size="12" font-weight="700" fill="#7B1FA2">r_idx (3 bits)</text>
  <text x="410" y="228" text-anchor="middle" font-size="9" fill="#888">0..4 char select</text>
  <text x="410" y="244" text-anchor="middle" font-size="9" fill="#888" font-style="italic">wraps after 'O'</text>

  <!-- uart_tx instance -->
  <rect x="540" y="100" width="240" height="140" rx="8" fill="#FCE4EC" stroke="#C2185B" stroke-width="2"/>
  <text x="660" y="124" text-anchor="middle" font-size="13" font-weight="700" fill="#C2185B">u_tx</text>
  <text x="660" y="140" text-anchor="middle" font-size="10" fill="#C2185B">uart_tx #(.CLKS_PER_BIT(217))</text>
  <text x="555" y="166" font-size="9" fill="#1976D2" font-weight="700">.i_clk</text>
  <text x="555" y="184" font-size="9" fill="#D32F2F" font-weight="700">.i_reset(1'b0)</text>
  <text x="555" y="202" font-size="9" fill="#C2185B" font-weight="700">.i_valid(r_send)</text>
  <text x="555" y="220" font-size="9" fill="#F57C00" font-weight="700">.i_data(rom[r_idx])</text>
  <text x="770" y="184" font-size="9" fill="#2E7D32" font-weight="700" text-anchor="end">.o_tx</text>

  <!-- top inputs -->
  <text x="40" y="120" font-size="12" fill="#1976D2" font-weight="700">i_clk</text>
  <line x1="76" y1="115" x2="115" y2="115" stroke="#1976D2" stroke-width="2"/>
  <line x1="115" y1="115" x2="115" y2="225" stroke="#1976D2" stroke-width="2"/>
  <line x1="115" y1="225" x2="130" y2="225" stroke="#1976D2" stroke-width="2" marker-end="url(#aBlu)"/>
  <line x1="115" y1="115" x2="540" y2="115" stroke="#1976D2" stroke-width="2"/>
  <line x1="540" y1="115" x2="540" y2="163" stroke="#1976D2" stroke-width="2" marker-end="url(#aBlu)"/>
  <line x1="115" y1="125" x2="130" y2="125" stroke="#1976D2" stroke-width="2" marker-end="url(#aBlu)"/>

  <!-- r_timer → r_send (and back, increments r_idx) -->
  <line x1="310" y1="225" x2="350" y2="225" stroke="#C2185B" stroke-width="2" marker-end="url(#aMag)"/>
  <text x="330" y="218" text-anchor="middle" font-size="9" fill="#C2185B" font-weight="700">r_send</text>

  <!-- r_send → uart_tx i_valid -->
  <line x1="410" y1="190" x2="410" y2="120" stroke="#C2185B" stroke-width="1.5"/>
  <line x1="410" y1="120" x2="490" y2="120" stroke="#C2185B" stroke-width="1.5"/>
  <line x1="490" y1="120" x2="490" y2="198" stroke="#C2185B" stroke-width="1.5"/>
  <line x1="490" y1="198" x2="540" y2="198" stroke="#C2185B" stroke-width="1.5" marker-end="url(#aMag)"/>

  <!-- r_idx → rom -->
  <line x1="350" y1="225" x2="350" y2="225" stroke="#7B1FA2" stroke-width="0"/>
  <line x1="350" y1="218" x2="320" y2="218" stroke="#7B1FA2" stroke-width="1.5"/>
  <line x1="320" y1="218" x2="320" y2="175" stroke="#7B1FA2" stroke-width="1.5"/>
  <line x1="320" y1="175" x2="290" y2="170" stroke="#7B1FA2" stroke-width="1.5" marker-end="url(#aPur)"/>
  <text x="305" y="168" font-size="8" fill="#7B1FA2" font-style="italic">r_idx → rom addr</text>

  <!-- rom data → uart_tx -->
  <line x1="310" y1="130" x2="430" y2="130" stroke="#9A6F00" stroke-width="2"/>
  <line x1="430" y1="130" x2="430" y2="215" stroke="#9A6F00" stroke-width="2"/>
  <line x1="430" y1="215" x2="540" y2="215" stroke="#9A6F00" stroke-width="2" marker-end="url(#aAmb)"/>
  <text x="360" y="122" font-size="9" fill="#9A6F00" font-style="italic">rom[r_idx] (8-bit char)</text>

  <!-- o_tx output -->
  <line x1="780" y1="180" x2="850" y2="180" stroke="#2E7D32" stroke-width="2"/>
  <line x1="850" y1="180" x2="850" y2="300" stroke="#2E7D32" stroke-width="2"/>
  <line x1="850" y1="300" x2="100" y2="300" stroke="#2E7D32" stroke-width="2" marker-end="url(#aGrn)"/>
  <text x="40" y="304" font-size="12" fill="#2E7D32" font-weight="700">o_tx</text>
</svg>
