<svg xmlns="http://www.w3.org/2000/svg" viewBox="0 0 800 380" font-family="Inter, Segoe UI, Helvetica Neue, sans-serif">
  <defs>
    <marker id="arw" viewBox="0 0 10 7" refX="10" refY="3.5" markerWidth="7" markerHeight="5" orient="auto-start-reverse">
      <path d="M 0 0 L 10 3.5 L 0 7 z" fill="#5F6062"/>
    </marker>
    <filter id="sh" x="-3%" y="-3%" width="106%" height="110%">
      <feDropShadow dx="0" dy="2" stdDeviation="3" flood-opacity="0.12"/>
    </filter>
  </defs>

  <!-- Module body -->
  <rect x="220" y="40" width="360" height="280" rx="10" fill="#FFFFFF" stroke="#2C2A29" stroke-width="3" filter="url(#sh)"/>

  <!-- Module name header -->
  <rect x="220" y="40" width="360" height="44" rx="10" fill="#000000"/>
  <rect x="220" y="70" width="360" height="14" fill="#000000"/>
  <text x="400" y="68" text-anchor="middle" font-size="18" font-weight="700" fill="#FFC904">led_driver</text>

  <!-- Keyword labels outside -->
  <text x="400" y="26" text-anchor="middle" font-size="11" fill="#5F6062" font-style="italic">module led_driver ( ... );</text>
  <text x="400" y="346" text-anchor="middle" font-size="11" fill="#5F6062" font-style="italic">endmodule</text>

  <!-- INPUT ports (left side) -->
  <text x="60" y="140" text-anchor="end" font-size="14" font-weight="600" fill="#1565C0">i_switch1</text>
  <text x="60" y="156" text-anchor="end" font-size="10" fill="#5F6062">input wire</text>
  <line x1="68" y1="136" x2="220" y2="136" stroke="#1565C0" stroke-width="2.5" marker-end="url(#arw)"/>

  <text x="60" y="210" text-anchor="end" font-size="14" font-weight="600" fill="#1565C0">i_clk</text>
  <text x="60" y="226" text-anchor="end" font-size="10" fill="#5F6062">input wire</text>
  <line x1="68" y1="206" x2="220" y2="206" stroke="#1565C0" stroke-width="2.5" marker-end="url(#arw)"/>

  <!-- Clock triangle symbol -->
  <polygon points="222,198 236,206 222,214" fill="none" stroke="#1565C0" stroke-width="1.5"/>

  <text x="60" y="275" text-anchor="end" font-size="14" font-weight="600" fill="#1565C0">i_reset</text>
  <text x="60" y="291" text-anchor="end" font-size="10" fill="#5F6062">input wire</text>
  <line x1="68" y1="271" x2="220" y2="271" stroke="#1565C0" stroke-width="2.5" marker-end="url(#arw)"/>

  <!-- OUTPUT ports (right side) -->
  <text x="740" y="140" text-anchor="start" font-size="14" font-weight="600" fill="#2E7D32">o_led1</text>
  <text x="740" y="156" text-anchor="start" font-size="10" fill="#5F6062">output wire</text>
  <line x1="580" y1="136" x2="732" y2="136" stroke="#2E7D32" stroke-width="2.5" marker-end="url(#arw)"/>

  <text x="740" y="220" text-anchor="start" font-size="14" font-weight="600" fill="#2E7D32">o_busy</text>
  <text x="740" y="236" text-anchor="start" font-size="10" fill="#5F6062">output reg</text>
  <line x1="580" y1="216" x2="732" y2="216" stroke="#2E7D32" stroke-width="2.5" marker-end="url(#arw)"/>

  <!-- Internal behavior label -->
  <text x="400" y="150" text-anchor="middle" font-size="12" fill="#5F6062">Behavior</text>
  <rect x="290" y="162" width="220" height="80" rx="6" fill="#FFF8E1" stroke="#FFC904" stroke-width="1.5" stroke-dasharray="4 3"/>
  <text x="400" y="190" text-anchor="middle" font-family="JetBrains Mono, monospace" font-size="12" fill="#2C2A29">assign o_led1 =</text>
  <text x="400" y="210" text-anchor="middle" font-family="JetBrains Mono, monospace" font-size="12" fill="#2C2A29">  i_switch1;</text>
  <text x="400" y="232" text-anchor="middle" font-size="10" fill="#888">( assign / always / instances )</text>

  <!-- Legend -->
  <line x1="260" y1="300" x2="290" y2="300" stroke="#1565C0" stroke-width="2.5" marker-end="url(#arw)"/>
  <text x="296" y="304" font-size="10" fill="#5F6062">input (i_ prefix)</text>
  <line x1="420" y1="300" x2="450" y2="300" stroke="#2E7D32" stroke-width="2.5" marker-end="url(#arw)"/>
  <text x="456" y="304" font-size="10" fill="#5F6062">output (o_ prefix)</text>
</svg>
